<svg width="50" height="35" viewBox="0 0 50 35" fill="none" xmlns="http://www.w3.org/2000/svg">
<path d="M24.9991 20.6663H5.55469V5.46165C5.55469 2.90538 7.58633 0.833008 10.0926 0.833008H20.4613C22.9675 0.833008 24.9992 2.90528 24.9992 5.46165V20.6663H24.9991Z" fill="#0681AF"/>
<path d="M25 20.6663H44.4444V5.46165C44.4444 2.90538 42.4128 0.833008 39.9065 0.833008H29.5379C27.0317 0.833008 25 2.90528 25 5.46165V20.6663Z" fill="#0681AF"/>
<path d="M20.4612 0.833008H20.2074C20.709 1.59464 20.9762 2.49169 20.9748 3.4092V11.5615C20.9748 13.8916 19.1229 15.7806 16.8385 15.7806H5.55469V20.6663H24.9991V5.46165C24.9991 2.90538 22.9675 0.833008 20.4612 0.833008Z" fill="#017297"/>
<path d="M39.9066 0.833008H39.6528C40.1544 1.59464 40.4216 2.49169 40.4202 3.4092V11.5615C40.4202 13.8916 38.5684 15.7806 36.2839 15.7806H27.3168C26.0373 15.7806 25 16.8386 25 18.1437V20.6663H44.4444V5.46165C44.4445 2.90538 42.4129 0.833008 39.9066 0.833008Z" fill="#017297"/>
<path d="M7.85937 34.8332H6.09053C5.94841 34.8332 5.81212 34.7757 5.71163 34.6732C5.61114 34.5707 5.55469 34.4316 5.55469 34.2867V23.5H9.72139L8.39111 34.3544C8.37493 34.4866 8.31195 34.6082 8.21404 34.6964C8.11612 34.7846 7.98999 34.8332 7.85937 34.8332ZM42.1389 34.8332H43.9077C44.0498 34.8332 44.1861 34.7757 44.2866 34.6732C44.3871 34.5707 44.4436 34.4316 44.4436 34.2867V23.5H40.2769L41.607 34.3545C41.6233 34.4867 41.6863 34.6083 41.7842 34.6964C41.8821 34.7846 42.0083 34.8332 42.1389 34.8332Z" fill="#FDB441"/>
<path d="M46.5262 7.91602H43.319C42.6995 7.91602 42.1975 8.42821 42.1975 9.05993V23.4993H25H7.80255V9.05993C7.80255 8.42811 7.30041 7.91602 6.68107 7.91602H3.47384C1.36027 7.91602 -0.263363 9.82552 0.0355627 11.9597L1.84865 24.9049C2.07726 26.5371 3.44767 27.7494 5.06408 27.7494H44.9359C46.5523 27.7494 47.9228 26.5371 48.1514 24.9049L49.9645 11.9597C50.2634 9.82552 48.6398 7.91602 46.5262 7.91602Z" fill="#025F80"/>
<path d="M5.55469 20.6337V23.6321C5.55469 24.3413 6.11836 24.9163 6.81377 24.9163H23.7401C24.4354 24.9163 24.9992 24.3414 24.9992 23.6321L25.2043 22.3066L24.9992 20.6337C24.9991 19.0869 23.7697 17.833 22.2533 17.833H8.30049C6.78398 17.833 5.55469 19.0869 5.55469 20.6337Z" fill="#0681AF"/>
<path d="M41.6986 17.833H27.7458C26.2293 17.833 25 19.0869 25 20.6337V23.6321C25 24.3413 25.5637 24.9163 26.2591 24.9163H43.1854C43.8808 24.9163 44.4445 24.3414 44.4445 23.6321V20.6337C44.4444 19.0869 43.2151 17.833 41.6986 17.833Z" fill="#0681AF"/>
</svg>
