<svg width="96" height="17" viewBox="0 0 96 17" fill="none" xmlns="http://www.w3.org/2000/svg">
<path d="M8.77247 1.00228L10.5771 4.82582C10.7026 5.09175 10.9452 5.27601 11.2259 5.31859L15.2613 5.93177C15.9682 6.03926 16.2502 6.94733 15.7389 7.46837L12.8189 10.4446C12.616 10.6515 12.5232 10.9499 12.5712 11.242L13.2604 15.4445C13.3813 16.1806 12.6423 16.7417 12.0102 16.3945L8.401 14.4105C8.15002 14.2726 7.84998 14.2726 7.599 14.4105L3.9898 16.3945C3.35768 16.7421 2.61875 16.1806 2.73957 15.4445L3.42877 11.242C3.47683 10.9499 3.38404 10.6515 3.18112 10.4446L0.261124 7.46837C-0.250184 6.94698 0.0318368 6.03891 0.738724 5.93177L4.77412 5.31859C5.05481 5.27601 5.29744 5.09175 5.42293 4.82582L7.22753 1.00228C7.54326 0.332572 8.45641 0.332572 8.77247 1.00228Z" fill="#FFC73B"/>
<path d="M28.7725 1.00228L30.5771 4.82582C30.7026 5.09175 30.9452 5.27601 31.2259 5.31859L35.2613 5.93177C35.9682 6.03926 36.2502 6.94733 35.7389 7.46837L32.8189 10.4446C32.616 10.6515 32.5232 10.9499 32.5712 11.242L33.2604 15.4445C33.3813 16.1806 32.6423 16.7417 32.0102 16.3945L28.401 14.4105C28.15 14.2726 27.85 14.2726 27.599 14.4105L23.9898 16.3945C23.3577 16.7421 22.6187 16.1806 22.7396 15.4445L23.4288 11.242C23.4768 10.9499 23.384 10.6515 23.1811 10.4446L20.2611 7.46837C19.7498 6.94698 20.0318 6.03891 20.7387 5.93177L24.7741 5.31859C25.0548 5.27601 25.2974 5.09175 25.4229 4.82582L27.2275 1.00228C27.5433 0.332572 28.4564 0.332572 28.7725 1.00228Z" fill="#FFC73B"/>
<path d="M48.7725 1.00228L50.5771 4.82582C50.7026 5.09175 50.9452 5.27601 51.2259 5.31859L55.2613 5.93177C55.9682 6.03926 56.2502 6.94733 55.7389 7.46837L52.8189 10.4446C52.616 10.6515 52.5232 10.9499 52.5712 11.242L53.2604 15.4445C53.3813 16.1806 52.6423 16.7417 52.0102 16.3945L48.401 14.4105C48.15 14.2726 47.85 14.2726 47.599 14.4105L43.9898 16.3945C43.3577 16.7421 42.6187 16.1806 42.7396 15.4445L43.4288 11.242C43.4768 10.9499 43.384 10.6515 43.1811 10.4446L40.2611 7.46837C39.7498 6.94698 40.0318 6.03891 40.7387 5.93177L44.7741 5.31859C45.0548 5.27601 45.2974 5.09175 45.4229 4.82582L47.2275 1.00228C47.5433 0.332572 48.4564 0.332572 48.7725 1.00228Z" fill="#FFC73B"/>
<path d="M68.7725 1.00228L70.5771 4.82582C70.7026 5.09175 70.9452 5.27601 71.2259 5.31859L75.2613 5.93177C75.9682 6.03926 76.2502 6.94733 75.7389 7.46837L72.8189 10.4446C72.616 10.6515 72.5232 10.9499 72.5712 11.242L73.2604 15.4445C73.3813 16.1806 72.6423 16.7417 72.0102 16.3945L68.401 14.4105C68.15 14.2726 67.85 14.2726 67.599 14.4105L63.9898 16.3945C63.3577 16.7421 62.6187 16.1806 62.7396 15.4445L63.4288 11.242C63.4768 10.9499 63.384 10.6515 63.1811 10.4446L60.2611 7.46837C59.7498 6.94698 60.0318 6.03891 60.7387 5.93177L64.7741 5.31859C65.0548 5.27601 65.2974 5.09175 65.4229 4.82582L67.2275 1.00228C67.5433 0.332572 68.4564 0.332572 68.7725 1.00228Z" fill="#FFC73B"/>
<path d="M88.7725 1.00228L90.5771 4.82582C90.7026 5.09175 90.9452 5.27601 91.2259 5.31859L95.2613 5.93177C95.9682 6.03926 96.2502 6.94733 95.7389 7.46837L92.8189 10.4446C92.616 10.6515 92.5232 10.9499 92.5712 11.242L93.2604 15.4445C93.3813 16.1806 92.6423 16.7417 92.0102 16.3945L88.401 14.4105C88.15 14.2726 87.85 14.2726 87.599 14.4105L83.9898 16.3945C83.3577 16.7421 82.6187 16.1806 82.7396 15.4445L83.4288 11.242C83.4768 10.9499 83.384 10.6515 83.1811 10.4446L80.2611 7.46837C79.7498 6.94698 80.0318 6.03891 80.7387 5.93177L84.7741 5.31859C85.0548 5.27601 85.2974 5.09175 85.4229 4.82582L87.2275 1.00228C87.5433 0.332572 88.4564 0.332572 88.7725 1.00228Z" fill="#FFC73B"/>
</svg>
