<svg width="40" height="40" viewBox="0 0 40 40" fill="none" xmlns="http://www.w3.org/2000/svg">
<path d="M2.50001 2.72166C-0.643327 5.98666 6.57886e-06 9.455 6.57886e-06 19.9917C6.57886e-06 28.7417 -1.52666 37.5133 6.46334 39.5783C8.95834 40.22 31.065 40.22 33.5567 39.575C36.8833 38.7167 39.59 36.0183 39.96 31.3133C40.0117 30.6567 40.0117 9.33833 39.9583 8.66833C39.565 3.65666 36.48 0.768329 32.415 0.183329C31.4833 0.0483293 31.2967 0.00832928 26.5167 -4.05312e-06C9.56167 0.00832928 5.84501 -0.746671 2.50001 2.72166Z" fill="url(#paint0_linear_37_2191)"/>
<path d="M19.9967 5.23166C13.945 5.23166 8.19835 4.69333 6.00335 10.3267C5.09668 12.6533 5.22835 15.675 5.22835 20.0017C5.22835 23.7983 5.10668 27.3667 6.00335 29.675C8.19335 35.3117 13.9867 34.7717 19.9934 34.7717C25.7884 34.7717 31.7634 35.375 33.985 29.675C34.8934 27.325 34.76 24.3483 34.76 20.0017C34.76 14.2317 35.0784 10.5067 32.28 7.70999C29.4467 4.87666 25.615 5.23166 19.99 5.23166H19.9967ZM18.6734 7.89333C31.2967 7.87333 32.9034 6.47 32.0167 25.965C31.7017 32.86 26.4517 32.1033 19.9983 32.1033C8.23168 32.1033 7.89335 31.7667 7.89335 19.995C7.89335 8.08666 8.82668 7.89999 18.6734 7.88999V7.89333ZM27.88 10.345C27.4101 10.345 26.9595 10.5317 26.6273 10.8639C26.295 11.1962 26.1084 11.6468 26.1084 12.1167C26.1084 12.5865 26.295 13.0372 26.6273 13.3694C26.9595 13.7017 27.4101 13.8883 27.88 13.8883C28.3499 13.8883 28.8005 13.7017 29.1328 13.3694C29.465 13.0372 29.6517 12.5865 29.6517 12.1167C29.6517 11.6468 29.465 11.1962 29.1328 10.8639C28.8005 10.5317 28.3499 10.345 27.88 10.345ZM19.9967 12.4167C19.0007 12.4168 18.0145 12.613 17.0944 12.9943C16.1743 13.3755 15.3383 13.9343 14.6341 14.6386C13.212 16.0611 12.4131 17.9902 12.4134 20.0017C12.4136 22.0131 13.2128 23.9421 14.6353 25.3642C16.0578 26.7864 17.9869 27.5852 19.9983 27.585C22.0098 27.5848 23.9388 26.7855 25.3609 25.3631C26.7831 23.9406 27.5819 22.0114 27.5817 20C27.5815 17.9885 26.7822 16.0596 25.3597 14.6374C23.9373 13.2153 22.0081 12.4164 19.9967 12.4167ZM19.9967 15.0783C26.505 15.0783 26.5133 24.925 19.9967 24.925C13.49 24.925 13.48 15.0783 19.9967 15.0783Z" fill="white"/>
<defs>
<linearGradient id="paint0_linear_37_2191" x1="2.57671" y1="37.4452" x2="39.7525" y2="5.26996" gradientUnits="userSpaceOnUse">
<stop stop-color="#FFDD55"/>
<stop offset="0.5" stop-color="#FF543E"/>
<stop offset="1" stop-color="#C837AB"/>
</linearGradient>
</defs>
</svg>
