<svg width="40" height="40" viewBox="0 0 40 40" fill="none" xmlns="http://www.w3.org/2000/svg">
<path d="M34.5455 0H5.45455C2.44208 0 0 2.44208 0 5.45455V34.5455C0 37.5579 2.44208 40 5.45455 40H34.5455C37.5579 40 40 37.5579 40 34.5455V5.45455C40 2.44208 37.5579 0 34.5455 0Z" fill="#1C8ADB"/>
<path d="M30.8954 10.341L30.4818 10.491L8.0318 18.5796C7.87271 18.6288 7.73444 18.7294 7.63866 18.8656C7.54288 19.0018 7.495 19.166 7.50254 19.3323C7.51008 19.4987 7.5726 19.6578 7.68031 19.7848C7.78802 19.9119 7.93482 19.9995 8.09771 20.0341L13.9091 21.625L14.9932 24.8069L16.0773 27.9887C16.1395 28.1447 16.2389 28.2831 16.3669 28.3919C16.4948 28.5008 16.6473 28.5767 16.8112 28.6132C16.9752 28.6497 17.1456 28.6457 17.3076 28.6014C17.4696 28.5571 17.6183 28.4739 17.7409 28.3591L20.7432 25.5228L26.6386 29.5205C27.3591 30.0114 28.3863 29.6478 28.5704 28.8387L32.475 11.5864C32.6659 10.7319 31.7659 10.0296 30.8954 10.341ZM28.0295 14.1705L17.8863 22.4614L17.4091 22.8523C17.3042 22.9354 17.2358 23.056 17.2182 23.1887L17.1113 24.0705L16.8182 26.5478C16.8206 26.5779 16.8109 26.6078 16.7913 26.6308C16.7717 26.6538 16.7438 26.6681 16.7136 26.6705C16.6835 26.6729 16.6536 26.6632 16.6306 26.6436C16.6076 26.624 16.5933 26.5961 16.5909 26.566L15.7659 24.091L14.9136 21.5569C14.8776 21.443 14.8824 21.32 14.9272 21.2093C14.972 21.0985 15.054 21.0069 15.1591 20.95L25.7136 14.9L27.7 13.7637C27.9886 13.5955 28.2841 13.9614 28.0295 14.1705Z" fill="white"/>
</svg>
