<svg width="310" height="44" viewBox="0 0 310 44" fill="none" xmlns="http://www.w3.org/2000/svg">
<g clip-path="url(#clip0_37_2086)">
<path fill-rule="evenodd" clip-rule="evenodd" d="M79.2237 0.927024L68.5318 43.3361H55.6037L66.297 0.927024H79.2237ZM133.617 28.3107L140.424 12.3853L144.341 28.3107H133.617ZM148.041 43.3361H160L149.565 0.927024H138.526C136.047 0.927024 133.953 2.15148 133.023 4.03845L113.627 43.3361H127.201L129.898 37.0033H146.484L148.041 43.3361ZM114.301 29.4899C114.356 18.2963 96.0578 17.6797 96.1852 12.6794C96.223 11.1577 97.9319 9.54034 101.667 9.12611C103.523 8.92057 108.624 8.7628 114.417 11.025L116.685 2.03205C113.575 1.07285 109.57 0.151367 104.592 0.151367C91.8141 0.151367 82.8185 5.91662 82.743 14.1717C82.6622 20.2763 89.163 23.6819 94.063 25.7122C99.0985 27.7915 100.791 29.1229 100.77 30.9815C100.736 33.829 96.7511 35.083 93.0341 35.1326C86.5326 35.22 82.7607 33.6435 79.7533 32.4543L77.4104 41.7465C80.4311 42.9244 86.0059 43.9471 91.7904 43.9999C105.37 43.9999 114.256 38.305 114.301 29.4899ZM60.7496 0.927024L39.803 43.3361H26.1348L15.8281 9.49068C15.2015 7.40571 14.6578 6.64325 12.7533 5.76514C9.64963 4.33451 4.5163 2.99188 0 2.15902L0.308889 0.927024H22.3067C25.1104 0.927024 27.6326 2.5104 28.2689 5.25034L33.7133 29.7929L47.1674 0.927024H60.7496Z" fill="#232323"/>
</g>
<path fill-rule="evenodd" clip-rule="evenodd" d="M210.003 7H238.606V36.0715C219.327 36.1807 209.793 36.1807 210.003 36.0715C210.214 35.9623 210.214 34.08 210.003 30.4244H232.9V24.4436H210.003V18.8568H232.9V12.8149H210.003V7Z" fill="#232323"/>
<path fill-rule="evenodd" clip-rule="evenodd" d="M274.75 7V12.9591H252.05V18.5765H274.75V36.02H246.364V7H274.75ZM252.03 30.2602H268.923V24.4851H252.03V30.2602Z" fill="#232323"/>
<path fill-rule="evenodd" clip-rule="evenodd" d="M281.074 7H309.579V36.1312H281.074V7ZM286.909 13.0899V30.4645H303.711V13.0899H286.909Z" fill="#232323"/>
<defs>
<clipPath id="clip0_37_2086">
<rect width="160" height="44" fill="white"/>
</clipPath>
</defs>
</svg>
