<svg width="70" height="70" viewBox="0 0 70 70" fill="none" xmlns="http://www.w3.org/2000/svg">
<mask id="mask0_37_2442" style="mask-type:luminance" maskUnits="userSpaceOnUse" x="0" y="0" width="70" height="70">
<path d="M0 0H70V70H0V0Z" fill="white"/>
</mask>
<g mask="url(#mask0_37_2442)">
<path d="M2.99121 11.2873V61.4479C2.99121 63.4324 4.60012 65.0413 6.58459 65.0413H63.4186C65.4032 65.0413 67.0121 63.4324 67.0121 61.4479V11.2873H2.99121Z" fill="#C5D3DD"/>
<path d="M62.3406 11.2873V61.4479C62.3406 63.4324 60.7317 65.0413 58.7471 65.0413H63.4186C65.4031 65.0413 67.012 63.4324 67.012 61.4479V11.2873H62.3406Z" fill="#B6C4CF"/>
<path d="M14.2093 70H7.92771C7.69901 70 7.47968 69.9091 7.31798 69.7474C7.15627 69.5856 7.06543 69.3663 7.06543 69.1376V65.0411H15.0717V69.1376C15.0717 69.3663 14.9808 69.5857 14.8191 69.7474C14.6573 69.9091 14.438 70 14.2093 70Z" fill="#7A8D98"/>
<path d="M62.0753 70H55.7938C55.5651 70 55.3458 69.9091 55.1841 69.7474C55.0224 69.5856 54.9315 69.3663 54.9315 69.1376V65.0411H62.9378V69.1376C62.9378 69.3663 62.8469 69.5857 62.6852 69.7474C62.5234 69.9091 62.3041 70 62.0753 70Z" fill="#7A8D98"/>
<path d="M8.74023 57.8547V23.3578H61.2621V57.8547C61.2621 58.6486 60.6186 59.2921 59.8248 59.2921H10.1776C9.38377 59.2921 8.74023 58.6486 8.74023 57.8547Z" fill="#FDDBA6"/>
<path d="M67.0121 15.0204H2.99121V3.5933C2.99121 1.60869 4.60012 -8.29697e-05 6.58473 -8.29697e-05H63.4187C65.4032 -8.29697e-05 67.0121 1.60869 67.0121 3.5933V15.0204Z" fill="#7A8D98"/>
<path d="M56.9454 11.212C54.9012 11.212 53.2441 9.555 53.2441 7.51079C53.2441 5.4667 54.9012 3.80954 56.9454 3.80954C58.9895 3.80954 60.6466 5.4667 60.6466 7.51079C60.6466 9.555 58.9895 11.212 56.9454 11.212Z" fill="#F47C7C"/>
<path d="M40.2755 7.51079C40.2755 9.555 38.6185 11.212 36.5743 11.212C34.5302 11.212 32.873 9.555 32.873 7.51079C32.873 5.4667 34.5302 3.80954 36.5743 3.80954C38.6185 3.80954 40.2755 5.4667 40.2755 7.51079Z" fill="#B6C4CF"/>
<path d="M28.0519 7.51079C28.0519 9.555 26.3947 11.212 24.3507 11.212C22.3066 11.212 20.6494 9.555 20.6494 7.51079C20.6494 5.4667 22.3066 3.80954 24.3507 3.80954C26.3947 3.80954 28.0519 5.4667 28.0519 7.51079Z" fill="#B6C4CF"/>
<path d="M15.8283 7.51079C15.8283 9.555 14.1711 11.212 12.127 11.212C10.0829 11.212 8.42578 9.555 8.42578 7.51079C8.42578 5.4667 10.0829 3.80954 12.127 3.80954C14.1711 3.80954 15.8283 5.4667 15.8283 7.51079Z" fill="#B6C4CF"/>
<path d="M63.4185 -8.29697e-05H58.7471C60.7317 -8.29697e-05 62.3404 1.60882 62.3404 3.5933V15.0204H67.0119V3.5933C67.0119 1.60882 65.4031 -8.29697e-05 63.4185 -8.29697e-05Z" fill="#596C76"/>
<path d="M54.9311 68.0277H62.9373V65.0416H54.9311V68.0277ZM7.06543 68.0277H15.0717V65.0416H7.06543V68.0277Z" fill="#596C76"/>
<path d="M56.373 23.3578V57.8547C56.373 58.6486 55.7295 59.2921 54.9355 59.2921H59.825C60.6188 59.2921 61.2623 58.6486 61.2623 57.8547V23.3578H56.373Z" fill="#FECE85"/>
<path d="M9.81914 24.4357V57.8545C9.81921 57.9498 9.85709 58.0411 9.92446 58.1085C9.99182 58.1759 10.0832 58.2137 10.1784 58.2138H59.8257C59.9209 58.2137 60.0123 58.1759 60.0797 58.1085C60.1471 58.0411 60.185 57.9498 60.1851 57.8545V24.4357H9.81914ZM59.8257 60.3699H10.1784C8.79156 60.3699 7.66309 59.2415 7.66309 57.8545V23.3576C7.66309 23.0717 7.77666 22.7975 7.97883 22.5954C8.181 22.3932 8.4552 22.2796 8.74111 22.2796H61.263C61.5489 22.2796 61.8231 22.3932 62.0253 22.5954C62.2275 22.7975 62.3411 23.0717 62.3411 23.3576V57.8545C62.3411 59.2415 61.2127 60.3699 59.8257 60.3699Z" fill="#7A8D98"/>
<path d="M61.2625 22.2795H56.9054V24.4355H60.1845V57.8544C60.1844 57.9497 60.1466 58.041 60.0792 58.1084C60.0118 58.1757 59.9205 58.2136 59.8252 58.2137H56.3262V60.3699H59.8252C61.2121 60.3699 62.3406 59.2414 62.3406 57.8544V23.3575C62.3406 23.0716 62.227 22.7974 62.0248 22.5952C61.8227 22.3931 61.5484 22.2795 61.2625 22.2795Z" fill="#596C76"/>
<path d="M6.97266 24.7951V21.9203C6.97266 21.7693 7.0024 21.6198 7.06019 21.4803C7.11798 21.3408 7.20269 21.214 7.30947 21.1073C7.41626 21.0005 7.54303 20.9158 7.68254 20.858C7.82206 20.8002 7.97159 20.7705 8.1226 20.7705H61.8803C62.0313 20.7705 62.1808 20.8002 62.3203 20.858C62.4598 20.9158 62.5866 21.0005 62.6934 21.1073C62.8002 21.214 62.8849 21.3408 62.9427 21.4803C63.0005 21.6198 63.0302 21.7693 63.0302 21.9203V24.7951C63.0302 25.1001 62.9091 25.3926 62.6934 25.6083C62.4777 25.8239 62.1853 25.9451 61.8803 25.9451H8.1226C7.81761 25.9451 7.52512 25.8239 7.30947 25.6083C7.09381 25.3926 6.97266 25.1001 6.97266 24.7951Z" fill="#596C76"/>
<path d="M61.8805 20.77H56.9912C57.2962 20.77 57.5887 20.8912 57.8043 21.1069C58.02 21.3225 58.1412 21.615 58.1412 21.92V24.7946C58.1412 24.9457 58.1114 25.0952 58.0537 25.2347C57.9959 25.3742 57.9112 25.501 57.8044 25.6078C57.6976 25.7146 57.5708 25.7993 57.4313 25.8571C57.2918 25.9149 57.1422 25.9446 56.9912 25.9446H61.8805C62.0316 25.9446 62.1811 25.9149 62.3206 25.8571C62.4602 25.7993 62.5869 25.7146 62.6937 25.6078C62.8005 25.501 62.8852 25.3742 62.943 25.2347C63.0008 25.0952 63.0305 24.9457 63.0305 24.7946V21.92C63.0305 21.615 62.9093 21.3225 62.6937 21.1069C62.478 20.8912 62.1855 20.77 61.8805 20.77Z" fill="#465A61"/>
<path d="M56.9462 3.80953C56.3612 3.80953 55.8083 3.94571 55.3164 4.18743C56.5432 4.79008 57.3878 6.05159 57.3878 7.51078C57.3878 8.96998 56.5432 10.2314 55.3164 10.8341C55.8235 11.0833 56.3812 11.2126 56.9462 11.212C58.9903 11.212 60.6475 9.55487 60.6475 7.51078C60.6475 5.4667 58.9903 3.80953 56.9462 3.80953Z" fill="#EE6161"/>
<path d="M12.1282 3.80954V4.73307C12.8985 5.41106 13.3848 6.40391 13.3848 7.51079C13.3848 9.12625 12.3495 10.4992 10.9062 11.0044C11.299 11.142 11.7121 11.2122 12.1282 11.212C14.1723 11.212 15.8295 9.55487 15.8295 7.51079C15.8295 5.4667 14.1723 3.80954 12.1282 3.80954Z" fill="#9FACBA"/>
<path d="M24.3489 3.80954V4.73307C25.1192 5.41106 25.6055 6.40391 25.6055 7.51079C25.6055 9.12625 24.5702 10.4992 23.127 11.0044C23.5197 11.142 23.9328 11.2122 24.3489 11.212C26.393 11.212 28.0502 9.55487 28.0502 7.51079C28.0502 5.4667 26.393 3.80954 24.3489 3.80954Z" fill="#9FACBA"/>
<path d="M36.79 3.8159V4.94109C37.4328 5.60664 37.8292 6.51172 37.8292 7.51017C37.8292 9.12578 36.7937 10.4987 35.3506 11.0037C35.7433 11.1415 36.1564 11.2117 36.5726 11.2114C38.6167 11.2114 40.2737 9.55439 40.2737 7.51017C40.2737 5.5391 38.7327 3.92855 36.79 3.8159Z" fill="#9FACBA"/>
<path d="M12.1269 8.58875C11.8409 8.58875 11.5667 8.47517 11.3646 8.273C11.1624 8.07083 11.0488 7.79663 11.0488 7.51072V3.80947C11.0488 3.52356 11.1624 3.24936 11.3646 3.04719C11.5667 2.84502 11.8409 2.73144 12.1269 2.73144C12.4128 2.73144 12.687 2.84502 12.8891 3.04719C13.0913 3.24936 13.2049 3.52356 13.2049 3.80947V7.51072C13.2049 7.79663 13.0913 8.07083 12.8891 8.273C12.687 8.47517 12.4128 8.58875 12.1269 8.58875Z" fill="#E8EDF1"/>
<path d="M24.3505 8.58875C24.0646 8.58875 23.7904 8.47517 23.5882 8.273C23.386 8.07083 23.2725 7.79663 23.2725 7.51072V3.80947C23.2725 3.52356 23.386 3.24936 23.5882 3.04719C23.7904 2.84502 24.0646 2.73144 24.3505 2.73144C24.6364 2.73144 24.9106 2.84502 25.1128 3.04719C25.3149 3.24936 25.4285 3.52356 25.4285 3.80947V7.51072C25.4285 7.79663 25.3149 8.07083 25.1128 8.273C24.9106 8.47517 24.6364 8.58875 24.3505 8.58875Z" fill="#E8EDF1"/>
<path d="M36.5741 8.58875C36.2882 8.58875 36.014 8.47517 35.8118 8.273C35.6097 8.07083 35.4961 7.79663 35.4961 7.51072V3.80947C35.4961 3.52356 35.6097 3.24936 35.8118 3.04719C36.014 2.84502 36.2882 2.73144 36.5741 2.73144C36.86 2.73144 37.1342 2.84502 37.3364 3.04719C37.5386 3.24936 37.6521 3.52356 37.6521 3.80947V7.51072C37.6521 7.79663 37.5386 8.07083 37.3364 8.273C37.1342 8.47517 36.86 8.58875 36.5741 8.58875Z" fill="#E8EDF1"/>
</g>
</svg>
