<svg width="70" height="70" viewBox="0 0 70 70" fill="none" xmlns="http://www.w3.org/2000/svg">
<g clip-path="url(#clip0_37_2378)">
<path d="M35 70C54.33 70 70 54.33 70 35C70 15.67 54.33 0 35 0C15.67 0 0 15.67 0 35C0 54.33 15.67 70 35 70Z" fill="#EAB14D"/>
<path d="M35 0C34.3752 0 33.7544 0.0170898 33.1376 0.0493555C51.6018 1.0176 66.2754 16.2948 66.2754 35C66.2754 53.7052 51.6018 68.9824 33.1376 69.9506C33.7544 69.9829 34.3752 70 35 70C54.33 70 70 54.33 70 35C70 15.67 54.33 0 35 0Z" fill="#E49542"/>
<path d="M35 62.2737C50.0628 62.2737 62.2736 50.0629 62.2736 35.0001C62.2736 19.9373 50.0628 7.72644 35 7.72644C19.9372 7.72644 7.72638 19.9373 7.72638 35.0001C7.72638 50.0629 19.9372 62.2737 35 62.2737Z" fill="#F4FBFF"/>
<path d="M35 7.72644C34.2446 7.72644 33.4969 7.75857 32.7571 7.81873C46.7707 8.95951 57.788 20.6926 57.788 35.0001C57.788 49.3075 46.7707 61.0405 32.7571 62.1814C33.4969 62.2417 34.2446 62.2738 35 62.2738C50.0628 62.2738 62.2736 50.0629 62.2736 35.0002C62.2736 19.9375 50.0628 7.72644 35 7.72644Z" fill="#DAF1F4"/>
<path d="M35 16.1207C34.7198 16.1207 34.4512 16.0094 34.2531 15.8113C34.055 15.6132 33.9437 15.3445 33.9437 15.0644V13.514C33.9469 13.2359 34.0596 12.9703 34.2573 12.7748C34.4551 12.5793 34.722 12.4696 35.0001 12.4696C35.2782 12.4696 35.545 12.5793 35.7428 12.7748C35.9406 12.9703 36.0533 13.2359 36.0564 13.514V15.0644C36.0564 15.3446 35.9451 15.6132 35.747 15.8113C35.5488 16.0094 35.2802 16.1207 35 16.1207ZM49.0392 21.9836C48.8303 21.9836 48.626 21.9217 48.4523 21.8056C48.2786 21.6895 48.1432 21.5245 48.0632 21.3315C47.9833 21.1385 47.9624 20.9261 48.0032 20.7211C48.0439 20.5162 48.1446 20.328 48.2923 20.1803L49.3887 19.0841C49.5868 18.886 49.8555 18.7747 50.1356 18.7747C50.4158 18.7747 50.6845 18.886 50.8825 19.0841C51.0806 19.2822 51.1919 19.5509 51.1919 19.8311C51.1919 20.1112 51.0806 20.3799 50.8825 20.578L49.7861 21.6743C49.6881 21.7725 49.5717 21.8504 49.4435 21.9034C49.3153 21.9565 49.178 21.9838 49.0392 21.9836ZM56.3712 36.0565H54.8208C54.5406 36.0565 54.272 35.9452 54.0739 35.7471C53.8758 35.549 53.7645 35.2803 53.7645 35.0002C53.7645 34.72 53.8758 34.4514 54.0739 34.2533C54.272 34.0552 54.5406 33.9439 54.8208 33.9439H56.3712C56.6513 33.9439 56.92 34.0552 57.1181 34.2533C57.3162 34.4514 57.4275 34.72 57.4275 35.0002C57.4275 35.2803 57.3162 35.549 57.1181 35.7471C56.92 35.9452 56.6513 36.0565 56.3712 36.0565ZM50.0541 51.1921C49.9153 51.1922 49.7779 51.165 49.6497 51.1119C49.5215 51.0588 49.4051 50.9809 49.3071 50.8827L48.2109 49.7865C48.0128 49.5883 47.9015 49.3196 47.9015 49.0394C47.9015 48.7593 48.0128 48.4905 48.2109 48.2924C48.409 48.0944 48.6777 47.9831 48.9579 47.9831C49.238 47.9831 49.5067 48.0944 49.7049 48.2924L50.8011 49.3886C50.9487 49.5364 51.0493 49.7246 51.0899 49.9295C51.1306 50.1344 51.1097 50.3468 51.0297 50.5397C50.9498 50.7327 50.8145 50.8977 50.6408 51.0138C50.4672 51.1299 50.263 51.1919 50.0541 51.1921ZM34.8849 57.4278C34.6047 57.4278 34.3361 57.3165 34.138 57.1184C33.9399 56.9203 33.8286 56.6517 33.8286 56.3715V54.8211C33.8286 54.541 33.9399 54.2723 34.138 54.0742C34.3361 53.8761 34.6047 53.7648 34.8849 53.7648C35.165 53.7648 35.4337 53.8761 35.6318 54.0742C35.8299 54.2723 35.9412 54.541 35.9412 54.8211V56.3715C35.9412 56.6517 35.8299 56.9203 35.6318 57.1184C35.4337 57.3165 35.165 57.4278 34.8849 57.4278ZM19.7493 51.1106C19.6105 51.1107 19.4731 51.0835 19.3449 51.0304C19.2168 50.9772 19.1004 50.8993 19.0024 50.801C18.9043 50.703 18.8265 50.5865 18.7734 50.4583C18.7203 50.3302 18.693 50.1928 18.693 50.0541C18.693 49.9154 18.7203 49.778 18.7734 49.6498C18.8265 49.5217 18.9043 49.4052 19.0024 49.3071L20.0987 48.2109C20.2976 48.0163 20.5652 47.908 20.8434 47.9095C21.1216 47.9111 21.388 48.0223 21.5847 48.219C21.7814 48.4158 21.8926 48.6822 21.894 48.9604C21.8955 49.2386 21.7872 49.5062 21.5925 49.705L20.4962 50.8012C20.3982 50.8994 20.2818 50.9773 20.1536 51.0304C20.0254 51.0835 19.888 51.1108 19.7493 51.1106ZM15.0641 35.9415H13.5137C13.2335 35.9415 12.9649 35.8302 12.7668 35.6321C12.5687 35.434 12.4574 35.1653 12.4574 34.8852C12.4574 34.6051 12.5687 34.3364 12.7668 34.1383C12.9649 33.9402 13.2335 33.8289 13.5137 33.8289H15.0641C15.3442 33.8289 15.6129 33.9402 15.811 34.1383C16.0091 34.3364 16.1204 34.6051 16.1204 34.8852C16.1204 35.1653 16.0091 35.434 15.811 35.6321C15.6129 35.8302 15.3442 35.9415 15.0641 35.9415ZM20.9271 21.9023C20.7884 21.9024 20.651 21.8752 20.5228 21.8221C20.3946 21.769 20.2782 21.6911 20.1802 21.5929L19.0839 20.4966C18.8893 20.2978 18.7809 20.0303 18.7824 19.7521C18.7838 19.4738 18.895 19.2074 19.0917 19.0107C19.2884 18.8139 19.5548 18.7027 19.833 18.7012C20.1112 18.6997 20.3788 18.808 20.5777 19.0026L21.674 20.0989C21.8217 20.2467 21.9223 20.4349 21.963 20.6398C22.0038 20.8447 21.9829 21.0571 21.9029 21.2501C21.823 21.4431 21.6876 21.6081 21.5139 21.7241C21.3402 21.8402 21.136 21.9022 20.9271 21.9023ZM35 36.0565H26.0285C25.7504 36.0533 25.4848 35.9406 25.2893 35.7429C25.0938 35.5451 24.9841 35.2782 24.9841 35.0001C24.9841 34.722 25.0938 34.4551 25.2893 34.2574C25.4848 34.0596 25.7504 33.9469 26.0285 33.9438H33.9436V20.5047C33.9436 20.2246 34.0549 19.9559 34.2529 19.7578C34.451 19.5597 34.7197 19.4484 34.9999 19.4484C35.28 19.4484 35.5487 19.5597 35.7468 19.7578C35.9449 19.9559 36.0561 20.2246 36.0561 20.5047V35C36.0562 35.1388 36.0289 35.2761 35.9758 35.4043C35.9228 35.5325 35.845 35.6489 35.7469 35.747C35.6488 35.8451 35.5324 35.923 35.4042 35.9761C35.2761 36.0291 35.1387 36.0565 35 36.0565Z" fill="#2B4D66"/>
<path d="M45.8371 41.6296C45.6694 41.6295 45.504 41.5894 45.3549 41.5124L34.517 35.9392C33.9981 35.6725 33.7939 35.0356 34.0606 34.5168C34.3273 33.9979 34.9642 33.7935 35.4832 34.0604L46.3211 39.6335C46.4445 39.6969 46.5542 39.784 46.6439 39.8898C46.7336 39.9957 46.8015 40.1181 46.8439 40.2502C46.8863 40.3823 46.9022 40.5214 46.8908 40.6596C46.8794 40.7979 46.8409 40.9325 46.7775 41.0559C46.6887 41.2288 46.5539 41.3738 46.388 41.475C46.2221 41.5762 46.0315 41.6297 45.8371 41.6296Z" fill="#DA4A54"/>
<path d="M35 37.8194C36.5571 37.8194 37.8194 36.5571 37.8194 35C37.8194 33.4428 36.5571 32.1805 35 32.1805C33.4429 32.1805 32.1806 33.4428 32.1806 35C32.1806 36.5571 33.4429 37.8194 35 37.8194Z" fill="#365E7D"/>
</g>
<defs>
<clipPath id="clip0_37_2378">
<rect width="70" height="70" fill="white"/>
</clipPath>
</defs>
</svg>
