<svg width="62" height="70" viewBox="0 0 62 70" fill="none" xmlns="http://www.w3.org/2000/svg">
<path d="M59.0384 47.9458H2.96158C1.4131 47.9458 0.157753 46.6904 0.157753 45.1419V37.2911C0.157753 35.7427 1.4131 34.4873 2.96158 34.4873H59.0386C60.587 34.4873 61.8424 35.7427 61.8424 37.2911V45.1419C61.8423 46.6904 60.587 47.9458 59.0384 47.9458Z" fill="#528FD8"/>
<path d="M39.4115 13.4585V1.64062C39.4115 0.73459 38.6769 0 37.7709 0H24.229C23.323 0 22.5884 0.73459 22.5884 1.64062V13.4585L5.28279 29.1666C4.99328 29.4294 4.76194 29.7499 4.60362 30.1075C4.4453 30.465 4.36351 30.8517 4.36349 31.2427V34.4872H57.6365V31.2427C57.6365 30.8517 57.5547 30.4649 57.3964 30.1074C57.238 29.7499 57.0066 29.4294 56.7171 29.1666L39.4115 13.4585Z" fill="#9C9C9C"/>
<path d="M56.7172 29.1666L39.4115 13.4585V1.64062C39.4115 0.73459 38.6769 0 37.7709 0H34.9253V13.4585C34.9253 14.0841 35.0562 14.7028 35.3095 15.2749C35.5628 15.8469 35.933 16.3597 36.3963 16.7802L42.3597 22.1931C45.3972 24.9502 43.4467 30.0012 39.3445 30.0012H4.65744C4.46822 30.3837 4.36349 30.8068 4.36349 31.2428V34.4873H57.6365V31.2428C57.6365 30.8518 57.5547 30.4651 57.3964 30.1075C57.2381 29.75 57.0067 29.4295 56.7172 29.1666Z" fill="#838383"/>
<path d="M59.0384 34.4873H54.5523C56.1007 34.4873 57.3561 35.7427 57.3561 37.2911V45.1419C57.3561 46.6904 56.1007 47.9458 54.5523 47.9458H59.0384C60.5869 47.9458 61.8422 46.6904 61.8422 45.1419V37.2911C61.8422 35.7427 60.587 34.4873 59.0384 34.4873Z" fill="#0573CE"/>
<path d="M29.8785 43.4597H5.76541C5.46797 43.4597 5.18271 43.3415 4.97239 43.1312C4.76206 42.9208 4.64391 42.6356 4.64391 42.3381V40.0951C4.64391 39.7977 4.76206 39.5124 4.97239 39.3021C5.18271 39.0918 5.46797 38.9736 5.76541 38.9736H29.8785C30.1759 38.9736 30.4612 39.0918 30.6715 39.3021C30.8818 39.5124 31 39.7977 31 40.0951V42.3381C31 42.6356 30.8818 42.9208 30.6715 43.1311C30.4612 43.3414 30.1759 43.4596 29.8785 43.4597Z" fill="#BBEC6C"/>
<path d="M29.8785 38.9735H25.3923C25.6898 38.9735 25.975 39.0917 26.1853 39.302C26.3956 39.5123 26.5138 39.7976 26.5138 40.095V42.338C26.5138 42.6355 26.3957 42.9207 26.1854 43.131C25.975 43.3414 25.6898 43.4595 25.3923 43.4595H29.8785C30.1759 43.4595 30.4612 43.3413 30.6715 43.131C30.8818 42.9207 31 42.6355 31 42.338V40.095C31 39.7976 30.8818 39.5123 30.6715 39.302C30.4612 39.0917 30.1759 38.9735 29.8785 38.9735Z" fill="#A2E62E"/>
<path d="M55.1131 43.4598C56.3519 43.4598 57.3562 42.4555 57.3562 41.2167C57.3562 39.9778 56.3519 38.9735 55.1131 38.9735C53.8742 38.9735 52.8699 39.9778 52.8699 41.2167C52.8699 42.4555 53.8742 43.4598 55.1131 43.4598Z" fill="#FD8087"/>
<path d="M46.1408 43.4598C47.3796 43.4598 48.3839 42.4555 48.3839 41.2167C48.3839 39.9778 47.3796 38.9735 46.1408 38.9735C44.9019 38.9735 43.8976 39.9778 43.8976 41.2167C43.8976 42.4555 44.9019 43.4598 46.1408 43.4598Z" fill="#FD8087"/>
<path d="M43.6172 70C43.4826 70 43.3492 69.9735 43.2248 69.9219C43.1004 69.8704 42.9873 69.7949 42.8921 69.6997C42.7969 69.6044 42.7214 69.4914 42.6699 69.367C42.6183 69.2426 42.5918 69.1092 42.5918 68.9746C42.5918 67.7524 43.2981 67.1049 43.7656 66.6765C44.1779 66.2984 44.2743 66.1806 44.2743 65.8899C44.2743 65.5994 44.1779 65.4815 43.7656 65.1035C43.2981 64.675 42.5918 64.0277 42.5918 62.8054C42.5918 61.5831 43.2981 60.9358 43.7656 60.5073C44.1779 60.1294 44.2743 60.0116 44.2743 59.7212C44.2743 59.4308 44.1779 59.3131 43.7656 58.9352C43.2983 58.5067 42.5918 57.8593 42.5918 56.6372C42.5918 55.4151 43.2981 54.7677 43.7656 54.3392C44.1779 53.9613 44.2743 53.8435 44.2743 53.5531C44.2743 52.9867 44.7333 52.5277 45.2997 52.5277C45.8661 52.5277 46.3251 52.9867 46.3251 53.5531C46.3251 54.7752 45.6187 55.4227 45.1513 55.8512C44.739 56.2291 44.6426 56.3468 44.6426 56.6372C44.6426 56.9276 44.739 57.0453 45.1513 57.4232C45.6187 57.8517 46.3251 58.499 46.3251 59.7212C46.3251 60.9433 45.6188 61.5908 45.1513 62.0193C44.739 62.3972 44.6426 62.515 44.6426 62.8054C44.6426 63.0959 44.739 63.2138 45.1513 63.5918C45.6188 64.0203 46.3251 64.6676 46.3251 65.8899C46.3251 67.1122 45.6188 67.7597 45.1513 68.1882C44.739 68.5662 44.6426 68.684 44.6426 68.9746C44.6426 69.541 44.1837 70 43.6172 70ZM34.6449 70C34.5103 70 34.3769 69.9735 34.2525 69.9219C34.1281 69.8704 34.015 69.7949 33.9198 69.6997C33.8246 69.6044 33.7491 69.4914 33.6975 69.367C33.646 69.2426 33.6195 69.1092 33.6195 68.9746C33.6195 67.7524 34.3258 67.1049 34.7933 66.6765C35.2056 66.2984 35.302 66.1806 35.302 65.8899C35.302 65.5994 35.2056 65.4815 34.7933 65.1035C34.3258 64.675 33.6195 64.0277 33.6195 62.8054C33.6195 61.5831 34.3258 60.9358 34.7933 60.5073C35.2056 60.1294 35.302 60.0116 35.302 59.7212C35.302 59.4308 35.2056 59.3131 34.7933 58.9352C34.326 58.5067 33.6195 57.8593 33.6195 56.6372C33.6195 55.4151 34.3258 54.7677 34.7933 54.3392C35.2056 53.9613 35.302 53.8435 35.302 53.5531C35.302 52.9867 35.761 52.5277 36.3274 52.5277C36.8938 52.5277 37.3528 52.9867 37.3528 53.5531C37.3528 54.7752 36.6464 55.4227 36.179 55.8512C35.7667 56.2291 35.6703 56.3468 35.6703 56.6372C35.6703 56.9276 35.7667 57.0453 36.179 57.4232C36.6464 57.8517 37.3528 58.499 37.3528 59.7212C37.3528 60.9433 36.6465 61.5908 36.179 62.0193C35.7667 62.3972 35.6703 62.515 35.6703 62.8054C35.6703 63.0959 35.7667 63.2138 36.179 63.5918C36.6465 64.0203 37.3528 64.6676 37.3528 65.8899C37.3528 67.1122 36.6465 67.7597 36.179 68.1882C35.7667 68.5662 35.6703 68.684 35.6703 68.9746C35.6703 69.541 35.2113 70 34.6449 70ZM25.6726 70C25.538 70 25.4046 69.9735 25.2802 69.9219C25.1558 69.8704 25.0427 69.7949 24.9475 69.6997C24.8523 69.6044 24.7768 69.4914 24.7252 69.367C24.6737 69.2426 24.6472 69.1092 24.6472 68.9746C24.6472 67.7524 25.3535 67.1049 25.821 66.6765C26.2333 66.2984 26.3297 66.1806 26.3297 65.8899C26.3297 65.5994 26.2333 65.4815 25.821 65.1035C25.3535 64.675 24.6472 64.0277 24.6472 62.8054C24.6472 61.5831 25.3535 60.9358 25.821 60.5073C26.2333 60.1294 26.3297 60.0116 26.3297 59.7212C26.3297 59.4308 26.2333 59.3131 25.821 58.9352C25.3537 58.5067 24.6472 57.8593 24.6472 56.6372C24.6472 55.4151 25.3535 54.7677 25.821 54.3392C26.2333 53.9613 26.3297 53.8435 26.3297 53.5531C26.3297 52.9867 26.7887 52.5277 27.3551 52.5277C27.9215 52.5277 28.3805 52.9867 28.3805 53.5531C28.3805 54.7752 27.674 55.4227 27.2067 55.8512C26.7944 56.2291 26.698 56.3468 26.698 56.6372C26.698 56.9276 26.7944 57.0453 27.2067 57.4232C27.674 57.8517 28.3805 58.499 28.3805 59.7212C28.3805 60.9433 27.6742 61.5908 27.2067 62.0193C26.7944 62.3972 26.698 62.515 26.698 62.8054C26.698 63.0959 26.7944 63.2138 27.2067 63.5918C27.6742 64.0203 28.3805 64.6676 28.3805 65.8899C28.3805 67.1122 27.6742 67.7597 27.2067 68.1882C26.7944 68.5662 26.698 68.684 26.698 68.9746C26.698 69.541 26.239 70 25.6726 70ZM16.7003 70C16.5657 70 16.4323 69.9735 16.3079 69.9219C16.1835 69.8704 16.0704 69.7949 15.9752 69.6997C15.88 69.6044 15.8045 69.4914 15.7529 69.367C15.7014 69.2426 15.6749 69.1092 15.6749 68.9746C15.6749 67.7524 16.3812 67.1049 16.8487 66.6765C17.261 66.2984 17.3574 66.1806 17.3574 65.8899C17.3574 65.5994 17.261 65.4815 16.8487 65.1035C16.3812 64.675 15.6749 64.0277 15.6749 62.8054C15.6749 61.5831 16.3812 60.9358 16.8487 60.5073C17.261 60.1294 17.3574 60.0116 17.3574 59.7212C17.3574 59.4308 17.261 59.3131 16.8487 58.9352C16.3813 58.5067 15.6749 57.8593 15.6749 56.6372C15.6749 55.4151 16.3812 54.7677 16.8487 54.3392C17.261 53.9613 17.3574 53.8435 17.3574 53.5531C17.3574 52.9867 17.8163 52.5277 18.3828 52.5277C18.9492 52.5277 19.4082 52.9867 19.4082 53.5531C19.4082 54.7752 18.7017 55.4227 18.2344 55.8512C17.8221 56.2291 17.7257 56.3468 17.7257 56.6372C17.7257 56.9276 17.8221 57.0453 18.2344 57.4232C18.7017 57.8517 19.4082 58.499 19.4082 59.7212C19.4082 60.9433 18.7019 61.5908 18.2344 62.0193C17.8221 62.3972 17.7257 62.515 17.7257 62.8054C17.7257 63.0959 17.8221 63.2138 18.2344 63.5918C18.7019 64.0203 19.4082 64.6676 19.4082 65.8899C19.4082 67.1122 18.7019 67.7597 18.2344 68.1882C17.8221 68.5662 17.7257 68.684 17.7257 68.9746C17.7257 69.541 17.2667 70 16.7003 70Z" fill="#CECECE"/>
</svg>
