<svg width="70" height="70" viewBox="0 0 70 70" fill="none" xmlns="http://www.w3.org/2000/svg">
<path d="M50.6893 67.5C61.3541 67.5 69.9996 58.5457 69.9996 47.5C69.9996 36.4543 61.3541 27.5 50.6893 27.5C40.0244 27.5 31.3789 36.4543 31.3789 47.5C31.3789 58.5457 40.0244 67.5 50.6893 67.5Z" fill="#9FC83E"/>
<path d="M50.6901 60C57.3556 60 62.759 54.4036 62.759 47.5C62.759 40.5964 57.3556 35 50.6901 35C44.0246 35 38.6211 40.5964 38.6211 47.5C38.6211 54.4036 44.0246 60 50.6901 60Z" fill="#75AE43"/>
<path d="M50.69 35C48.9612 34.9986 47.2522 35.3829 45.6796 36.1267C44.1069 36.8705 42.7074 37.9565 41.5762 39.3106C43.8815 37.2377 46.8599 36.147 49.911 36.2583C52.962 36.3697 55.8589 37.6748 58.0176 39.9107C60.1764 42.1466 61.4365 45.1469 61.5441 48.3069C61.6516 51.4669 60.5985 54.5517 58.597 56.9394C60.4556 55.2705 61.7773 53.0531 62.385 50.5844C62.9927 48.1157 62.8573 45.5136 61.9971 43.1268C61.1369 40.74 59.5929 38.6824 57.572 37.23C55.5511 35.7775 53.1499 34.9994 50.69 35Z" fill="#C6DE3A"/>
<path d="M0 62.5H41.0345C41.0345 64.4891 40.2716 66.3968 38.9135 67.8033C37.5555 69.2098 35.7136 70 33.7931 70H7.24138C5.32085 70 3.47897 69.2098 2.12095 67.8033C0.762929 66.3968 0 64.4891 0 62.5Z" fill="#66C3EA"/>
<path d="M13.2759 68.75C11.5647 68.7498 9.90887 68.1221 8.602 66.978C7.29513 65.8339 6.42166 64.2475 6.13647 62.5H0C0 64.4891 0.762929 66.3968 2.12095 67.8033C3.47897 69.2098 5.32085 70 7.24138 70H33.7931C35.2171 70.002 36.6098 69.5671 37.7953 68.75H13.2759ZM0 55H41.0345C41.0345 56.9891 40.2716 58.8968 38.9135 60.3033C37.5555 61.7098 35.7136 62.5 33.7931 62.5H7.24138C5.32085 62.5 3.47897 61.7098 2.12095 60.3033C0.762929 58.8968 0 56.9891 0 55Z" fill="#3C9DDC"/>
<path d="M13.2759 61.25C11.5647 61.2498 9.90887 60.6221 8.602 59.478C7.29513 58.3339 6.42166 56.7475 6.13647 55H0C0 56.9891 0.762929 58.8968 2.12095 60.3033C3.47897 61.7098 5.32085 62.5 7.24138 62.5H33.7931C35.2171 62.502 36.6098 62.0671 37.7953 61.25H13.2759Z" fill="#306BB4"/>
<path d="M0 47.5H41.0345C41.0345 49.4891 40.2716 51.3968 38.9135 52.8033C37.5555 54.2098 35.7136 55 33.7931 55H7.24138C5.32085 55 3.47897 54.2098 2.12095 52.8033C0.762929 51.3968 0 49.4891 0 47.5Z" fill="#9FD9F1"/>
<path d="M13.2759 53.75C11.5647 53.7498 9.90887 53.1221 8.602 51.978C7.29513 50.8339 6.42166 49.2475 6.13647 47.5H0C0 49.4891 0.762929 51.3968 2.12095 52.8033C3.47897 54.2098 5.32085 55 7.24138 55H33.7931C35.2171 55.002 36.6098 54.5671 37.7953 53.75H13.2759ZM0 40H41.0345C41.0345 41.9891 40.2716 43.8968 38.9135 45.3033C37.5555 46.7098 35.7136 47.5 33.7931 47.5H7.24138C5.32085 47.5 3.47897 46.7098 2.12095 45.3033C0.762929 43.8968 0 41.9891 0 40Z" fill="#66C3EA"/>
<path d="M37.4138 46.25H10.8621C9.1509 46.2498 7.49508 45.6221 6.18821 44.478C4.88134 43.3339 4.00787 41.7475 3.72267 40H0C0 41.9891 0.762929 43.8968 2.12095 45.3033C3.47897 46.7098 5.32085 47.5 7.24138 47.5H33.7931C35.2244 47.5022 36.6238 47.0629 37.8131 46.2381C37.6801 46.2459 37.547 46.2498 37.4138 46.25Z" fill="#3C9DDC"/>
<path d="M28.9655 39.9998C28.501 39.9997 28.0414 39.9011 27.6151 39.71C27.1887 39.519 26.8047 39.2395 26.4867 38.8888C26.1687 38.5381 25.9234 38.1237 25.7659 37.6711C25.6084 37.2185 25.5421 36.7373 25.5711 36.2571L26.6235 18.8379H31.3023L32.3599 36.2571C32.3888 36.7373 32.3225 37.2185 32.1651 37.6711C32.0076 38.1237 31.7623 38.5381 31.4442 38.8888C31.1262 39.2395 30.7422 39.519 30.3159 39.71C29.8896 39.9011 29.43 39.9997 28.9655 39.9998Z" fill="#306BB4"/>
<path d="M30.474 38.4373C30.0095 38.4372 29.5499 38.3386 29.1236 38.1475C28.6973 37.9565 28.3133 37.677 27.9952 37.3263C27.6772 36.9756 27.4319 36.5612 27.2744 36.1086C27.1169 35.656 27.0506 35.1748 27.0796 34.6946L28.0376 18.8379H26.6234L25.571 36.2571C25.5224 37.0668 25.7452 37.8691 26.2017 38.5284C26.6581 39.1877 27.3203 39.6636 28.0763 39.8758C28.8323 40.088 29.6359 40.0234 30.3513 39.693C31.0667 39.3626 31.65 38.7866 32.0028 38.0623C31.5287 38.3097 31.005 38.4382 30.474 38.4373Z" fill="#0A4EA9"/>
<path d="M19.3102 10C19.3102 5.85781 16.6084 2.5 13.2757 2.5C9.943 2.5 7.24121 5.85781 7.24121 10C7.24121 13.0575 8.71408 15.6859 10.8255 16.8537L9.8813 36.25C9.85229 36.7302 9.91857 37.2115 10.0761 37.6642C10.2335 38.1169 10.4789 38.5314 10.797 38.8821C11.1151 39.2328 11.4991 39.5123 11.9255 39.7033C12.3519 39.8944 12.8116 39.9929 13.2761 39.9929C13.7407 39.9929 14.2004 39.8944 14.6268 39.7033C15.0532 39.5123 15.4372 39.2328 15.7553 38.8821C16.0734 38.5314 16.3188 38.1169 16.4762 37.6642C16.6337 37.2115 16.7 36.7302 16.671 36.25L15.7263 16.8537C17.8373 15.6859 19.3102 13.0575 19.3102 10Z" fill="#66C3EA"/>
<path d="M15.6895 38.4302C15.225 38.4301 14.7654 38.3315 14.3391 38.1404C13.9128 37.9493 13.5288 37.6699 13.2107 37.3192C12.8927 36.9685 12.6474 36.5541 12.4899 36.1015C12.3324 35.6489 12.2661 35.1677 12.2951 34.6875L13.2398 15.2912C11.1279 14.1234 9.655 11.495 9.655 8.4375C9.655 6.15406 10.4772 4.11031 11.7724 2.73438C9.16697 3.565 7.24121 6.50297 7.24121 10C7.24121 13.0575 8.71408 15.6859 10.8255 16.8537L9.8813 36.25C9.83441 37.0257 10.0365 37.7956 10.4562 38.4399C10.8758 39.0842 11.4894 39.5667 12.2014 39.8122C12.9133 40.0577 13.6837 40.0525 14.3925 39.7972C15.1013 39.542 15.7087 39.0512 16.12 38.4012C15.9772 38.4202 15.8334 38.4298 15.6895 38.4302ZM31.3791 3.75V13.75H30.1722V3.75H27.7585V13.75H26.5516V3.75H24.1378V15C24.1378 16.3261 24.6464 17.5978 25.5517 18.5355C26.4571 19.4732 27.685 20 28.9653 20C30.2457 20 31.4736 19.4732 32.379 18.5355C33.2843 17.5978 33.7929 16.3261 33.7929 15V3.75H31.3791Z" fill="#3C9DDC"/>
<path d="M70 10L62.7586 7.5L60.3448 0L57.931 7.5L50.6896 10L57.931 12.5L60.3448 20L62.7586 12.5L70 10Z" fill="#FED54D"/>
<path d="M70 10H60.3448V0L57.931 7.5L50.6896 10L57.931 12.5L60.3448 20L62.7586 12.5L70 10Z" fill="#EFAD15"/>
<path d="M55.5176 22.5L49.4832 20L47.0694 13.75L44.6556 20L38.6211 22.5L44.6556 25L47.0694 31.25L49.4832 25L55.5176 22.5Z" fill="#FED54D"/>
<path d="M55.5176 22.5H47.0694V13.75L44.6556 20L38.6211 22.5L44.6556 25L47.0694 31.25L49.4832 25L55.5176 22.5Z" fill="#EFAD15"/>
</svg>
