<svg width="70" height="50" viewBox="0 0 70 50" fill="none" xmlns="http://www.w3.org/2000/svg">
<path d="M61.5024 8.94623L58.5153 5.21218L62.067 0.773061C62.8917 -0.257717 64.2285 -0.257716 65.0531 0.773236C65.8782 1.80453 65.8782 3.47721 65.053 4.5085L61.5024 8.94623ZM20.0669 23.7048L17.0805 27.4398L13.5304 22.9988C12.706 21.9675 12.706 20.2961 13.5305 19.2649C14.3553 18.2333 15.693 18.2333 16.5178 19.2651L20.0669 23.7048ZM50.0812 33.7389H38.4707V28.6685C38.4707 28.2974 38.5886 27.9416 38.7984 27.6792C39.0082 27.4168 39.2928 27.2694 39.5896 27.2694H48.9623C49.2591 27.2694 49.5437 27.4168 49.7535 27.6792C49.9633 27.9416 50.0812 28.2974 50.0812 28.6685V33.7389Z" fill="#B5ADB6"/>
<path d="M69.9512 35.1432L63.11 5.78359C62.6651 3.87439 61.2134 2.61646 59.6267 2.76118C51.9685 3.46017 41.821 5.72389 31.1125 12.2174C27.319 14.5191 23.6845 17.2097 20.2463 20.2617C14.1522 26.0144 9.05564 33.2543 5.26531 41.5426L4.19627 43.8804L2.78125 46.5221L62.3678 43.8804L63.1819 41.7027C63.6566 40.4329 64.4112 39.3588 65.3569 38.6063C66.3027 37.8538 67.4005 37.4542 68.5215 37.4543C69.4881 37.4543 70.1944 36.3128 69.9512 35.1432ZM58.1018 31.5782L37.2211 33.2944C34.294 33.5349 31.8139 30.6323 31.8139 26.9656V26.9654C31.8139 24.6605 32.8125 22.5356 34.4257 21.419C37.0276 19.6178 39.714 18.0144 42.4702 16.6177C46.4388 14.6072 50.5393 13.0311 54.7258 11.9072C55.9143 11.588 57.0908 12.5031 57.378 13.9797L60.1298 28.1256C60.4582 29.8141 59.4888 31.4642 58.1018 31.5782Z" fill="#FEE97D"/>
<path d="M69.9514 35.1432L63.1101 5.78353C62.6665 3.87937 61.2206 2.61588 59.6388 2.76009C59.3602 2.78563 59.0818 2.81293 58.8035 2.84199C58.8329 2.94021 58.8611 3.03965 58.8848 3.14186L65.726 32.5015C65.9689 33.6695 65.2647 34.8097 64.2998 34.8126C62.0566 34.8194 59.987 36.3043 59.0372 38.8453C58.7698 39.5606 58.3448 40.1657 57.8121 40.5896C57.2794 41.0135 56.6611 41.2387 56.0296 41.2387H5.40839C5.3612 41.3403 5.31208 41.4405 5.26531 41.5425L4.19627 43.8803L2.78125 46.522L62.3678 43.8803L63.2625 41.487C64.2475 39.0353 66.282 37.461 68.5251 37.4543C69.4899 37.4513 70.1941 36.3112 69.9514 35.1432Z" fill="#FEDF30"/>
<path d="M62.7401 50H0C0 46.6201 2.19123 43.8802 4.89428 43.8802H62.7401C64.0917 43.8802 65.1872 45.2503 65.1872 46.9401C65.1872 48.63 64.0917 50 62.7401 50Z" fill="#B5ADB6"/>
<path d="M62.739 43.8802H58.5137C59.8653 43.8802 60.9608 45.2501 60.9608 46.9401C60.9608 48.6302 59.8653 50 58.5137 50H62.739C64.0906 50 65.1862 48.6302 65.1862 46.9401C65.1862 45.2501 64.0906 43.8802 62.739 43.8802Z" fill="#A79BA7"/>
<path d="M36.205 33.2504L36.2044 33.2502C33.7427 32.8351 31.8152 30.1978 31.8152 26.9657V26.9656C31.8152 24.6606 32.8139 22.5358 34.4271 21.4192C40.7833 17.0187 47.6234 13.8137 54.7271 11.9074C55.2795 11.7584 55.8566 11.8758 56.3427 12.2362L56.3445 12.2357C54.5785 9.33979 53.1147 9.01494 52.4425 8.99463C52.1016 8.9844 51.5686 9.08105 50.5018 9.26569C47.5989 9.76824 46.1031 9.99504 38.2462 13.9762C35.49 15.373 32.8036 16.9763 30.2017 18.7775C28.5885 19.8942 27.5898 22.0189 27.5898 24.3239C27.7432 25.4489 28.1168 27.1785 29.1188 28.8609C31.5454 32.9356 35.5642 33.2181 36.205 33.2504Z" fill="#FEDF30"/>
</svg>
