<svg width="70" height="70" viewBox="0 0 70 70" fill="none" xmlns="http://www.w3.org/2000/svg">
<g clip-path="url(#clip0_37_2477)">
<path d="M6.01219 55.1245V58.1787C6.01219 59.1874 6.82977 60.0048 7.83834 60.0048H14.6857C15.6942 60.0048 16.5119 59.1875 16.5119 58.1787V55.1245H6.01219ZM53.488 55.1245V58.1787C53.488 59.1874 54.3055 60.0048 55.3141 60.0048H62.1617C63.1701 60.0048 63.9878 59.1875 63.9878 58.1787V55.1245H53.488Z" fill="#636D77"/>
<path opacity="0.15" d="M8.44701 58.1788V55.1246H6.01219V58.1788C6.01219 59.1875 6.82977 60.0049 7.83834 60.0049H10.273C9.26459 60.0048 8.44701 59.1875 8.44701 58.1788ZM55.9228 58.1788V55.1246H53.488V58.1788C53.488 59.1875 54.3055 60.0049 55.3141 60.0049H57.7489C56.7404 60.0048 55.9228 59.1875 55.9228 58.1788Z" fill="#020202"/>
<path d="M64.7556 9.99524H5.24425C2.34787 9.99524 0 12.343 0 15.2393V50.0324C0 52.9284 2.34787 55.2768 5.24425 55.2768H64.7558C67.6521 55.2768 70.0001 52.9285 70.0001 50.0324V15.2393C69.9999 12.343 67.652 9.99524 64.7556 9.99524Z" fill="#879199"/>
<path opacity="0.15" d="M2.43482 50.0323V15.2393C2.43482 12.343 4.78269 9.99524 7.67907 9.99524H5.24425C2.34787 9.99524 0 12.343 0 15.2393V50.0324C0 52.9284 2.34787 55.2768 5.24425 55.2768H7.67907C4.78269 55.2767 2.43482 52.9284 2.43482 50.0323Z" fill="#020202"/>
<path d="M61.5619 22.4378C63.4788 22.4378 65.0328 20.8839 65.0328 18.967C65.0328 17.0501 63.4788 15.4961 61.5619 15.4961C59.645 15.4961 58.091 17.0501 58.091 18.967C58.091 20.8839 59.645 22.4378 61.5619 22.4378Z" fill="#F4B042"/>
<path d="M61.5619 33.5693C63.4788 33.5693 65.0328 32.0153 65.0328 30.0984C65.0328 28.1815 63.4788 26.6276 61.5619 26.6276C59.645 26.6276 58.091 28.1815 58.091 30.0984C58.091 32.0153 59.645 33.5693 61.5619 33.5693Z" fill="#49D0E2"/>
<path d="M51.3575 15.4963H7.53401C6.52558 15.4963 5.70786 16.3139 5.70786 17.3225V47.9075C5.70786 48.9159 6.52544 49.7337 7.53401 49.7337H51.3576C52.3661 49.7337 53.1838 48.9161 53.1838 47.9075V17.3223C53.1836 16.3139 52.3661 15.4963 51.3575 15.4963Z" fill="#49D0E2"/>
<path opacity="0.15" d="M60.5262 18.9672C60.5262 17.4786 61.4634 16.2097 62.7798 15.7165C62.3905 15.5707 61.9781 15.4961 61.5624 15.4965C59.6456 15.4965 58.0915 17.0503 58.0915 18.9674C58.0915 20.8842 59.6458 22.4382 61.5624 22.4382C61.9909 22.4382 62.4011 22.36 62.7798 22.2183C61.4636 21.7247 60.5262 20.4555 60.5262 18.9672ZM60.5262 30.0987C60.5262 28.6101 61.4634 27.3412 62.7798 26.8479C62.3905 26.7021 61.9781 26.6276 61.5624 26.628C59.6456 26.628 58.0915 28.1818 58.0915 30.0988C58.0915 32.0156 59.6458 33.5697 61.5624 33.5697C61.9909 33.5697 62.4011 33.4915 62.7798 33.3497C61.4636 32.8563 60.5262 31.587 60.5262 30.0987ZM8.14268 47.9077V17.3224C8.14268 16.3139 8.96026 15.4962 9.96883 15.4962H7.53401C6.52558 15.4962 5.70786 16.3138 5.70786 17.3224V47.9074C5.70786 48.9158 6.52544 49.7335 7.53401 49.7335H9.96883C8.96026 49.7337 8.14268 48.916 8.14268 47.9077Z" fill="#020202"/>
<g opacity="0.55">
<path d="M22.3192 33.0346C22.0935 33.0345 21.8728 32.9676 21.6852 32.8421C21.4976 32.7167 21.3513 32.5385 21.2649 32.33C21.1786 32.1215 21.156 31.892 21.2 31.6707C21.244 31.4493 21.3527 31.246 21.5122 31.0863L27.3965 25.2021C27.6105 24.9881 27.9008 24.8678 28.2035 24.8678C28.5062 24.8678 28.7965 24.9881 29.0106 25.2021C29.2246 25.4162 29.3449 25.7065 29.3449 26.0092C29.3449 26.3119 29.2246 26.6022 29.0106 26.8162L23.1263 32.7004C23.0204 32.8065 22.8946 32.8906 22.7561 32.948C22.6175 33.0053 22.4691 33.0347 22.3192 33.0346ZM24.6196 38.4438C24.3939 38.4438 24.1733 38.3768 23.9856 38.2514C23.798 38.126 23.6517 37.9478 23.5654 37.7392C23.479 37.5307 23.4564 37.3013 23.5004 37.0799C23.5444 36.8586 23.6531 36.6552 23.8127 36.4956L36.0373 24.2712C36.2514 24.0572 36.5417 23.937 36.8444 23.937C37.1471 23.937 37.4374 24.0572 37.6514 24.2712C37.8654 24.4853 37.9856 24.7756 37.9856 25.0783C37.9855 25.381 37.8653 25.6712 37.6513 25.8853L25.4266 38.1097C25.3207 38.2158 25.1949 38.3 25.0564 38.3573C24.9179 38.4146 24.7695 38.4441 24.6196 38.4438ZM21.6874 41.3763C21.4617 41.3762 21.2411 41.3092 21.0535 41.1837C20.8659 41.0583 20.7196 40.88 20.6333 40.6715C20.5469 40.463 20.5243 40.2335 20.5683 40.0122C20.6123 39.7908 20.7209 39.5875 20.8805 39.4278L21.2867 39.0218C21.5013 38.8105 21.7907 38.6926 22.0919 38.6939C22.3931 38.6951 22.6815 38.8153 22.8945 39.0283C23.1074 39.2413 23.2275 39.5298 23.2286 39.831C23.2297 40.1322 23.1117 40.4216 22.9003 40.6361L22.4942 41.0422C22.3883 41.1483 22.2626 41.2324 22.1241 41.2897C21.9857 41.3471 21.8372 41.3765 21.6874 41.3763ZM29.7523 41.0214C29.5266 41.0213 29.306 40.9544 29.1183 40.829C28.9307 40.7036 28.7844 40.5253 28.6981 40.3168C28.6117 40.1083 28.5891 39.8788 28.6331 39.6575C28.6771 39.4361 28.7858 39.2328 28.9454 39.0732L36.757 31.2615C36.9721 31.0526 37.2608 30.9367 37.5606 30.9389C37.8604 30.9411 38.1474 31.0612 38.3594 31.2732C38.5714 31.4852 38.6915 31.7722 38.6937 32.072C38.6959 32.3718 38.58 32.6605 38.3711 32.8756L30.5596 40.6873C30.4536 40.7933 30.3278 40.8774 30.1892 40.9348C30.0507 40.9921 29.9022 41.0215 29.7523 41.0214Z" fill="#F5F5F5"/>
</g>
<path d="M65.3666 49.2011H57.758C57.4553 49.2011 57.165 49.0808 56.9509 48.8668C56.7369 48.6528 56.6166 48.3625 56.6166 48.0598C56.6166 47.7571 56.7369 47.4668 56.9509 47.2527C57.165 47.0387 57.4553 46.9184 57.758 46.9184H65.3666C65.5165 46.9184 65.6649 46.9479 65.8034 47.0053C65.9419 47.0626 66.0677 47.1467 66.1737 47.2527C66.2797 47.3587 66.3638 47.4845 66.4211 47.623C66.4785 47.7615 66.508 47.9099 66.5079 48.0598C66.508 48.2096 66.4785 48.3581 66.4211 48.4965C66.3638 48.635 66.2797 48.7609 66.1737 48.8668C66.0677 48.9728 65.9419 49.0569 65.8034 49.1142C65.6649 49.1716 65.5165 49.2011 65.3666 49.2011ZM65.3666 44.5316H57.758C57.1277 44.5316 56.6166 44.0208 56.6166 43.3903C56.6166 42.7597 57.1277 42.2489 57.758 42.2489H65.3666C65.997 42.2489 66.5079 42.7597 66.5079 43.3903C66.5079 44.0208 65.9972 44.5316 65.3666 44.5316ZM65.3666 39.8621H57.758C57.4583 39.8575 57.1725 39.7352 56.9623 39.5217C56.752 39.3081 56.6342 39.0205 56.6342 38.7208C56.6342 38.4211 56.752 38.1335 56.9623 37.9199C57.1725 37.7064 57.4583 37.5841 57.758 37.5795H65.3666C65.5165 37.5794 65.6649 37.609 65.8034 37.6663C65.9419 37.7237 66.0677 37.8077 66.1737 37.9137C66.2797 38.0197 66.3638 38.1455 66.4211 38.284C66.4785 38.4225 66.508 38.5709 66.5079 38.7208C66.508 38.8707 66.4785 39.0191 66.4211 39.1576C66.3638 39.2961 66.2797 39.4219 66.1737 39.5279C66.0677 39.6339 65.9419 39.7179 65.8034 39.7753C65.6649 39.8326 65.5165 39.8621 65.3666 39.8621Z" fill="#D6E0E0"/>
</g>
<defs>
<clipPath id="clip0_37_2477">
<rect width="70" height="70" fill="white"/>
</clipPath>
</defs>
</svg>
