<svg width="50" height="70" viewBox="0 0 50 70" fill="none" xmlns="http://www.w3.org/2000/svg">
<path d="M4.19434 65.093V68.1639C4.19434 69.1782 5.22239 70 6.49049 70H9.55156C10.8197 70 11.8477 69.1782 11.8477 68.1639V65.093H4.19434ZM38.1543 65.093V68.1639C38.1543 69.1782 39.1823 70 40.4504 70H43.5115C44.7796 70 45.8077 69.1782 45.8077 68.1639V65.093H38.1543Z" fill="#636D77"/>
<path opacity="0.15" d="M7.25575 68.1639V65.093H4.19434V68.1639C4.19434 69.1782 5.22239 70 6.49049 70H9.55191C8.28381 70 7.25575 69.1782 7.25575 68.1639ZM41.2159 68.1639V65.093H38.1545V68.1639C38.1545 69.1782 39.1825 70 40.4506 70H43.512C42.2439 70 41.2159 69.1782 41.2159 68.1639Z" fill="#020202"/>
<path d="M15.1722 65.3997H5.62475C2.51819 65.3997 0.000122079 63.3858 0.000122079 60.9019V4.49777C-4.88927e-05 2.01346 2.51802 0 5.62458 0H44.375C47.4815 0 49.9996 2.01346 49.9996 4.49777V60.9018C49.9996 63.3855 47.4815 65.3996 44.375 65.3996L15.1722 65.3997Z" fill="#7DE3EA"/>
<path d="M49.9998 4.49777C49.9998 2.01346 47.4818 0 44.3752 0H5.62463C2.51807 0 0 2.01346 0 4.49777V26.6973H50V8.16772" fill="#49D0E2"/>
<g opacity="0.55">
<path d="M44.039 22.3797C43.6586 22.3797 43.2937 22.2588 43.0247 22.0436C42.7556 21.8283 42.6045 21.5364 42.6045 21.2321V5.3627C42.6045 5.21199 42.6416 5.06275 42.7136 4.92351C42.7857 4.78427 42.8914 4.65775 43.0246 4.55118C43.1578 4.44461 43.316 4.36008 43.49 4.30241C43.6641 4.24474 43.8506 4.21507 44.039 4.21509C44.2274 4.21507 44.414 4.24474 44.588 4.30241C44.7621 4.36008 44.9202 4.44461 45.0534 4.55118C45.1866 4.65775 45.2923 4.78427 45.3644 4.92351C45.4365 5.06275 45.4736 5.21199 45.4735 5.3627V21.2322C45.4735 21.5365 45.3223 21.8284 45.0533 22.0436C44.7843 22.2588 44.4194 22.3797 44.039 22.3797Z" fill="#F5F5F5"/>
</g>
<g opacity="0.55">
<path d="M44.039 59.8646C43.6586 59.8646 43.2937 59.7437 43.0247 59.5285C42.7556 59.3133 42.6045 59.0214 42.6045 58.717V57.9464C42.6045 57.7957 42.6416 57.6465 42.7136 57.5073C42.7857 57.368 42.8914 57.2415 43.0246 57.1349C43.1578 57.0283 43.316 56.9438 43.49 56.8862C43.6641 56.8285 43.8506 56.7988 44.039 56.7988C44.2274 56.7988 44.414 56.8285 44.588 56.8862C44.7621 56.9438 44.9202 57.0283 45.0534 57.1349C45.1866 57.2415 45.2923 57.368 45.3644 57.5073C45.4365 57.6465 45.4736 57.7957 45.4735 57.9464V58.717C45.4736 58.8677 45.4365 59.0169 45.3644 59.1562C45.2923 59.2954 45.1866 59.422 45.0534 59.5285C44.9202 59.6351 44.7621 59.7196 44.588 59.7773C44.414 59.835 44.2274 59.8646 44.039 59.8646Z" fill="#F5F5F5"/>
</g>
<g opacity="0.55">
<path d="M44.039 55.3702C43.6586 55.3702 43.2937 55.2493 43.0247 55.0341C42.7556 54.8188 42.6045 54.5269 42.6045 54.2226V32.0878C42.6045 31.9371 42.6416 31.7879 42.7136 31.6486C42.7857 31.5094 42.8914 31.3828 43.0246 31.2763C43.1578 31.1697 43.316 31.0852 43.49 31.0275C43.6641 30.9698 43.8506 30.9402 44.039 30.9402C44.2274 30.9402 44.414 30.9698 44.588 31.0275C44.7621 31.0852 44.9202 31.1697 45.0534 31.2763C45.1866 31.3828 45.2923 31.5094 45.3644 31.6486C45.4365 31.7879 45.4736 31.9371 45.4735 32.0878V54.2226C45.4736 54.3733 45.4365 54.5225 45.3644 54.6618C45.2923 54.801 45.1866 54.9275 45.0534 55.0341C44.9202 55.1407 44.7621 55.2252 44.588 55.2829C44.414 55.3405 44.2274 55.3702 44.039 55.3702Z" fill="#F5F5F5"/>
</g>
<path d="M0 26.6973V30.5225H13.7601C15.0282 30.5225 16.0563 29.7004 16.0563 28.6864V26.6973H0Z" fill="#A8F2F4"/>
<path d="M7.00887 19.7198C6.62825 19.7198 6.26321 19.5989 5.99407 19.3837C5.72493 19.1685 5.57373 18.8766 5.57373 18.5722V9.12711C5.57371 8.9764 5.61082 8.82716 5.68293 8.68791C5.75504 8.54867 5.86076 8.42215 5.99402 8.31558C6.12729 8.20901 6.28551 8.12448 6.45964 8.06681C6.63377 8.00915 6.8204 7.97947 7.00887 7.97949H9.30502C9.49349 7.97947 9.68012 8.00915 9.85425 8.06681C10.0284 8.12448 10.1866 8.20901 10.3199 8.31558C10.4531 8.42215 10.5588 8.54867 10.631 8.68791C10.7031 8.82716 10.7402 8.9764 10.7402 9.12711C10.7402 9.27782 10.703 9.42705 10.6309 9.56628C10.5588 9.70552 10.4531 9.83203 10.3198 9.9386C10.1865 10.0452 10.0283 10.1297 9.85422 10.1874C9.6801 10.245 9.49348 10.2747 9.30502 10.2747H8.44401V18.5723C8.44392 18.8767 8.29268 19.1685 8.02355 19.3837C7.75443 19.5989 7.38945 19.7198 7.00887 19.7198Z" fill="#636D77"/>
<path opacity="0.15" d="M3.06137 60.9019V4.49777C3.06137 2.01346 5.57944 0 8.68617 0H5.62475C2.51819 0 0.00012207 2.01346 0.00012207 4.49777V60.9021C0.00012207 63.3858 2.51819 65.3998 5.62475 65.3998H8.68617C5.57944 65.3997 3.06137 63.3858 3.06137 60.9019Z" fill="#020202"/>
</svg>
