<svg width="70" height="70" viewBox="0 0 70 70" fill="none" xmlns="http://www.w3.org/2000/svg">
<g clip-path="url(#clip0_37_2947)">
<path d="M44.6552 67.586H10.8621L6.0346 30.1723H49.4828L44.6552 67.586ZM2.41388 25.3447H53.1036V30.1723H2.41388V25.3447Z" fill="#4398D1"/>
<path d="M6.03461 30.1724L6.65736 34.9999H48.86L49.4828 30.1724H6.03461Z" fill="#398CC4"/>
<path d="M25.3449 25.3447H8.44836V14.4827L13.2759 8.44824H20.5173L25.3449 14.4827V25.3447Z" fill="#726891"/>
<path d="M13.2755 0H20.5169V8.44825H13.2755V0Z" fill="#E8594A"/>
<path d="M8.44836 14.4824H25.3454V25.3447H8.44836V14.4824Z" fill="#7A709C"/>
<path d="M42.2697 5.15332L44.4292 4.07535L49.3555 13.9443L47.196 15.0223L42.2697 5.15332Z" fill="#E66712"/>
<path d="M47.0695 0H51.8971V4.82753H47.0695V0ZM41.0345 9.6552H30.1725C30.1725 4.32304 34.4955 0 39.8275 0H47.069V4.82753L41.0345 9.6552Z" fill="#F77219"/>
<path d="M33.7928 9.65527H41.0343V14.4828H33.7928V9.65527Z" fill="#D4D4D4"/>
<path d="M33.7931 14.4829H41.0345L47.069 20.5174V25.3449H30.1725V18.1036L33.7931 14.4829Z" fill="#EBEBEB"/>
<path d="M61.5517 50.6895H59.6617C58.5235 50.6899 57.4009 50.9547 56.3825 51.463C55.3645 51.9725 54.2418 52.2378 53.1034 52.2378C51.965 52.2378 50.8423 51.9725 49.8243 51.463C48.8059 50.9546 47.6833 50.6898 46.5451 50.6895H44.6551C41.3228 50.6895 38.6206 53.3917 38.6206 56.7239V63.9654C38.6206 67.2976 41.3228 69.9998 44.6551 69.9998H46.5451C47.6833 69.9994 48.8059 69.7346 49.8243 69.2263C50.8423 68.7168 51.965 68.4515 53.1034 68.4515C54.2418 68.4515 55.3645 68.7168 56.3825 69.2263C57.4009 69.7346 58.5234 69.9995 59.6616 69.9998H61.5516C64.8838 69.9998 67.5861 67.2976 67.5861 63.9654V56.7239C67.5862 53.3917 64.884 50.6895 61.5517 50.6895Z" fill="#F5A338"/>
<path d="M61.5517 62.7584H59.6617C58.5235 62.758 57.4009 62.4932 56.3825 61.9849C55.3645 61.4754 54.2418 61.2101 53.1034 61.2101C51.965 61.2101 50.8423 61.4754 49.8243 61.9849C48.8059 62.4932 47.6833 62.758 46.5451 62.7584H44.6551C41.3228 62.7584 38.6206 60.0562 38.6206 56.7239C38.6206 53.3917 41.3228 50.6895 44.6551 50.6895H46.5451C47.6833 50.6899 48.8059 50.9547 49.8243 51.463C50.8423 51.9725 51.965 52.2378 53.1034 52.2378C54.2418 52.2378 55.3645 51.9725 56.3825 51.463C57.4009 50.9547 58.5234 50.6898 59.6616 50.6895H61.5516C64.8838 50.6895 67.5861 53.3917 67.5861 56.7239C67.5862 60.0563 64.884 62.7584 61.5517 62.7584Z" fill="#F9B44D"/>
<path d="M60.3449 54.3101H62.7587V56.7238H60.3449V54.3101ZM48.2754 54.3101H50.6892V56.7238H48.2754V54.3101ZM43.4479 55.5173H45.8616V57.931H43.4479V55.5173ZM55.5174 55.5173H57.9312V57.931H55.5174V55.5173Z" fill="#F5A338"/>
<path d="M33.7931 34.9999V25.3447H14.4828V53.1032C14.4828 55.103 16.1036 56.7239 18.1036 56.7239H30.1725C32.1723 56.7239 33.7932 55.1031 33.7932 53.1032V41.0343L38.6932 43.4843C39.9858 44.1312 41.5572 43.6073 42.204 42.316C42.204 42.3148 42.2053 42.3148 42.2053 42.3135L42.2355 42.2533C42.9113 40.9268 42.3827 39.3035 41.0575 38.629C41.0527 38.6265 41.0467 38.623 41.0406 38.6205L33.7931 34.9999Z" fill="#97D3E6"/>
<path d="M41.0405 38.6206L33.7931 34.9999V25.3447H32.8783C28.4973 39.749 20.8094 48.5521 14.5336 53.6355C14.7931 55.4084 16.3125 56.7227 18.1036 56.7239H30.1725C32.1723 56.7239 33.7932 55.1031 33.7932 53.1032V41.0343L38.6932 43.4843C39.9858 44.1312 41.5572 43.6073 42.204 42.316C42.204 42.3148 42.2053 42.3148 42.2053 42.3135L42.2355 42.2533C42.9113 40.9268 42.3827 39.3035 41.0575 38.629C41.0515 38.6267 41.0466 38.623 41.0405 38.6206Z" fill="#8AC9DE"/>
<path d="M18.103 44.6548H20.5168V56.7243H18.103V44.6548ZM22.9306 44.6548H25.3443V56.7243H22.9306V44.6548ZM27.7581 44.6548H30.1719V56.7243H27.7581V44.6548Z" fill="#7DBDD1"/>
</g>
<defs>
<clipPath id="clip0_37_2947">
<rect width="70" height="70" fill="white"/>
</clipPath>
</defs>
</svg>
