<svg width="70" height="70" viewBox="0 0 70 70" fill="none" xmlns="http://www.w3.org/2000/svg">
<path d="M27.9116 57.0173C43.3267 57.0173 55.8231 49.947 55.8231 41.2255C55.8231 32.5039 43.3267 25.4336 27.9116 25.4336C12.4966 25.4336 0.000183105 32.5039 0.000183105 41.2255C0.000183105 49.947 12.4966 57.0173 27.9116 57.0173Z" fill="#FFD248"/>
<path d="M28.1464 49.0923C38.218 49.0923 46.3825 44.3389 46.3825 38.4753C46.3825 32.6118 38.218 27.8584 28.1464 27.8584C18.0749 27.8584 9.91034 32.6118 9.91034 38.4753C9.91034 44.3389 18.0749 49.0923 28.1464 49.0923Z" fill="#FD9F28"/>
<path d="M27.9116 57.0174C12.4966 57.0174 0.000183105 49.9475 0.000183105 41.2256V52.9841C0.000183105 62.3807 12.4966 69.9941 27.9116 69.9941C43.3267 69.9941 55.8238 62.3761 55.8238 52.9841V41.2256C55.8238 49.9475 43.3274 57.0174 27.9116 57.0174Z" fill="#F57E23"/>
<path d="M24.4758 69.8665C25.6022 69.951 26.7476 70.0001 27.9114 70.0001C29.2382 70.0001 30.5408 69.9396 31.8184 69.83V56.8602C30.5408 56.9614 29.2385 57.0139 27.9114 57.0177C26.7476 57.0177 25.6022 56.9732 24.4758 56.8944V69.8665ZM8.07684 64.953C10.4563 66.3776 12.9139 67.4642 15.4194 68.1998V55.3476C12.9215 54.6679 10.4651 53.6597 8.07684 52.3337V64.953ZM40.8741 68.0525C43.385 67.2813 45.8434 66.143 48.2167 64.6528V52.0552C45.8339 53.4411 43.3767 54.4955 40.8741 55.206V68.0525Z" fill="#FD9F28"/>
<path d="M42.0882 31.5837C57.5033 31.5837 69.9996 24.5135 69.9996 15.7919C69.9996 7.07025 57.5033 0 42.0882 0C26.6731 0 14.1768 7.07025 14.1768 15.7919C14.1768 24.5135 26.6731 31.5837 42.0882 31.5837Z" fill="#FFD248"/>
<path d="M42.3237 23.6587C52.3952 23.6587 60.5598 18.9053 60.5598 13.0417C60.5598 7.17817 52.3952 2.4248 42.3237 2.4248C32.2522 2.4248 24.0876 7.17817 24.0876 13.0417C24.0876 18.9053 32.2522 23.6587 42.3237 23.6587Z" fill="#FD9F28"/>
<path d="M42.0881 31.5838C26.6723 31.5838 14.176 24.5139 14.176 15.792V27.5505C14.176 36.9471 26.6723 44.5605 42.0881 44.5605C57.5039 44.5605 69.9996 36.9425 69.9996 27.5505V15.792C69.9996 24.5139 57.5032 31.5838 42.0881 31.5838Z" fill="#F57E23"/>
<path d="M38.6526 44.4324C39.7789 44.5169 40.9244 44.566 42.0889 44.566C43.415 44.566 44.7176 44.5055 45.9952 44.3959V31.4261C44.7176 31.5281 43.4155 31.5806 42.0889 31.5837C40.9244 31.5837 39.7789 31.5391 38.6526 31.4604V44.4324ZM22.2536 39.519C24.6331 40.9435 27.0907 42.0302 29.5962 42.7657V29.9135C27.0982 29.2338 24.6419 28.2256 22.2536 26.8996V39.519ZM55.0508 42.6184C57.5617 41.8472 60.0202 40.7089 62.3934 39.2187V26.6211C60.0108 28.0086 57.5536 29.0645 55.0508 29.7765V42.6184Z" fill="#FD9F28"/>
</svg>
