<svg width="70" height="70" viewBox="0 0 70 70" fill="none" xmlns="http://www.w3.org/2000/svg">
<path d="M57.0365 19.3605V27.1505C57.0355 27.4946 56.8987 27.8243 56.6558 28.0675C56.4129 28.3108 56.0838 28.4479 55.7403 28.4489H7.77797C5.8912 28.4499 4.06849 27.7634 2.64976 26.5175C1.23103 25.2717 0.313142 23.5514 0.0672748 21.6777C-0.178592 19.8039 0.264349 17.9045 1.31349 16.3337C2.36264 14.763 3.94635 13.628 5.76929 13.1406C6.42282 12.9559 7.09892 12.8635 7.77797 12.8663H50.5552C52.2744 12.8666 53.9231 13.551 55.1386 14.7689C56.354 15.9867 57.0367 17.6384 57.0365 19.3605Z" fill="#C6E5FF"/>
<path d="M57.0367 19.3602V27.1502C57.0357 27.4943 56.8988 27.824 56.656 28.0672C56.4131 28.3105 56.0839 28.4476 55.7405 28.4486H7.77815C6.41709 28.4515 5.07957 28.0931 3.9017 27.41C3.88923 27.0076 3.88923 26.6049 3.88923 26.1906C3.88171 21.7732 4.51497 17.3781 5.76916 13.1431C6.42269 12.9583 7.09879 12.866 7.77784 12.8687H50.5553C52.2741 12.869 53.9224 13.553 55.1378 14.7703C56.3532 15.9876 57.0362 17.6386 57.0367 19.3602Z" fill="#EAF7FF"/>
<path d="M57.0367 19.3608V27.1509C57.0358 27.495 56.8989 27.8246 56.656 28.0679C56.4131 28.3112 56.084 28.4483 55.7405 28.4493H28.337C26.4238 23.4934 25.8038 18.1308 26.5356 12.8682H50.5554C52.2743 12.8685 53.9228 13.5527 55.1382 14.7702C56.3537 15.9878 57.0366 17.639 57.0367 19.3608Z" fill="white"/>
<path d="M60.4198 26.0601C60.4218 26.1038 60.4176 26.1475 60.4073 26.19C60.274 27.0341 59.8947 27.8201 59.3172 28.4492C59.1715 28.6105 59.0157 28.7624 58.8506 28.9037L38.8493 45.7182L29.4914 53.587C29.2609 53.7853 28.9655 53.8915 28.6617 53.8854C28.4744 53.8861 28.2892 53.8457 28.1191 53.7672C27.949 53.6887 27.7981 53.5739 27.6768 53.4309L6.00201 27.5792C5.78495 27.3132 5.67818 26.9739 5.70376 26.6314C5.71673 26.4612 5.76356 26.2953 5.84149 26.1434C5.91942 25.9916 6.02688 25.8569 6.15753 25.7473L12.6264 20.3082L31.5 4.44148L35.5174 1.06528C36.3392 0.35957 37.3912 -0.0192536 38.4735 0.000753904C39.0082 0.00463121 39.5356 0.125101 40.0192 0.35379C40.5027 0.582478 40.9307 0.913899 41.2735 1.32501L59.6035 23.1906C59.941 23.5853 60.1847 24.0515 60.3166 24.5541C60.4556 25.0434 60.4907 25.5564 60.4198 26.0601Z" fill="#FE9C39"/>
<path d="M60.4199 26.0601C60.422 26.1038 60.4178 26.1475 60.4075 26.19C60.2741 27.0341 59.8949 27.8201 59.3173 28.4492C59.1717 28.6105 59.0158 28.7624 58.8507 28.9037L38.8495 45.7182C32.8889 43.6621 27.4514 40.321 22.9205 35.9305C18.3895 31.5401 14.8756 26.2072 12.6265 20.3082L31.5002 4.44148L35.5175 1.06528C36.3394 0.35957 37.3913 -0.0192536 38.4736 0.000753904C39.0083 0.00463121 39.5358 0.125101 40.0193 0.35379C40.5029 0.582478 40.9309 0.913899 41.2736 1.32501L59.6037 23.1906C59.9411 23.5853 60.1849 24.0515 60.3168 24.5541C60.4557 25.0434 60.4909 25.5564 60.4199 26.0601Z" fill="#FED154"/>
<path d="M60.4203 26.0601C60.252 26.0732 60.0837 26.0732 59.9154 26.0732C53.4665 26.0871 47.1917 23.9773 42.0574 20.0686C36.923 16.1599 33.2137 10.669 31.5006 4.44148L35.5179 1.06528C36.3397 0.35957 37.3917 -0.0192536 38.474 0.000753904C39.0087 0.00463121 39.5362 0.125101 40.0197 0.35379C40.5032 0.582478 40.9313 0.913899 41.274 1.32501L59.6041 23.1906C59.9415 23.5853 60.1853 24.0515 60.3172 24.5541C60.4561 25.0434 60.4913 25.5564 60.4203 26.0601Z" fill="#FEEC88"/>
<path d="M24.4962 48.9184C24.307 48.9188 24.1199 48.8774 23.9484 48.7974C23.7768 48.7173 23.6249 48.6004 23.5035 48.455L10.1686 32.5492C9.94728 32.2851 9.83975 31.9437 9.86966 31.6001C9.89956 31.2565 10.0645 30.9389 10.3281 30.7171L32.9105 11.7342C33.1739 11.5132 33.5141 11.406 33.8565 11.4359C34.1988 11.4659 34.5153 11.6306 34.7365 11.8939C35.7384 13.0899 38.8105 12.5847 40.2844 11.3452C40.5479 11.1243 40.8881 11.017 41.2304 11.0469C41.5728 11.0769 41.8893 11.2416 42.1105 11.505L49.7304 20.5961C49.9515 20.8597 50.0592 21.2004 50.0295 21.5434C49.9999 21.8865 49.8355 22.2036 49.5724 22.4252C48.0985 23.6638 47.0692 26.6035 48.0726 27.8018C48.1822 27.9324 48.2649 28.0834 48.3162 28.2461C48.3674 28.4087 48.386 28.5799 48.3711 28.7499C48.3561 28.9198 48.3078 29.0851 48.229 29.2362C48.1502 29.3874 48.0423 29.5216 47.9116 29.6309L25.3292 48.6141C25.0963 48.8109 24.8015 48.9189 24.4968 48.919M12.988 31.8728L24.6545 45.7918L45.4157 28.3423C44.5316 26.1169 45.5338 23.2069 46.9983 21.3775L40.8721 14.066C38.819 15.1958 35.7832 15.6786 33.7465 14.4245L12.988 31.8728Z" fill="white"/>
<path d="M64.8149 32.3443V63.5065C64.8145 65.2285 64.1314 66.8799 62.9157 68.0975C61.7001 69.3152 60.0515 69.9994 58.3323 69.9998H6.48322C4.76407 69.9994 3.11544 69.3152 1.89981 68.0975C0.684189 66.8799 0.00107872 65.2285 0.00067531 63.5065V21.9569C-0.00424472 21.8325 0.0177653 21.7084 0.0651964 21.5933C0.207401 22.7937 0.628568 23.9441 1.2949 24.9521C1.96123 25.96 2.85418 26.7975 3.90207 27.3973C5.07638 28.0904 6.41549 28.4537 7.77851 28.449H59.3175C59.8947 27.8198 60.2737 27.0338 60.4067 26.1898C61.6917 26.6252 62.808 27.4531 63.5987 28.5571C64.3894 29.6611 64.8148 30.9856 64.8149 32.3443Z" fill="#566FF8"/>
<path d="M64.8151 32.3445V63.5067C64.8147 65.2287 64.1316 66.8801 62.916 68.0977C61.7004 69.3153 60.0518 69.9996 58.3326 70H35.0399C17.2546 63.7536 4.40816 47.0946 3.90234 27.3974C5.07665 28.0906 6.41576 28.4539 7.77878 28.4492H59.3178C59.895 27.8199 60.2739 27.034 60.407 26.1899C61.6919 26.6254 62.8083 27.4533 63.599 28.5573C64.3897 29.6613 64.815 30.9858 64.8151 32.3445Z" fill="#6C95F8"/>
<path d="M64.815 32.3445V48.0686C62.6009 48.5546 60.3407 48.7984 58.074 48.7957C51.6457 48.8099 45.3637 46.8735 40.0556 43.2416C34.7474 39.6096 30.662 34.4524 28.3374 28.4492H59.3176C59.8948 27.8199 60.2737 27.034 60.4068 26.1899C61.6918 26.6254 62.8081 27.4533 63.5988 28.5573C64.3895 29.6613 64.8148 30.9858 64.815 32.3445Z" fill="#8FB6F8"/>
<path d="M69.9999 44.0302V54.4179C69.9968 55.45 69.5861 56.439 68.8574 57.1688C68.1288 57.8986 67.1414 58.3099 66.1109 58.3129H55.7407C53.3349 58.3103 51.0284 57.3518 49.3273 55.6479C47.6262 53.9439 46.6693 51.6336 46.6666 49.2239C46.6637 48.7319 46.7072 48.2407 46.7966 47.7569C47.1438 45.6309 48.2337 43.6976 49.8719 42.3017C51.51 40.9058 53.59 40.1382 55.7407 40.1357H66.1109C66.9962 40.1396 67.8544 40.4414 68.5478 40.9927C69.0003 41.3588 69.3654 41.8215 69.6166 42.347C69.8678 42.8725 69.9988 43.4476 69.9999 44.0302Z" fill="#FE9C39"/>
<path d="M68.5478 40.9921C66.8204 47.4181 63.6153 53.35 59.1889 58.3129H55.7407C53.3349 58.3103 51.0284 57.3518 49.3273 55.6479C47.6262 53.9439 46.6693 51.6336 46.6666 49.2239C46.6637 48.7319 46.7072 48.2407 46.7966 47.7569C47.1438 45.6309 48.2337 43.6976 49.8719 42.3017C51.51 40.9058 53.59 40.1382 55.7407 40.1357H66.1109C66.9961 40.1394 67.8544 40.441 68.5478 40.9921Z" fill="#FED154"/>
<path d="M56.428 40.1353C53.7887 43.3263 50.5066 45.9233 46.7964 47.7565C47.1436 45.6304 48.2335 43.6971 49.8717 42.3012C51.5098 40.9053 53.5897 40.1377 55.7405 40.1353H56.428Z" fill="#FEEC88"/>
<path d="M60.9259 49.224C60.926 49.7377 60.774 50.2398 60.4891 50.6669C60.2043 51.094 59.7993 51.427 59.3256 51.6236C58.8518 51.8202 58.3305 51.8716 57.8275 51.7714C57.3245 51.6712 56.8625 51.4239 56.4999 51.0607C56.1373 50.6974 55.8903 50.2347 55.7903 49.7309C55.6903 49.2271 55.7417 48.7049 55.9379 48.2303C56.1342 47.7558 56.4666 47.3502 56.893 47.0648C57.3194 46.7795 57.8207 46.6272 58.3335 46.6273C59.021 46.6275 59.6803 46.9012 60.1664 47.3881C60.6525 47.875 60.9257 48.5354 60.9259 49.224ZM10.3709 57.0147C10.2007 57.0147 10.0321 56.9812 9.87483 56.9159C9.71755 56.8507 9.57464 56.7551 9.45427 56.6345C9.3339 56.5139 9.23842 56.3708 9.17329 56.2132C9.10817 56.0557 9.07467 55.8869 9.07471 55.7163V42.7319C9.07471 42.3876 9.21127 42.0574 9.45436 41.8139C9.69744 41.5704 10.0271 41.4336 10.3709 41.4336C10.7147 41.4336 11.0444 41.5704 11.2875 41.8139C11.5306 42.0574 11.6671 42.3876 11.6671 42.7319V55.7163C11.6672 55.8869 11.6337 56.0557 11.5685 56.2132C11.5034 56.3708 11.4079 56.5139 11.2876 56.6345C11.1672 56.7551 11.0243 56.8507 10.867 56.9159C10.7097 56.9812 10.5411 57.0147 10.3709 57.0147Z" fill="white"/>
</svg>
