<svg width="70" height="70" viewBox="0 0 70 70" fill="none" xmlns="http://www.w3.org/2000/svg">
<path d="M0 44.3335H9.33333V70.0002H0V44.3335Z" fill="#603813"/>
<path d="M2.3335 58.3335C2.33556 60.4011 3.02409 62.4094 4.29103 64.0434C5.55796 65.6773 7.33158 66.8443 9.3335 67.3612V44.3335H2.3335V58.3335Z" fill="#70492A"/>
<path d="M9.3335 48.9998L14.0538 46.0493C17.0685 44.1653 20.552 43.1664 24.107 43.1665C26.6741 43.1668 29.2144 43.6888 31.5737 44.7007C34.6026 45.9984 37.8637 46.6672 41.159 46.6665H46.6668C47.5951 46.6665 48.4853 47.0353 49.1417 47.6916C49.7981 48.348 50.1668 49.2382 50.1668 50.1665L64.4363 44.6832C65.029 44.4531 65.6591 44.3344 66.2948 44.3332C66.7814 44.3332 67.2633 44.429 67.7128 44.6152C68.1624 44.8014 68.5708 45.0744 68.9149 45.4184C69.259 45.7625 69.5319 46.171 69.7181 46.6205C69.9043 47.0701 70.0002 47.5519 70.0002 48.0385C70.0001 48.6861 69.8302 49.3223 69.5076 49.8838C69.185 50.4453 68.7209 50.9124 68.1615 51.2387L46.7088 63.7535C43.6253 65.5523 40.1194 66.5001 36.5495 66.4998C33.9846 66.4995 31.4434 66.0101 29.0618 65.0578L22.7187 62.5203C21.5832 62.0664 20.3715 61.8332 19.1487 61.8332C16.5993 61.8332 14.1544 62.8458 12.3517 64.6483L9.3335 67.6665" fill="#E2B2AA"/>
<path d="M68.795 45.3191C68.1156 44.6872 67.2227 44.3351 66.2948 44.3332C65.6591 44.3345 65.029 44.4531 64.4363 44.6832L50.1668 50.1666C50.1661 49.2684 49.8183 48.4052 49.1962 47.7574C49.1262 47.6839 49.048 47.6186 48.9722 47.5509C48.3378 46.984 47.5176 46.6694 46.6668 46.6666H41.159C37.8653 46.6667 34.6059 45.9979 31.5783 44.7007C28.7652 43.4948 25.7021 42.9876 22.6504 43.2224C19.5988 43.4573 16.6493 44.4272 14.0538 46.0494L9.3335 48.9999V64.1666L11.185 62.3151C12.5153 60.9851 14.2066 60.0746 16.0494 59.6963C17.8921 59.3181 19.8053 59.4887 21.552 60.1871L27.8952 62.7246C30.7422 63.8634 33.8114 64.3378 36.8694 64.1118C39.9274 63.8858 42.8935 62.9652 45.5422 61.4202L66.9948 48.9054C67.5542 48.5792 68.0184 48.112 68.341 47.5505C68.6636 46.9891 68.8334 46.3528 68.8335 45.7052C68.8273 45.5759 68.8144 45.4471 68.795 45.3191Z" fill="#FFE2D5"/>
<path d="M47.8332 52.5H32.6665V54.8334H47.8332C49.0708 54.8334 50.2578 54.3417 51.133 53.4665C52.0082 52.5914 52.4998 51.4044 52.4998 50.1667V49.2695L50.1665 50.1667C50.1665 50.7855 49.9207 51.379 49.4831 51.8166C49.0455 52.2542 48.452 52.5 47.8332 52.5Z" fill="#E2B2AA"/>
<path d="M35 43.1667C29.0143 40.0027 24.0046 35.2665 20.5099 29.4676C17.0152 23.6687 15.1679 17.0267 15.1667 10.2562V5.83333C16.7138 5.83333 18.1975 5.21875 19.2915 4.12479C20.3854 3.03083 21 1.5471 21 0H49C49 1.5471 49.6146 3.03083 50.7085 4.12479C51.8025 5.21875 53.2862 5.83333 54.8333 5.83333V10.2562C54.8327 17.0261 52.9862 23.6677 49.4926 29.4665C45.999 35.2653 40.9905 40.0019 35.0058 43.1667H35Z" fill="#20962B"/>
<path d="M35.0002 38.4998L32.7835 36.7918C28.7552 33.6941 25.4926 29.7123 23.2472 25.1537C21.0019 20.595 19.8339 15.5814 19.8335 10.4998L24.5002 4.6665H45.5002L50.1668 10.4998C50.1664 15.5814 48.9984 20.595 46.7531 25.1537C44.5078 29.7123 41.2451 33.6941 37.2168 36.7918L35.0002 38.4998Z" fill="#55C660"/>
<path d="M45.5002 4.6665H25.2002L23.3335 6.99984C23.3339 12.0814 24.5019 17.095 26.7472 21.6537C28.9926 26.2123 32.2552 30.1941 36.2835 33.2918L38.5002 34.9998L40.7168 33.2918C41.1835 32.9325 41.6385 32.558 42.083 32.1765C47.2926 26.1558 50.162 18.4616 50.1668 10.4998L45.5002 4.6665Z" fill="#84D88A"/>
<path d="M32.6665 29.1667L46.6665 14L43.1665 10.5L32.6665 22.1667L29.1665 18.6667L25.6665 22.1667L32.6665 29.1667Z" fill="white"/>
</svg>
