<svg width="70" height="70" viewBox="0 0 70 70" fill="none" xmlns="http://www.w3.org/2000/svg">
<path d="M69.4616 40.3103V43.4258L35.1174 63.3839V60.2689L69.4616 40.3103Z" fill="#8FB545"/>
<path d="M35.1174 60.2689V63.3839L0.538467 43.4232V40.3076L35.1174 60.2689Z" fill="#9FC14C"/>
<path d="M69.4616 43.401V46.516L35.1174 66.4746V63.3596L69.4616 43.401Z" fill="#875744"/>
<path d="M35.1174 63.3596V66.4746L0.538467 46.5139V43.3983L35.1174 63.3596Z" fill="#9E6A4D"/>
<path d="M69.4615 40.3103L35.1174 60.2689L0.538467 40.3081L34.8918 20.3495L69.4615 40.3103Z" fill="#B2CC5E"/>
<path d="M45.5754 30.2523L45.5393 48.4007L19.8401 33.5633L19.8768 15.415L45.5754 30.2523Z" fill="#DADADA"/>
<path d="M61.3577 21.0807L45.5754 30.2523L19.8768 15.415L35.6591 6.24341L61.3577 21.0807Z" fill="#EBEBEB"/>
<path d="M61.3577 21.0808L61.3211 39.2291L45.5388 48.4007L45.5754 30.2524L55.5057 20.1277L61.3577 21.0808Z" fill="#CCCCCC"/>
<path d="M57.6617 32.1816L54.6813 33.8401V27.6472L57.6611 25.9877L57.6617 32.1816Z" fill="#5F6269"/>
<path d="M57.6617 32.1816L54.6813 33.8401V27.6472L57.6611 25.9877L57.6617 32.1816Z" fill="#78C2FF"/>
<path d="M57.3494 32.0303V26.1562L57.6617 25.9877V32.1816L57.3494 32.0303Z" fill="#C1C1C1"/>
<path d="M54.6808 33.4799L57.3494 32.0304L57.6617 32.1812L54.6813 33.8396L54.6808 33.4799Z" fill="black"/>
<path d="M54.2317 27.4292V34.6608L58.1108 32.3992V25.1682L54.2317 27.4292ZM57.6617 29.0231L56.1949 29.8501V28.56L57.6611 27.7297L57.6617 29.0231ZM56.0172 29.9497L54.6813 30.7036V29.4167L56.0172 28.6596V29.9497ZM54.6813 27.6473L56.0172 26.9031V28.4555L54.6813 29.2115V27.6473ZM57.6611 25.9878V27.5251L56.1949 28.3548V26.8041L57.6611 25.9878ZM57.6611 32.1817L56.1949 32.998V30.0548L57.6611 29.2277V32.1817ZM54.6813 33.8401V30.9077L56.0172 30.1549V33.096L54.6813 33.8401Z" fill="#4C525D"/>
<path d="M53.2754 34.6608L50.295 36.3192V30.1253L53.2754 28.4663V34.6608Z" fill="#5F6269"/>
<path d="M53.2754 34.6608L50.295 36.3192V30.1253L53.2754 28.4663V34.6608Z" fill="#78C2FF"/>
<path d="M52.9631 34.5088V28.6353L53.2754 28.4673V34.6607L52.9631 34.5088Z" fill="#C1C1C1"/>
<path d="M50.295 35.9585L52.9631 34.5089L53.2754 34.6602L50.295 36.3187V35.9585Z" fill="black"/>
<path d="M49.8454 29.9083V37.1387L53.725 34.8783V27.6467L49.8454 29.9083ZM53.2754 31.5021L51.8086 32.3292V31.038L53.2754 30.2082V31.5021ZM51.6315 32.4283L50.295 33.1821V31.8952L51.6315 31.1381V32.4283ZM50.295 30.1258L51.6315 29.3817V30.934L50.295 31.69V30.1258ZM53.2754 28.4668V30.0036L51.8086 30.8339V29.2831L53.2754 28.4668ZM53.2754 34.6602L51.8086 35.477V32.5333L53.2754 31.7062V34.6602ZM50.295 36.3187V33.3867L51.6315 32.6334V35.575L50.295 36.3187Z" fill="#4C525D"/>
<path d="M55.5046 19.755L27.6602 3.52527L36.8195 5.80296L64.6639 22.0327L55.5046 19.755Z" fill="#E25656"/>
<path d="M46.5478 32.7368L18.7035 16.5065L18.5489 16.3514L46.3938 32.5812L46.5478 32.7368Z" fill="#B74848"/>
<path d="M46.3939 32.5812L18.5484 16.3514L27.6608 3.52527L55.5046 19.755L46.3939 32.5812Z" fill="#F06260"/>
<path d="M64.6649 22.0365L64.6515 22.0634L64.5126 22.3633L55.5073 20.1277L46.5462 32.7352L46.3939 32.5833L55.5025 19.7561L64.6563 22.0273L64.6649 22.0365ZM28.0959 3.77888L27.6602 3.52527L36.8195 5.80296L37.2556 6.05604L28.0959 3.77888Z" fill="#CC4E4E"/>
<path d="M18.9845 16.605L18.5489 16.3514L27.6608 3.52527L28.0958 3.77888L18.9845 16.605Z" fill="#E25656"/>
<path d="M29.624 4.67L29.1889 4.41638L38.3482 6.69407L38.7838 6.94715L29.624 4.67Z" fill="#CC4E4E"/>
<path d="M20.5133 17.4962L20.0776 17.2425L29.1884 4.41638L29.6246 4.67L20.5133 17.4962Z" fill="#E25656"/>
<path d="M31.1527 5.56123L30.7176 5.30762L39.8769 7.58531L40.3125 7.83839L31.1527 5.56123Z" fill="#CC4E4E"/>
<path d="M22.0414 18.3874L21.6063 18.1338L30.7171 5.30762L31.1532 5.56123L22.0414 18.3874Z" fill="#E25656"/>
<path d="M32.6814 6.45235L32.2458 6.19873L41.4056 8.47642L41.8406 8.7295L32.6814 6.45235Z" fill="#CC4E4E"/>
<path d="M23.5701 19.2785L23.135 19.0249L32.2458 6.19873L32.6814 6.45181L23.5701 19.2785Z" fill="#E25656"/>
<path d="M34.2101 7.34346L33.7745 7.08984L42.9337 9.36754L43.3699 9.62061L34.2101 7.34346Z" fill="#CC4E4E"/>
<path d="M25.0988 20.1696L24.6631 19.916L33.7745 7.08984L34.2101 7.34292L25.0988 20.1696Z" fill="#E25656"/>
<path d="M35.7388 8.23469L35.3032 7.98108L44.4624 10.2588L44.8985 10.5118L35.7388 8.23469Z" fill="#CC4E4E"/>
<path d="M26.6269 21.0608L26.1919 20.8066L35.3032 7.98047L35.7388 8.23462L26.6269 21.0608Z" fill="#E25656"/>
<path d="M37.2669 9.12581L36.8318 8.87219L45.9911 11.1499L46.4267 11.403L37.2669 9.12581Z" fill="#CC4E4E"/>
<path d="M28.1562 21.952L27.7206 21.6979L36.8313 8.8717L37.2675 9.12586L28.1562 21.952Z" fill="#E25656"/>
<path d="M38.7962 10.017L38.36 9.76282L47.5198 12.0405L47.9554 12.2941L38.7962 10.017Z" fill="#CC4E4E"/>
<path d="M29.6849 22.8431L29.2492 22.589L38.36 9.76282L38.7962 10.017L29.6849 22.8431Z" fill="#E25656"/>
<path d="M40.3243 10.9081L39.8893 10.6539L49.0485 12.9316L49.4841 13.1852L40.3243 10.9081Z" fill="#CC4E4E"/>
<path d="M31.213 23.7342L30.7779 23.4801L39.8887 10.6539L40.3243 10.9081L31.213 23.7342Z" fill="#E25656"/>
<path d="M41.853 11.7993L41.4174 11.5452L50.5766 13.8229L51.0128 14.0765L41.853 11.7993Z" fill="#CC4E4E"/>
<path d="M32.7417 24.6255L32.3066 24.3713L41.4174 11.5452L41.853 11.7993L32.7417 24.6255Z" fill="#E25656"/>
<path d="M43.3817 12.6898L42.9461 12.4368L52.1053 14.7139L52.5415 14.9675L43.3817 12.6898Z" fill="#CC4E4E"/>
<path d="M34.2704 25.516L33.8348 25.2629L42.9461 12.4368L43.3817 12.6898L34.2704 25.516Z" fill="#E25656"/>
<path d="M44.9099 13.5815L44.4748 13.3274L53.634 15.6051L54.0702 15.8587L44.9099 13.5815Z" fill="#CC4E4E"/>
<path d="M35.7991 26.4072L35.3635 26.1542L44.4748 13.328L44.9098 13.5811L35.7991 26.4072Z" fill="#E25656"/>
<path d="M46.4386 14.4722L46.0035 14.2191L55.1627 16.4963L55.5983 16.7499L46.4386 14.4722Z" fill="#CC4E4E"/>
<path d="M37.3278 27.2984L36.8922 27.0448L46.0029 14.2186L46.4391 14.4722L37.3278 27.2984Z" fill="#E25656"/>
<path d="M47.9672 15.3633L47.5322 15.1102L56.6914 17.3874L57.127 17.641L47.9672 15.3633Z" fill="#CC4E4E"/>
<path d="M38.8559 28.1895L38.4208 27.9359L47.5316 15.1097L47.9678 15.3634L38.8559 28.1895Z" fill="#E25656"/>
<path d="M49.4954 16.2545L49.0603 16.0009L58.2201 18.2785L58.6552 18.5322L49.4954 16.2545Z" fill="#CC4E4E"/>
<path d="M40.3846 29.0806L39.9496 28.827L49.0603 16.0009L49.4959 16.2545L40.3846 29.0806Z" fill="#E25656"/>
<path d="M51.0246 17.1457L50.589 16.8921L59.7483 19.1698L60.1844 19.4229L51.0246 17.1457Z" fill="#CC4E4E"/>
<path d="M41.9138 29.9719L41.4777 29.7182L50.589 16.8921L51.0246 17.1457L41.9138 29.9719Z" fill="#E25656"/>
<path d="M52.5533 18.0368L52.1177 17.7832L61.2769 20.0609L61.7131 20.314L52.5533 18.0368Z" fill="#CC4E4E"/>
<path d="M43.442 30.863L43.0064 30.6094L52.1177 17.7832L52.5533 18.0368L43.442 30.863Z" fill="#E25656"/>
<path d="M54.0815 18.9279L53.6464 18.6743L62.8056 20.952L63.2412 21.2051L54.0815 18.9279Z" fill="#CC4E4E"/>
<path d="M44.9707 31.7541L44.5351 31.5005L53.6459 18.6743L54.082 18.9279L44.9707 31.7541Z" fill="#E25656"/>
<path d="M64.6649 22.0365L64.6515 22.0634L55.6102 19.818L55.5025 19.7561L55.1756 19.5634L64.3332 21.8437L64.6563 22.0274L64.6649 22.0365Z" fill="#CC4E4E"/>
<path d="M46.4994 32.6453L46.0638 32.3917L55.1746 19.5656L55.6107 19.8192L46.4994 32.6453Z" fill="#E25656"/>
<path d="M32.4563 32.1068L34.2138 33.1218L34.4906 33.2817L34.4901 33.594L34.2133 33.4347L32.4552 32.4197L32.4563 32.1068Z" fill="#B7805A"/>
<path d="M32.4563 32.1068L32.4601 30.7251L34.2181 31.7401L34.2138 33.1218L32.4563 32.1068Z" fill="#4C525D"/>
<path d="M34.2182 31.7401V31.6211L34.4949 31.781L34.4906 33.2817L34.2138 33.1218L34.2182 31.7401ZM29.9788 35.5529L29.9681 39.404L34.4653 41.9999L34.4761 38.1489L29.9788 35.5529ZM34.2596 38.3228L34.2499 41.5482V41.6176L34.1891 41.5826L30.2109 39.2856L30.1501 39.2506V39.1806L30.1598 35.9557V35.8857L30.2206 35.9212L34.1988 38.2183L34.2596 38.2533V38.3228Z" fill="#B7805A"/>
<path d="M34.1385 38.3222L34.1293 41.4082L30.2718 39.1811L30.2804 36.0957L34.1385 38.3222ZM33.0438 40.1196L33.0486 38.3605L30.8323 37.0805L30.8269 38.8397L33.0438 40.1196Z" fill="#B7805A"/>
<path d="M33.0486 38.36L33.0433 40.1196L30.8275 38.8397L30.8323 37.0806L33.0486 38.36Z" fill="#9E6A4D"/>
<path d="M34.1988 38.2184L34.2596 38.2534V38.3228L34.2499 41.5482V41.6177L34.1896 41.5827L30.2104 39.2856L30.1501 39.2506V39.1806L30.1598 35.9557V35.8857L30.2206 35.9213L34.1988 38.2184ZM34.1288 41.4082L34.1379 38.3228L30.2804 36.0952L30.2718 39.1811L34.1288 41.4082Z" fill="#9E6A4D"/>
<path d="M30.2314 35.302L30.2432 31.1429L32.144 32.2398L32.1322 36.3994L30.2314 35.302Z" fill="#4C525D"/>
<path d="M30.1146 30.7548L30.2438 30.8301L32.1446 31.927L32.144 32.2398L30.2432 31.1425L30.114 31.0676L30.1146 30.7548Z" fill="#B7805A"/>
<path d="M32.4434 36.5793L32.4552 32.4197L34.2133 33.4347L34.2015 37.5943L32.4434 36.5793Z" fill="#4C525D"/>
<path d="M34.2015 37.5942L34.2133 33.4346L34.4901 33.5945L34.4777 37.8731L34.2009 37.7132L34.2015 37.5942ZM32.4606 30.6061L32.4601 30.7251L32.4563 32.1068L32.4552 32.4196L32.4434 36.5792V36.6982L32.1316 36.5184V36.3999L32.144 32.2403L32.1445 31.9274L32.1489 30.5463V30.4268L32.4606 30.6061Z" fill="#B7805A"/>
<path d="M30.2443 30.8296L30.2481 29.4485L32.1489 30.5459L32.1446 31.927L30.2443 30.8296Z" fill="#4C525D"/>
<path d="M29.9794 35.6295L29.9982 28.9208L34.496 31.5178L34.4949 31.7811L34.2182 31.6212V31.7402L32.4601 30.7252V30.6067L32.1489 30.4263V30.5459L30.2481 29.4485L30.2443 30.8296L30.1146 30.7548L30.1135 31.0676L30.2432 31.143L30.2314 35.3021L32.1322 36.3995V36.5185L32.4429 36.6983L32.4434 36.5793L34.2015 37.5943V37.7128L34.4777 37.8732L34.4766 38.2259L29.9794 35.6295Z" fill="#B7805A"/>
<path d="M34.4653 42.0005L18.9512 50.9578L14.4534 48.3608L29.9676 39.4041L34.4653 42.0005Z" fill="black"/>
<path d="M23.8781 40.3938L16.0957 35.8712L16.0758 28.8395L23.8582 33.3626L23.8781 40.3938Z" fill="#DADADA"/>
<path d="M23.8582 33.3619L16.0758 28.8399L19.9602 23.7461L27.7432 28.2692L23.8582 33.3619Z" fill="#EBEBEB"/>
<path d="M27.7432 28.2687L27.7706 38.1468L23.8781 40.3943L23.8582 33.362L27.7432 28.2687Z" fill="#CCCCCC"/>
<path d="M17.1845 29.9211L17.1522 36.0305L23.1646 39.5015L23.1969 33.3921L17.1845 29.9211Z" fill="#5F656F"/>
<path d="M17.1818 29.9211L17.1802 30.0283L23.1937 33.4998V33.3921L17.1818 29.9211ZM17.1785 30.4456L17.1769 30.5528L23.1905 34.0242V33.9165L17.1785 30.4456ZM17.1759 30.9701L17.1742 31.0767L23.1878 34.5487V34.441L17.1759 30.9701ZM17.1726 31.4945L17.171 31.6011L23.1851 35.0731V34.9654L17.1726 31.4945ZM17.1699 32.0185L17.1683 32.1261L23.1818 35.5976V35.4899L17.1699 32.0185ZM17.1667 32.5429L17.1651 32.6501L23.1792 36.1221V36.0138L17.1667 32.5429ZM17.164 33.0668L17.1624 33.1745L23.1759 36.646V36.5383L17.164 33.0668ZM17.1608 33.5918L17.1592 33.699L23.1732 37.1704V37.0628L17.1608 33.5918ZM17.1581 34.1158L17.1565 34.2234L23.17 37.6949V37.5872L17.1581 34.1158ZM17.1554 34.6402L17.1538 34.7479L23.1673 38.2194V38.1117L17.1554 34.6402ZM17.1522 35.148L17.1505 35.2551L23.1641 38.7271V38.6189L17.1522 35.148ZM17.1522 35.6891L17.1505 35.7963L23.1641 39.2683V39.1601L17.1522 35.6891Z" fill="#555B66"/>
<path d="M17.1845 29.9212L16.7042 29.6433L16.6864 36.2384L17.1522 36.0305L17.1845 29.9212Z" fill="#CCCCCC"/>
<path d="M17.1522 36.0305L16.6864 36.2384L23.1792 39.9871L23.1646 39.5014L17.1522 36.0305Z" fill="black"/>
<path d="M23.1792 39.9867L11.5619 46.6948L5.06424 42.9202L16.6815 36.2131L23.1792 39.9867Z" fill="black"/>
<path d="M41.0232 50.2923L33.2408 45.7692L33.2209 38.7369L41.0033 43.26L41.0232 50.2923Z" fill="#DADADA"/>
<path d="M41.0038 43.2599L33.2209 38.7369L37.1054 33.6436L44.8878 38.1666L41.0038 43.2599Z" fill="#EBEBEB"/>
<path d="M44.8878 38.1661L44.9158 48.0448L41.0232 50.2918L41.0033 43.26L44.8878 38.1661Z" fill="#CCCCCC"/>
<path d="M34.3296 39.8192L34.2973 45.9281L40.3092 49.399L40.3415 43.2901L34.3296 39.8192Z" fill="#5F656F"/>
<path d="M34.3269 39.8192L34.3253 39.9258L40.3389 43.3978V43.2901L34.3269 39.8192ZM34.3237 40.3431L34.3221 40.4508L40.3362 43.9223V43.8146L34.3237 40.3431ZM34.321 40.8676L34.3194 40.9753L40.3329 44.4468V44.3391L34.321 40.8676ZM34.3178 41.3921L34.3162 41.4992L40.3308 44.9712V44.8635L34.3178 41.3921ZM34.3151 41.9165L34.3135 42.0237L40.327 45.4951V45.3874L34.3151 41.9165ZM34.3119 42.441L34.3103 42.5481L40.3243 46.0196V45.9119L34.3119 42.441ZM34.3092 42.9654L34.3076 43.0721L40.3211 46.5441V46.4364L34.3092 42.9654ZM34.3059 43.4894L34.3043 43.5971L40.3184 47.0685V46.9608L34.3059 43.4894ZM34.3033 44.0138L34.3016 44.1215L40.3152 47.593V47.4853L34.3033 44.0138ZM34.3 44.5383L34.2984 44.6454L40.3125 48.1174V48.0098L34.3 44.5383ZM34.2973 45.0461L34.2957 45.1532L40.3093 48.6247V48.517L34.2973 45.0461ZM34.2973 45.5872L34.2957 45.6944L40.3093 49.1658V49.0581L34.2973 45.5872Z" fill="#555B66"/>
<path d="M34.3296 39.8192L33.8493 39.5414L33.8315 46.1359L34.2973 45.9281L34.3296 39.8192Z" fill="#CCCCCC"/>
<path d="M34.2973 45.928L33.8315 46.1358L40.3243 49.8846L40.3092 49.3989L34.2973 45.928Z" fill="black"/>
<path d="M40.3243 49.8847L28.707 56.5923L22.2094 52.8188L33.8267 46.1117L40.3243 49.8847Z" fill="black"/>
<path d="M5.95271 39.8844C6.34579 40.1116 6.35117 40.4821 5.95702 40.7104C5.56394 40.9392 4.92155 40.9392 4.52848 40.712C4.13217 40.4831 4.13002 40.1116 4.52363 39.8827C4.91725 39.6539 5.5564 39.6555 5.95271 39.8844Z" fill="#9FC14C"/>
<path d="M5.6183 38.1511L5.61291 40.1612C5.61291 40.2166 5.5763 40.2721 5.50361 40.3141C5.35715 40.3992 5.11968 40.3992 4.97215 40.3141C4.89838 40.271 4.86122 40.215 4.86176 40.159L4.86715 38.1489C4.86715 38.2049 4.9043 38.2609 4.97807 38.304C5.12561 38.3891 5.36307 38.3891 5.50899 38.304C5.58168 38.2615 5.6183 38.2065 5.6183 38.1511Z" fill="#875744"/>
<path d="M5.50738 37.996C5.65492 38.0811 5.65546 38.2189 5.509 38.304C5.36308 38.3891 5.12508 38.3891 4.97808 38.304C4.83108 38.2189 4.83 38.0811 4.97646 37.996C5.12238 37.9115 5.36038 37.9115 5.50738 37.996Z" fill="#89633E"/>
<path d="M7.5347 37.3541C7.5347 38.1866 6.47393 38.8618 5.16762 38.8618C3.86131 38.8618 2.8 38.186 2.8 37.3536C2.8 36.9546 3.04446 36.4867 3.44293 36.107C3.87477 35.6989 4.48808 35.3947 5.16708 35.3947C5.84608 35.3947 6.45885 35.6989 6.89016 36.107C7.28916 36.4861 7.53416 36.9546 7.53416 37.3536L7.5347 37.3541Z" fill="#8FB545"/>
<path d="M6.89125 36.1075C6.55471 36.506 5.91556 36.7682 5.16764 36.7682C4.41971 36.7682 3.78056 36.5054 3.44348 36.1075C3.87533 35.6994 4.48864 35.3951 5.16764 35.3951C5.84664 35.3951 6.4594 35.6994 6.89071 36.1075H6.89125Z" fill="#81AA40"/>
<path d="M6.99463 35.4539C6.99463 36.0963 6.17617 36.6169 5.16763 36.6169C4.15801 36.6169 3.34009 36.0963 3.34009 35.4539C3.34009 35.127 3.55224 34.7409 3.89363 34.4405C4.22209 34.1508 4.67224 33.9408 5.16763 33.9408C5.66301 33.9408 6.11209 34.1508 6.44109 34.4405C6.78247 34.7409 6.99463 35.127 6.99463 35.4539Z" fill="#8FB545"/>
<path d="M6.44108 34.4405C6.17615 34.7221 5.70931 34.9057 5.16762 34.9057C4.62592 34.9057 4.158 34.7226 3.89362 34.4405C4.22208 34.1508 4.67223 33.9408 5.16762 33.9408C5.663 33.9408 6.11208 34.1508 6.44108 34.4405Z" fill="#81AA40"/>
<path d="M6.52455 33.8907C6.52455 34.3678 5.91717 34.7544 5.16763 34.7544C4.41809 34.7544 3.80963 34.3678 3.80963 33.8902C3.80963 33.4126 5.16709 31.4849 5.16709 31.4849C5.16709 31.4849 6.52455 33.4136 6.52455 33.8907Z" fill="#8FB545"/>
<path d="M11.6739 36.6154C12.0675 36.8415 12.0723 37.212 11.6792 37.4408C11.2851 37.6697 10.6432 37.6697 10.2502 37.4424C9.85385 37.2136 9.8517 36.8421 10.2453 36.6132C10.6389 36.3844 11.2781 36.386 11.6744 36.6148L11.6739 36.6154Z" fill="#9FC14C"/>
<path d="M11.34 34.8815L11.3346 36.8916C11.3346 36.9471 11.2975 37.0025 11.2253 37.0445C11.0788 37.1296 10.8414 37.1296 10.6938 37.0445C10.6201 37.0015 10.5829 36.9455 10.5829 36.8895L10.5888 34.8794C10.5888 34.9354 10.6255 34.9914 10.6998 35.0345C10.8468 35.1195 11.0848 35.1195 11.2307 35.0345C11.3034 34.9925 11.34 34.937 11.34 34.8815Z" fill="#875744"/>
<path d="M11.2291 34.7264C11.3766 34.8114 11.3772 34.9493 11.2307 35.0344C11.0848 35.1194 10.8468 35.1194 10.6998 35.0344C10.5528 34.9493 10.5517 34.8114 10.6982 34.7264C10.8441 34.6418 11.0821 34.6418 11.2291 34.7264Z" fill="#89633E"/>
<path d="M13.2564 34.0845C13.2564 34.917 12.1956 35.5922 10.8893 35.5922C9.58302 35.5922 8.52225 34.917 8.52225 34.0845C8.52225 33.6855 8.76671 33.2176 9.16517 32.838C9.59702 32.4298 10.2103 32.1256 10.8893 32.1256C11.5683 32.1256 12.1811 32.4298 12.6124 32.838C13.0114 33.2171 13.2564 33.6855 13.2564 34.0845Z" fill="#8FB545"/>
<path d="M12.6129 32.838C12.2764 33.2365 11.6372 33.4987 10.8893 33.4987C10.1414 33.4987 9.50224 33.2359 9.16516 32.838C9.59701 32.4298 10.2103 32.1256 10.8893 32.1256C11.5683 32.1256 12.1816 32.4298 12.6129 32.838Z" fill="#81AA40"/>
<path d="M12.7163 32.1843C12.7163 32.8267 11.8978 33.3474 10.8893 33.3474C9.87969 33.3474 9.06177 32.8267 9.06177 32.1843C9.06177 31.8575 9.27392 31.4714 9.61531 31.171C9.94377 30.8813 10.3939 30.6713 10.8893 30.6713C11.3847 30.6713 11.8338 30.8813 12.1628 31.171C12.5042 31.4714 12.7163 31.8575 12.7163 32.1843Z" fill="#8FB545"/>
<path d="M12.1628 31.1715C11.8979 31.4526 11.431 31.6362 10.8888 31.6362C10.3466 31.6362 9.87971 31.4531 9.61533 31.171C9.94379 30.8813 10.3939 30.6713 10.8893 30.6713C11.3847 30.6713 11.8338 30.8818 12.1628 31.1715Z" fill="#81AA40"/>
<path d="M12.2462 30.6206C12.2462 31.0983 11.6388 31.4849 10.8893 31.4849C10.1398 31.4849 9.53131 31.0983 9.53131 30.6206C9.53131 30.143 10.8888 28.2153 10.8888 28.2153C10.8888 28.2153 12.2462 30.1436 12.2462 30.6206Z" fill="#8FB545"/>
<path d="M34.9515 57.597C35.3446 57.8242 35.3495 58.1947 34.9559 58.423C34.5622 58.6519 33.9204 58.6519 33.5268 58.4246C33.131 58.1958 33.1283 57.8242 33.5225 57.5954C33.9155 57.3665 34.5547 57.3682 34.951 57.597H34.9515Z" fill="#9FC14C"/>
<path d="M34.6166 55.8637L34.6112 57.8738C34.6112 57.9293 34.5746 57.9847 34.5019 58.0267C34.356 58.1118 34.118 58.1118 33.971 58.0267C33.8967 57.9837 33.8601 57.9277 33.8601 57.8717L33.8655 55.8616C33.8655 55.9176 33.9026 55.9741 33.9764 56.0167C34.1239 56.1017 34.3614 56.1017 34.5078 56.0167C34.5805 55.9741 34.6161 55.9192 34.6166 55.8637Z" fill="#875744"/>
<path d="M34.5062 55.7092C34.6532 55.7937 34.6538 55.9316 34.5078 56.0161C34.3614 56.1017 34.1239 56.1017 33.9764 56.0161C33.8294 55.9316 33.8288 55.7937 33.9748 55.7092C34.1212 55.6241 34.3592 55.6241 34.5062 55.7092Z" fill="#89633E"/>
<path d="M36.533 55.0668C36.533 55.8993 35.4728 56.5745 34.1659 56.5745C32.8591 56.5745 31.7989 55.8993 31.7989 55.0668C31.7989 54.6678 32.0433 54.1999 32.4423 53.8203C32.8742 53.4121 33.4869 53.1079 34.1659 53.1079C34.8449 53.1079 35.4582 53.4121 35.8896 53.8203C36.288 54.1994 36.533 54.6678 36.533 55.0668Z" fill="#8FB545"/>
<path d="M35.8896 53.8203C35.553 54.2188 34.9144 54.481 34.1665 54.481C33.4186 54.481 32.7789 54.2182 32.4423 53.8203C32.8742 53.4121 33.4869 53.1079 34.1659 53.1079C34.8449 53.1079 35.4582 53.4121 35.8896 53.8203Z" fill="#81AA40"/>
<path d="M35.9929 53.1665C35.9929 53.8089 35.1745 54.3296 34.1659 54.3296C33.1563 54.3296 32.3389 53.8089 32.3389 53.1665C32.3389 52.8397 32.5511 52.4536 32.8919 52.1531C33.2204 51.8634 33.6705 51.6534 34.1659 51.6534C34.6613 51.6534 35.1104 51.8634 35.4399 52.1531C35.7808 52.4536 35.9929 52.8397 35.9929 53.1665Z" fill="#8FB545"/>
<path d="M35.4399 52.1531C35.1745 52.4348 34.7076 52.6184 34.1659 52.6184C33.6242 52.6184 33.1563 52.4353 32.8919 52.1531C33.2204 51.8634 33.6706 51.6534 34.1659 51.6534C34.6613 51.6534 35.1104 51.8634 35.4399 52.1531Z" fill="#81AA40"/>
<path d="M35.5234 51.6029C35.5234 52.0806 34.9155 52.4672 34.1659 52.4672C33.4164 52.4672 32.8085 52.0806 32.8085 51.6029C32.8085 51.1253 34.1654 49.1976 34.1654 49.1976C34.1654 49.1976 35.5234 51.1259 35.5234 51.6029Z" fill="#8FB545"/>
<path d="M40.6727 54.3275C41.0658 54.5547 41.0711 54.9252 40.6775 55.1535C40.2839 55.3823 39.6421 55.3823 39.2485 55.1551C38.8527 54.9268 38.85 54.5547 39.2441 54.3259C39.6372 54.097 40.2764 54.0986 40.6727 54.3275Z" fill="#9FC14C"/>
<path d="M40.3389 52.5942L40.3329 54.6043C40.3329 54.6597 40.2963 54.7152 40.2236 54.7572C40.0777 54.8423 39.8397 54.8423 39.6927 54.7572C39.6184 54.7141 39.5818 54.6581 39.5818 54.6021L39.5872 52.592C39.5872 52.648 39.6243 52.704 39.6981 52.7471C39.8456 52.8322 40.0831 52.8322 40.2296 52.7471C40.3022 52.7046 40.3383 52.6497 40.3389 52.5942Z" fill="#875744"/>
<path d="M40.2279 52.4397C40.3749 52.5242 40.3755 52.662 40.2295 52.7466C40.0831 52.8322 39.8456 52.8322 39.6981 52.7466C39.5511 52.662 39.5506 52.5242 39.6965 52.4397C39.8424 52.3546 40.0809 52.3546 40.2279 52.4397Z" fill="#89633E"/>
<path d="M42.2547 51.7973C42.2547 52.6298 41.1945 53.305 39.8876 53.305C38.5808 53.305 37.5205 52.6298 37.5205 51.7973C37.5205 51.3983 37.765 50.9304 38.164 50.5508C38.5958 50.1426 39.2086 49.8384 39.8876 49.8384C40.5666 49.8384 41.1799 50.1426 41.6112 50.5508C42.0097 50.9298 42.2547 51.3983 42.2547 51.7973Z" fill="#8FB545"/>
<path d="M41.6112 50.5508C41.2747 50.9492 40.6361 51.2115 39.8876 51.2115C39.1392 51.2115 38.5005 50.9487 38.164 50.5508C38.5958 50.1426 39.2086 49.8384 39.8876 49.8384C40.5666 49.8384 41.1799 50.1426 41.6112 50.5508Z" fill="#81AA40"/>
<path d="M41.7146 49.897C41.7146 50.5394 40.8961 51.0601 39.8876 51.0601C38.878 51.0601 38.0606 50.5394 38.0606 49.897C38.0606 49.5701 38.2728 49.1841 38.6136 48.8836C38.9421 48.5939 39.3922 48.3839 39.8876 48.3839C40.383 48.3839 40.8321 48.5939 41.1616 48.8836C41.5025 49.1841 41.7146 49.5701 41.7146 49.897Z" fill="#8FB545"/>
<path d="M41.1616 48.8836C40.8962 49.1652 40.4293 49.3488 39.8876 49.3488C39.3459 49.3488 38.878 49.1658 38.6136 48.8836C38.9421 48.5939 39.3922 48.3839 39.8876 48.3839C40.383 48.3839 40.8321 48.5939 41.1616 48.8836Z" fill="#81AA40"/>
<path d="M41.2451 48.3338C41.2451 48.8109 40.6372 49.1975 39.8876 49.1975C39.1381 49.1975 38.5302 48.8109 38.5302 48.3333C38.5302 47.8557 39.8871 45.928 39.8871 45.928C39.8871 45.928 41.2451 47.8567 41.2451 48.3338Z" fill="#8FB545"/>
<path d="M60.0675 42.8141C60.4606 43.0413 60.466 43.4118 60.0719 43.6401C59.6788 43.8689 59.0364 43.8689 58.6433 43.6417C58.247 43.4134 58.2449 43.0413 58.6385 42.8125C59.0321 42.5836 59.6712 42.5858 60.0675 42.8141Z" fill="#9FC14C"/>
<path d="M59.7332 41.0808L59.7278 43.0908C59.7278 43.1463 59.6912 43.2018 59.6185 43.2438C59.472 43.3288 59.2345 43.3288 59.087 43.2438C59.0132 43.2007 58.9761 43.1447 58.9761 43.0887L58.982 41.0786C58.982 41.1346 59.0192 41.1912 59.0929 41.2337C59.2405 41.3188 59.4779 41.3188 59.6238 41.2337C59.6965 41.1917 59.7332 41.1362 59.7332 41.0808Z" fill="#875744"/>
<path d="M59.6223 40.9262C59.7698 41.0113 59.7703 41.1486 59.6239 41.2337C59.4779 41.3188 59.2399 41.3188 59.0929 41.2337C58.9459 41.1486 58.9449 41.0113 59.0913 40.9262C59.2373 40.8412 59.4753 40.8412 59.6223 40.9262Z" fill="#89633E"/>
<path d="M61.6496 40.2844C61.6496 41.1163 60.5888 41.7916 59.2825 41.7916C57.9751 41.7916 56.9154 41.1163 56.9154 40.2839C56.9154 39.8849 57.1599 39.4169 57.5583 39.0373C57.9902 38.6292 58.6035 38.325 59.2825 38.325C59.9615 38.325 60.5743 38.6292 61.0061 39.0373C61.4046 39.4164 61.6496 39.8849 61.6496 40.2844Z" fill="#8FB545"/>
<path d="M61.0061 39.0379C60.669 39.4358 60.0304 39.6986 59.2825 39.6986C58.5346 39.6986 57.8954 39.4358 57.5583 39.0379C57.9902 38.6286 58.6035 38.325 59.2825 38.325C59.9609 38.325 60.5748 38.6292 61.0061 39.0379Z" fill="#81AA40"/>
<path d="M61.11 38.3837C61.11 39.0261 60.2915 39.5473 59.2825 39.5473C58.2728 39.5473 57.4549 39.0261 57.4549 38.3842C57.4549 38.0568 57.6671 37.6708 58.0085 37.3703C58.3369 37.0806 58.7871 36.8706 59.2825 36.8706C59.7778 36.8706 60.2269 37.0806 60.5559 37.3703C60.8973 37.6708 61.11 38.0568 61.11 38.3837Z" fill="#8FB545"/>
<path d="M60.5559 37.3703C60.291 37.6519 59.8242 37.8355 59.2825 37.8355C58.7408 37.8355 58.2729 37.6525 58.0085 37.3703C58.3369 37.0806 58.7871 36.8706 59.2825 36.8706C59.7779 36.8706 60.2269 37.0806 60.5559 37.3703Z" fill="#81AA40"/>
<path d="M60.6399 36.82C60.6399 37.2976 60.0315 37.6842 59.2819 37.6842C58.5324 37.6842 57.925 37.2976 57.925 36.82C57.925 36.3424 59.2819 34.4147 59.2819 34.4147C59.2819 34.4147 60.6399 36.3429 60.6399 36.82Z" fill="#8FB545"/>
<path d="M65.7892 39.5446C66.1823 39.7718 66.1877 40.1423 65.7935 40.3706C65.4005 40.5994 64.7581 40.5994 64.365 40.3722C63.9687 40.1439 63.9665 39.7718 64.3601 39.5429C64.7538 39.3141 65.3929 39.3163 65.7892 39.5446Z" fill="#9FC14C"/>
<path d="M65.4554 37.8112L65.4489 39.8213C65.4489 39.8768 65.4128 39.9322 65.3402 39.9742C65.1937 40.0593 64.9562 40.0593 64.8087 39.9742C64.7349 39.9312 64.6978 39.8752 64.6983 39.8192L64.7037 37.8091C64.7037 37.8651 64.7408 37.9216 64.8146 37.9642C64.9622 38.0492 65.1996 38.0492 65.3455 37.9642C65.4182 37.9222 65.4554 37.8667 65.4554 37.8112Z" fill="#875744"/>
<path d="M65.3439 37.6567C65.4915 37.7418 65.492 37.8791 65.3455 37.9642C65.1996 38.0492 64.9622 38.0492 64.8146 37.9642C64.6676 37.8791 64.6665 37.7418 64.813 37.6567C64.9589 37.5716 65.1969 37.5716 65.3439 37.6567Z" fill="#89633E"/>
<path d="M67.3712 37.0149C67.3712 37.8468 66.3105 38.522 65.0042 38.522C63.6979 38.522 62.6371 37.8468 62.6371 37.0143C62.6371 36.6153 62.8815 36.1474 63.28 35.7683C63.7119 35.3591 64.3252 35.0554 65.0042 35.0554C65.6832 35.0554 66.2959 35.3597 66.7272 35.7683C67.1262 36.1469 67.3712 36.6153 67.3712 37.0149Z" fill="#8FB545"/>
<path d="M66.7278 35.7683C66.3907 36.1657 65.7521 36.4285 65.0042 36.4285C64.2562 36.4285 63.6171 36.1663 63.28 35.7683C63.7118 35.3591 64.3252 35.0554 65.0042 35.0554C65.6832 35.0554 66.2965 35.3597 66.7278 35.7683Z" fill="#81AA40"/>
<path d="M66.8312 35.1142C66.8312 35.7565 66.0127 36.2778 65.0042 36.2778C63.9946 36.2778 63.1766 35.7565 63.1766 35.1147C63.1766 34.7873 63.3888 34.4012 63.7302 34.1008C64.0586 33.8111 64.5088 33.6011 65.0042 33.6011C65.4996 33.6011 65.9486 33.8111 66.2776 34.1008C66.619 34.4012 66.8312 34.7873 66.8312 35.1142Z" fill="#8FB545"/>
<path d="M66.2776 34.1008C66.0127 34.3824 65.5459 34.566 65.0042 34.566C64.4625 34.566 63.9945 34.3829 63.7302 34.1008C64.0586 33.8111 64.5088 33.6011 65.0042 33.6011C65.4995 33.6011 65.9486 33.8111 66.2776 34.1008Z" fill="#81AA40"/>
<path d="M66.3611 33.5509C66.3611 34.028 65.7537 34.4152 65.0042 34.4152C64.2546 34.4152 63.6462 34.028 63.6462 33.5509C63.6462 33.0739 65.0036 31.1456 65.0036 31.1456C65.0036 31.1456 66.3611 33.0733 66.3611 33.5509Z" fill="#8FB545"/>
<path d="M23.135 21.0575L23.1242 23.5016L21.3699 22.4893L21.3807 20.0447L23.135 21.0575Z" fill="#5388CA"/>
<path d="M21.3699 22.4888L21.7005 22.2971L23.4543 23.3094L23.1237 23.5017L21.3699 22.4888Z" fill="black"/>
<path d="M21.3812 20.0453L21.7113 19.853L21.7005 22.2971L21.3699 22.4888L21.3812 20.0453Z" fill="#EBEBEB"/>
<path d="M21.0468 19.4664L23.4651 20.8627L23.4522 24.0773L21.0334 22.6805L21.0468 19.4664ZM23.1237 23.5017L23.1345 21.0576L21.3812 20.0453L21.3699 22.4888L23.1237 23.5017Z" fill="#4C525D"/>
<path d="M27.7652 23.7401L27.7545 26.1842L26.0002 25.1714L26.0109 22.7273L27.7652 23.7401Z" fill="#5388CA"/>
<path d="M26.0002 25.1715L26.3308 24.9792L28.0845 25.9916L27.7539 26.1838L26.0002 25.1715Z" fill="black"/>
<path d="M26.0115 22.7273L26.3415 22.5356L26.3308 24.9792L26.0002 25.1714L26.0115 22.7273Z" fill="#EBEBEB"/>
<path d="M25.6771 22.149L28.0953 23.5453L28.0824 26.7594L25.6642 25.3631L25.6771 22.149ZM27.7545 26.1843L27.7652 23.7397L26.0115 22.7274L26.0007 25.1714L27.7545 26.1843Z" fill="#4C525D"/>
<path d="M38.8947 30.5786L38.8839 33.0222L37.1296 32.0099L37.1404 29.5658L38.8947 30.5786Z" fill="#5388CA"/>
<path d="M37.1296 32.0099L37.4602 31.8176L39.214 32.8299L38.8834 33.0222L37.1296 32.0099Z" fill="black"/>
<path d="M37.1409 29.5658L37.471 29.3741L37.4602 31.8177L37.1296 32.0099L37.1409 29.5658Z" fill="#EBEBEB"/>
<path d="M36.8066 28.9875L39.2248 30.3832L39.2119 33.5979L36.7931 32.2016L36.8066 28.9875ZM38.8834 33.0222L38.8942 30.5787L37.1409 29.5664L37.1302 32.0099L38.8834 33.0222Z" fill="#4C525D"/>
<path d="M43.5249 33.2608L43.5142 35.7048L41.7599 34.6925L41.7706 32.2479L43.5249 33.2608Z" fill="#5388CA"/>
<path d="M41.7599 34.6919L42.0905 34.5002L43.8442 35.5126L43.5142 35.7048L41.7599 34.6919Z" fill="black"/>
<path d="M41.7712 32.2484L42.1012 32.0562L42.0905 34.5002L41.7599 34.6919L41.7712 32.2484Z" fill="#EBEBEB"/>
<path d="M41.4368 31.6696L43.8556 33.0658L43.8421 36.2804L41.4239 34.8836L41.4368 31.6696ZM43.5142 35.7048L43.5249 33.2607L41.7712 32.2484L41.7604 34.6919L43.5142 35.7048Z" fill="#4C525D"/>
<path d="M34.8778 8.16785L34.86 12.0636L32.6841 15.1102L32.7018 9.43215L34.8778 8.16785Z" fill="#CCCCCC"/>
<path d="M32.7018 9.43219L32.6841 15.1103L28.4464 12.6635L28.4642 6.98596L32.7018 9.43219Z" fill="#DADADA"/>
<path d="M34.8778 8.16784L32.7019 9.43215L28.4642 6.98592L30.6401 5.72107L34.8778 8.16784Z" fill="#EBEBEB"/>
<path d="M34.8778 7.3031V7.68702L32.7008 8.95187V8.56741L34.8778 7.3031Z" fill="#555B66"/>
<path d="M32.7008 8.56745V8.95191L28.4642 6.50514V6.12122L32.7008 8.56745Z" fill="#5F656F"/>
<path d="M34.8778 7.30314L32.7008 8.56691L28.4642 6.12068L30.646 4.85583L34.8778 7.30314Z" fill="#75808E"/>
<path d="M31.9227 5.84009L34.8778 6.86263L32.7008 8.12747L31.9227 5.84009Z" fill="#4C525D"/>
<path d="M31.9227 5.84017L32.7008 8.12756L28.4642 5.68079L31.9227 5.84017Z" fill="#555B66"/>
<path d="M34.8778 6.86266L30.646 4.41589L31.9221 5.84012L34.8778 6.86266Z" fill="#555B66"/>
<path d="M28.4642 5.68079L30.646 4.41541L31.9222 5.83964L28.4642 5.68079Z" fill="#5F656F"/>
</svg>
