<svg width="71" height="70" viewBox="0 0 71 70" fill="none" xmlns="http://www.w3.org/2000/svg">
<path d="M59.6385 70.0001H14.9833L10.1558 31.3794H64.4661L59.6385 70.0001Z" fill="#3EA7FF"/>
<path d="M50.5575 51.8965C50.7243 52.3203 50.9362 52.7249 51.1896 53.1034V69.9999H39.1206V53.1034C39.8357 52.0313 40.2174 50.7714 40.2174 49.4827C40.2174 48.194 39.8357 46.9341 39.1206 45.862L41.5344 41.0344H48.7758L51.1896 45.862C50.9362 46.2405 50.7243 46.6451 50.5575 47.0689C49.9379 48.6185 49.9379 50.3469 50.5575 51.8965Z" fill="#A0CC00"/>
<path d="M42.7412 36.2068H47.5688V41.0344H42.7412V36.2068Z" fill="#FFF1D8"/>
<path d="M51.1886 45.8622C50.9353 46.2406 50.7234 46.6453 50.5565 47.0691H43.9473V44.6553H50.5852L51.1886 45.8622ZM51.1886 53.1035V54.3104H43.9473V51.8967H50.5565C50.7234 52.3204 50.9353 52.7251 51.1886 53.1035Z" fill="#85B200"/>
<path d="M6.53516 26.5518H68.0869V31.3793H6.53516V26.5518Z" fill="#87C9FF"/>
<path d="M47.5679 26.5518L52.3955 18.1035L59.6368 20.5173V26.5518H47.5679Z" fill="#FF6F35"/>
<path d="M58.6079 5.13989L63.7799 7.20972C65.1736 7.76743 66.3681 8.72989 67.2096 9.97295C68.0511 11.216 68.5008 12.6827 68.5008 14.1838V14.8286C68.5008 15.0391 68.4458 15.2459 68.3411 15.4286C68.2365 15.6112 68.0858 15.7633 67.9042 15.8698C67.7226 15.9762 67.5163 16.0333 67.3058 16.0354C67.0953 16.0375 66.8879 15.9844 66.7042 15.8816L62.0515 13.2759L58.6079 5.13989Z" fill="#E05E1D"/>
<path d="M52.397 18.1035L54.8108 13.2759L60.8452 15.6897L59.6384 20.5173L52.397 18.1035Z" fill="#EB352F"/>
<path d="M54.8099 13.2758L53.603 8.44819L54.8099 3.62061L59.7433 5.59388C61.1372 6.15147 62.3321 7.11394 63.1737 8.35714C64.0154 9.60034 64.4653 11.0672 64.4652 12.5685C64.4652 12.779 64.4102 12.9859 64.3055 13.1685C64.2009 13.3511 64.0503 13.5032 63.8687 13.6097C63.6871 13.7161 63.4808 13.7732 63.2703 13.7753C63.0598 13.7774 62.8524 13.7244 62.6688 13.6216L62.0513 13.2758L60.8444 15.6896L54.8099 13.2758Z" fill="#FF6F35"/>
<path d="M53.604 8.44817L48.7764 6.03437L49.9833 1.20679L54.8109 3.62058L53.604 8.44817Z" fill="#E6E6E6"/>
<path d="M45.8338 22.9309C45.8293 23.0395 45.8277 23.1497 45.8277 23.2583C45.8278 24.3777 46.0087 25.4898 46.3633 26.5516H34.2943C35.074 24.2137 34.9991 21.6751 34.0831 19.3872C33.7884 18.6479 33.7167 17.8384 33.8767 17.0588C34.0368 16.2792 34.4216 15.5635 34.9838 15.0001L37.915 12.0688H42.7426L45.6739 15.0001C46.2365 15.5632 46.6216 16.2789 46.7817 17.0586C46.9418 17.8384 46.8697 18.6479 46.5745 19.3872C46.4271 19.7564 46.3007 20.1336 46.1959 20.5171C45.9802 21.3046 45.8587 22.1148 45.8338 22.9309Z" fill="#EB352F"/>
<path d="M46.1951 20.5173C45.9794 21.3048 45.8579 22.115 45.833 22.9311H39.6235V20.5173H46.1951Z" fill="#C7161F"/>
<path d="M37.9146 7.24146H42.7421V12.069H37.9146V7.24146Z" fill="#F2E368"/>
<path d="M31.8788 26.5518H22.2236V13.2759L28.2581 7.24146L31.8788 26.5518Z" fill="#65DCFF"/>
<path d="M13.7764 13.2759H22.2246V26.5517H13.7764V13.2759Z" fill="#57C1FF"/>
<path d="M28.2591 7.24146H17.3971L13.7764 13.2759H22.2246L28.2591 7.24146Z" fill="#A0EAFF"/>
<path d="M23.431 22.9311L27.0517 26.5518H31.8793L28.683 22.0771C27.8051 20.8481 26.6466 19.8463 25.3037 19.1552C23.9607 18.4641 22.4722 18.1035 20.9619 18.1035C18.6635 18.1035 16.4432 18.9377 14.7135 20.4512C10.1665 24.4298 6.89348 29.6607 5.30375 35.4896L0.5 53.1035C1.5912 54.5585 3.06115 55.6856 4.74936 56.362C6.43758 57.0384 8.27917 57.238 10.0731 56.939L11.3621 56.7242V53.1035L13.0529 34.5036C13.2715 32.0989 14.1362 29.7981 15.5554 27.8446C16.9746 25.8911 18.8955 24.3576 21.1148 23.4065C21.8468 23.0928 22.6347 22.9311 23.431 22.9311ZM35.5 57.9311H57.2241V70.0001H35.5V57.9311Z" fill="#F2E368"/>
<path d="M57.2241 57.9312H70.5V70.0001H57.2241V57.9312Z" fill="#EACF4D"/>
<path d="M40.3275 63.9658C40.9941 63.9658 41.5344 63.4254 41.5344 62.7589C41.5344 62.0923 40.9941 61.552 40.3275 61.552C39.661 61.552 39.1206 62.0923 39.1206 62.7589C39.1206 63.4254 39.661 63.9658 40.3275 63.9658Z" fill="#EACF4D"/>
<path d="M45.1542 66.3796C45.8207 66.3796 46.3611 65.8393 46.3611 65.1727C46.3611 64.5062 45.8207 63.9658 45.1542 63.9658C44.4876 63.9658 43.9473 64.5062 43.9473 65.1727C43.9473 65.8393 44.4876 66.3796 45.1542 66.3796Z" fill="#EACF4D"/>
<path d="M52.3954 66.3796C53.0619 66.3796 53.6023 65.8393 53.6023 65.1727C53.6023 64.5062 53.0619 63.9658 52.3954 63.9658C51.7288 63.9658 51.1885 64.5062 51.1885 65.1727C51.1885 65.8393 51.7288 66.3796 52.3954 66.3796Z" fill="#EACF4D"/>
<path d="M65.6717 63.9656C66.3383 63.9656 66.8786 63.4252 66.8786 62.7587C66.8786 62.0921 66.3383 61.5518 65.6717 61.5518C65.0052 61.5518 64.4648 62.0921 64.4648 62.7587C64.4648 63.4252 65.0052 63.9656 65.6717 63.9656Z" fill="#E0B82F"/>
<path d="M62.0511 66.3794C62.7177 66.3794 63.258 65.839 63.258 65.1725C63.258 64.5059 62.7177 63.9656 62.0511 63.9656C61.3846 63.9656 60.8442 64.5059 60.8442 65.1725C60.8442 65.839 61.3846 66.3794 62.0511 66.3794Z" fill="#E0B82F"/>
<path d="M48.7748 63.9656C49.4413 63.9656 49.9817 63.4252 49.9817 62.7587C49.9817 62.0921 49.4413 61.5518 48.7748 61.5518C48.1082 61.5518 47.5679 62.0921 47.5679 62.7587C47.5679 63.4252 48.1082 63.9656 48.7748 63.9656Z" fill="#EACF4D"/>
<path d="M27.0515 26.5518C26.1492 26.5518 25.2575 26.745 24.4361 27.1183C23.6147 27.4916 22.8828 28.0364 22.2895 28.7161C21.6962 29.3958 21.2552 30.1946 20.9963 31.0589C20.7374 31.9232 20.6665 32.8329 20.7884 33.7268L23.4308 53.1036C21.6079 52.0099 19.5221 51.4321 17.3963 51.4321C15.2705 51.4321 13.1847 52.0099 11.3618 53.1036L13.0575 34.414C13.2732 32.0371 14.1276 29.7628 15.5302 27.8318C16.9328 25.9008 18.8315 24.385 21.0251 23.4448L21.122 23.4034C21.8394 23.0927 22.6128 22.932 23.3946 22.9312H23.4308C23.802 22.9312 24.1676 23.0229 24.4949 23.198C24.8222 23.3732 25.1013 23.6265 25.3072 23.9354L27.0515 26.5518Z" fill="#EACF4D"/>
<path d="M17.3965 7.24138C18.7893 8.28593 20.4832 8.85059 22.2241 8.85059C23.965 8.85059 25.659 8.28593 27.0517 7.24138L25.8448 0H18.6034L17.3965 7.24138Z" fill="#3EA7FF"/>
</svg>
