<svg width="70" height="70" viewBox="0 0 70 70" fill="none" xmlns="http://www.w3.org/2000/svg">
<path d="M63.665 38.2316V64.0984C63.665 67.3578 61.0006 70 57.7139 70C54.4272 70 51.7628 67.3578 51.7628 64.0984V52.5495V55.2098C51.7628 58.4692 49.0985 61.1115 45.8117 61.1115C42.525 61.1115 39.8607 58.4692 39.8607 55.2098V33.689" fill="#FBA615"/>
<path d="M21.8227 47.7778C22.707 48.6547 24.1407 48.6547 25.0248 47.7778L34.9633 37.9218C35.8476 37.0449 35.8476 35.6231 34.9633 34.7463L15.4559 15.4009C14.0604 14.017 14.0604 11.7654 15.4559 10.3813L19.4229 6.4473C20.8183 5.06342 23.089 5.06328 24.4845 6.4473L43.992 25.7927C44.8762 26.6697 46.3099 26.6697 47.194 25.7927C48.0783 24.9158 48.0783 23.494 47.194 22.6172L27.6866 3.27182C24.5254 0.136933 19.3819 0.136933 16.2208 3.27182L12.2536 7.20586C9.0925 10.3407 9.0925 15.4415 12.2536 18.5764L30.1601 36.3341L21.8227 44.6022C20.9384 45.4791 20.9384 46.9009 21.8227 47.7778Z" fill="#756E78"/>
<path d="M22.3359 15.7191C32.5321 26.6326 43.1443 37.1566 54.1492 47.2681C55.6374 48.6354 57.8809 48.7909 59.5519 47.6502C63.3749 45.0407 66.6021 41.8404 69.2334 38.0492C70.3837 36.3919 70.2268 34.167 68.8481 32.6913C58.6519 21.7778 48.0397 11.2539 37.0348 1.14236C35.5468 -0.224934 33.3031 -0.380477 31.6321 0.760222C27.8091 3.36972 24.5819 6.57008 21.9506 10.3613C20.8003 12.0184 20.9572 14.2433 22.3359 15.7191Z" fill="#FBA615"/>
<path d="M24.6245 6.94434C23.6683 8.03212 22.7755 9.17331 21.9508 10.3623C20.8003 12.0199 20.9571 14.2439 22.3361 15.7194C32.5321 26.633 43.1441 37.1569 54.1491 47.2681C55.637 48.6357 57.8807 48.7924 59.5521 47.6512C60.751 46.8333 61.9018 45.948 62.9987 44.9997C61.7318 45.1214 60.4328 44.7182 59.4476 43.8131C47.8148 33.126 36.5977 22.0021 25.8211 10.4659C24.9074 9.48793 24.5019 8.20069 24.6245 6.94434Z" fill="#FC840D"/>
<path d="M32.2959 53.5823L29.639 56.2186C28.5499 55.9479 27.4236 55.8557 26.3046 55.9455C23.856 56.1398 21.5573 57.1925 19.8202 58.9148L10.5046 68.1531C8.80206 69.8415 6.04284 69.8415 4.34031 68.1531L2.80788 66.6334L1.2769 65.1137C-0.425633 63.4267 -0.425633 60.689 1.2769 59.0006L10.5911 49.7638C12.5299 47.8398 13.6192 45.2313 13.6199 42.5113C13.6199 41.6835 13.519 40.8501 13.3114 40.0266L15.9683 37.3904L24.1321 45.4864L32.2959 53.5823Z" fill="#FB9369"/>
<path d="M2.15631 65.9859L1.27679 65.1137C-0.425597 63.4254 -0.425597 60.688 1.27679 58.9998L10.5917 49.7622C11.8542 48.5104 12.7682 46.9556 13.2448 45.2494C13.7214 43.5432 13.7444 41.7437 13.3114 40.026L15.9692 37.3904L20.6538 42.0361L17.9961 44.6718C17.6129 46.9125 15.808 49.8414 13.2398 52.3883L3.92487 61.6258C2.22248 63.3142 1.43047 65.2661 2.15631 65.9859Z" fill="#F06B37"/>
<path d="M29.6405 56.2176C28.5515 55.9469 27.4251 55.8547 26.3061 55.9445L13.5883 43.3324C13.6784 42.2226 13.5854 41.1057 13.3129 40.0256L29.6405 56.2176Z" fill="#F06B37"/>
</svg>
