<svg width="70" height="70" viewBox="0 0 70 70" fill="none" xmlns="http://www.w3.org/2000/svg">
<path d="M8.89682 19.4537C6.64848 19.4537 4.81987 21.2828 4.81987 23.5311V27.2477H3.49753C3.22558 27.2477 2.96477 27.3557 2.77247 27.548C2.58017 27.7403 2.47214 28.0011 2.47214 28.2731C2.47214 28.545 2.58017 28.8058 2.77247 28.9981C2.96477 29.1904 3.22558 29.2985 3.49753 29.2985H4.81987V31.7508C4.81987 32.3175 5.27856 32.7762 5.84526 32.7762C6.11721 32.7762 6.37802 32.6681 6.57032 32.4758C6.76262 32.2835 6.87065 32.0227 6.87065 31.7508V23.5312C6.87065 22.4138 7.77956 21.5044 8.89682 21.5044C10.0141 21.5044 10.923 22.4134 10.923 23.5311V27.1029C10.923 27.6696 11.3818 28.1283 11.9484 28.1283C12.2203 28.1283 12.4812 28.0202 12.6734 27.828C12.8657 27.6357 12.9738 27.3748 12.9738 27.1029V23.5311C12.9738 21.2828 11.1448 19.4537 8.89682 19.4537Z" fill="#596E99"/>
<path d="M35 32.303C34.728 32.303 34.4672 32.195 34.2749 32.0027C34.0826 31.8104 33.9746 31.5495 33.9746 31.2776V29.0241C33.9746 28.458 34.4333 27.9987 35 27.9987C35.5667 27.9987 36.0254 28.458 36.0254 29.0241V31.2777C36.0254 31.5497 35.9173 31.8105 35.725 32.0028C35.5328 32.1951 35.2719 32.3031 35 32.3031V32.303ZM45.7047 32.7762C45.57 32.7762 45.4366 32.7497 45.3122 32.6982C45.1878 32.6467 45.0747 32.5712 44.9795 32.476C44.8842 32.3807 44.8087 32.2677 44.7572 32.1432C44.7057 32.0188 44.6792 31.8855 44.6793 31.7508V30.2821C44.6793 30.154 44.5745 30.0493 44.4464 30.0493H42.6669C42.395 30.0493 42.1341 29.9413 41.9418 29.749C41.7495 29.5567 41.6415 29.2959 41.6415 29.0239C41.6415 28.752 41.7495 28.4912 41.9418 28.2989C42.1341 28.1066 42.395 27.9985 42.6669 27.9985H44.4464C45.7056 27.9985 46.73 29.0228 46.73 30.2821V31.7508C46.73 32.0227 46.622 32.2835 46.4297 32.4758C46.2374 32.6681 45.9766 32.7762 45.7047 32.7762ZM24.2953 32.7762C24.0234 32.7762 23.7626 32.6681 23.5703 32.4758C23.378 32.2835 23.2699 32.0227 23.2699 31.7508V30.2821C23.2699 29.023 24.2942 27.9985 25.5535 27.9985H27.3331C27.605 27.9985 27.8658 28.1066 28.0581 28.2989C28.2504 28.4912 28.3585 28.752 28.3585 29.0239C28.3585 29.2959 28.2504 29.5567 28.0581 29.749C27.8658 29.9413 27.605 30.0493 27.3331 30.0493H25.5535C25.4254 30.0493 25.3207 30.1535 25.3207 30.2821V31.7508C25.3207 32.3175 24.862 32.7762 24.2953 32.7762Z" fill="#3A4D7B"/>
<path d="M0 31.7507H70V35.6814H0V31.7507Z" fill="#D68376"/>
<path d="M66.2215 31.7507H70V35.6814H66.2215V31.7507Z" fill="#A65D51"/>
<path d="M0 35.6814V65.3516C0 66.1296 0.630684 66.7604 1.4082 66.7604H68.5918C69.3693 66.7604 70 66.1296 70 65.3516V35.6814H0Z" fill="#AABFD5"/>
<path d="M49.7886 45.3009H70V65.3515C70 66.1296 69.3693 66.7597 68.5918 66.7597H49.7885L49.7886 45.3009Z" fill="#FED89B"/>
<path d="M66.2215 35.6814V65.3516C66.2215 66.1296 65.5908 66.7598 64.8133 66.7598H68.5917C69.3693 66.7598 70 66.1296 70 65.3516V35.6814H66.2215Z" fill="#E2B074"/>
<path d="M0 45.3009H20.2114V66.7597H1.40834C0.630684 66.7597 0 66.1295 0 65.3515V45.3009Z" fill="#FED89B"/>
<path d="M20.2114 45.3009H49.7886V66.7597H20.2114V45.3009Z" fill="#CAE5ED"/>
<path d="M49.7886 35.6814H70V45.3009H49.7886V35.6814Z" fill="#F0F2DC"/>
<path d="M66.2215 35.6814H70V45.3009H66.2215V35.6814Z" fill="#CCC5A9"/>
<path d="M0 35.6814H20.2114V45.3009H0V35.6814Z" fill="#F0F2DC"/>
<path d="M30.2545 40.3519C30.2545 41.3014 29.4848 42.071 28.5353 42.071C27.5862 42.071 26.8167 41.3012 26.8167 40.3519C26.8167 39.4028 27.5862 38.6333 28.5353 38.6333C29.4848 38.6333 30.2545 39.4028 30.2545 40.3519ZM43.1833 40.3519C43.1833 41.3014 42.4139 42.071 41.4648 42.071C40.5152 42.071 39.7457 41.3012 39.7457 40.3519C39.7457 39.4028 40.5152 38.6333 41.4648 38.6333C42.4139 38.6333 43.1833 39.4028 43.1833 40.3519Z" fill="#596E99"/>
<path d="M65.5743 21.6528V18.7188C65.5743 18.6263 65.5562 18.5347 65.5208 18.4492C65.4855 18.3638 65.4337 18.2861 65.3683 18.2207C65.3029 18.1552 65.2253 18.1033 65.1398 18.0679C65.0544 18.0325 64.9628 18.0143 64.8703 18.0143H63.7243C63.6318 18.0143 63.5402 18.0325 63.4547 18.0679C63.3693 18.1033 63.2916 18.1551 63.2262 18.2205C63.1608 18.286 63.1089 18.3636 63.0734 18.4491C63.038 18.5345 63.0198 18.6261 63.0198 18.7187V21.6528L62.0389 22.8869C61.4653 23.6079 61.153 24.5019 61.1529 25.4232V31.7507H67.4413V25.4233C67.4415 24.5021 67.1294 23.608 66.5559 22.8869L65.5743 21.6528Z" fill="#8FC264"/>
<path d="M55.949 24.3291V21.3948C55.949 21.3023 55.9308 21.2107 55.8955 21.1252C55.8601 21.0397 55.8082 20.962 55.7427 20.8966C55.6773 20.8312 55.5996 20.7793 55.5141 20.7439C55.4286 20.7086 55.337 20.6904 55.2445 20.6904H54.0989C54.0064 20.6904 53.9148 20.7086 53.8293 20.744C53.7439 20.7794 53.6662 20.8312 53.6008 20.8967C53.5354 20.9621 53.4835 21.0397 53.4481 21.1252C53.4127 21.2107 53.3945 21.3023 53.3946 21.3948V24.3289L52.4129 25.5632C51.8397 26.2843 51.5277 27.1782 51.5275 28.0994V31.7513H57.816V28.0995C57.8159 27.1783 57.5038 26.2843 56.9305 25.5632L55.949 24.3291Z" fill="#FFE266"/>
<path d="M39.7455 3.59898V0H30.2545V3.59898C30.2545 3.72654 30.2199 3.85172 30.1543 3.96112C30.0887 4.07052 29.9946 4.16003 29.8821 4.2201L20.2114 9.38984V12.6759C20.2113 12.7683 20.2295 12.8599 20.2649 12.9454C20.3002 13.0308 20.352 13.1085 20.4174 13.1739C20.4827 13.2393 20.5604 13.2912 20.6458 13.3266C20.7312 13.362 20.8228 13.3802 20.9152 13.3803H49.0848C49.1772 13.3802 49.2688 13.362 49.3542 13.3266C49.4396 13.2912 49.5172 13.2393 49.5826 13.1739C49.648 13.1085 49.6998 13.0308 49.7351 12.9454C49.7705 12.8599 49.7886 12.7683 49.7886 12.6759V9.38984L40.1179 4.2201C40.0054 4.16002 39.9113 4.07049 39.8458 3.96109C39.7802 3.85169 39.7456 3.72653 39.7456 3.59898H39.7455Z" fill="#AABFD5"/>
<path d="M40.1179 4.2201C40.0054 4.16002 39.9114 4.07049 39.8458 3.96109C39.7802 3.85169 39.7456 3.72653 39.7457 3.59898V0H35.0272V3.59898C35.0272 3.7266 35.0618 3.85182 35.1275 3.96124C35.1932 4.07065 35.2874 4.16014 35.4001 4.2201L45.0702 9.38984V12.6759C45.0702 12.7683 45.0521 12.8599 45.0167 12.9454C44.9814 13.0308 44.9295 13.1085 44.8642 13.1739C44.7988 13.2393 44.7212 13.2912 44.6358 13.3266C44.5504 13.362 44.4588 13.3802 44.3663 13.3803H49.0848C49.1772 13.3802 49.2688 13.362 49.3542 13.3266C49.4396 13.2912 49.5173 13.2393 49.5826 13.1739C49.648 13.1085 49.6998 13.0308 49.7352 12.9454C49.7705 12.8599 49.7887 12.7683 49.7886 12.6759V9.38984L40.1179 4.2201Z" fill="#7D8EB0"/>
<path d="M20.9152 13.3803H49.0848C49.1772 13.3803 49.2688 13.362 49.3542 13.3266C49.4396 13.2912 49.5172 13.2393 49.5826 13.1739C49.648 13.1085 49.6998 13.0309 49.7351 12.9454C49.7705 12.86 49.7886 12.7684 49.7886 12.6759V9.38989H20.2114V12.6759C20.2113 12.7684 20.2295 12.86 20.2649 12.9454C20.3002 13.0309 20.352 13.1085 20.4174 13.1739C20.4827 13.2393 20.5604 13.2912 20.6458 13.3266C20.7312 13.362 20.8228 13.3803 20.9152 13.3803Z" fill="#596E99"/>
<path d="M45.0702 12.6759C45.0702 12.7684 45.0521 12.86 45.0167 12.9454C44.9814 13.0309 44.9295 13.1085 44.8642 13.1739C44.7988 13.2393 44.7212 13.2912 44.6358 13.3266C44.5504 13.362 44.4588 13.3803 44.3663 13.3803C48.9997 13.3035 49.1824 13.5464 49.5644 13.1892C49.7026 13.0598 49.7886 12.866 49.7886 12.6759V9.38989H45.0702V12.6759Z" fill="#3A4D7B"/>
<path d="M62.465 40.4906H57.3241C57.0522 40.4906 56.7913 40.3826 56.599 40.1903C56.4067 39.998 56.2987 39.7372 56.2987 39.4652C56.2987 38.8986 56.7575 38.4398 57.3241 38.4398H62.465C62.737 38.4398 62.9978 38.5478 63.1901 38.7401C63.3824 38.9324 63.4904 39.1933 63.4904 39.4652C63.4904 39.7372 63.3824 39.998 63.1901 40.1903C62.9978 40.3826 62.737 40.4906 62.465 40.4906ZM12.6759 40.4906H7.53497C7.26302 40.4906 7.00221 40.3826 6.80991 40.1903C6.61761 39.998 6.50958 39.7372 6.50958 39.4652C6.50958 39.1933 6.61761 38.9324 6.80991 38.7401C7.00221 38.5478 7.26302 38.4398 7.53497 38.4398H12.6759C13.2424 38.4398 13.7013 38.8986 13.7013 39.4652C13.7013 39.7372 13.5932 39.998 13.4009 40.1903C13.2086 40.3826 12.9478 40.4906 12.6759 40.4906ZM53.2391 58.3965C52.6731 58.3965 52.2137 57.9371 52.2137 57.3711V52.9401C52.2137 52.6681 52.3217 52.4073 52.514 52.215C52.7063 52.0227 52.9671 51.9147 53.2391 51.9147C53.511 51.9147 53.7719 52.0227 53.9641 52.215C54.1564 52.4073 54.2645 52.6681 54.2645 52.9401V57.3711C54.2645 57.6431 54.1564 57.9039 53.9641 58.0962C53.7719 58.2885 53.511 58.3965 53.2391 58.3965ZM16.7609 58.3965C16.4889 58.3965 16.2281 58.2885 16.0358 58.0962C15.8435 57.9039 15.7355 57.6431 15.7355 57.3711V52.9401C15.7355 52.6681 15.8435 52.4073 16.0358 52.215C16.2281 52.0227 16.4889 51.9147 16.7609 51.9147C17.0328 51.9147 17.2937 52.0227 17.486 52.215C17.6782 52.4073 17.7863 52.6681 17.7863 52.9401V57.3711C17.7863 57.9371 17.3269 58.3965 16.7609 58.3965Z" fill="#A65D51"/>
<path d="M24.1549 62.1574V49.904C24.1549 49.8115 24.173 49.7198 24.2084 49.6343C24.2438 49.5488 24.2957 49.4712 24.3611 49.4057C24.4265 49.3403 24.5042 49.2884 24.5897 49.253C24.6751 49.2176 24.7668 49.1994 24.8593 49.1995H45.1407C45.2332 49.1994 45.3248 49.2176 45.4103 49.253C45.4958 49.2884 45.5735 49.3403 45.6389 49.4057C45.7043 49.4712 45.7562 49.5488 45.7916 49.6343C45.8269 49.7198 45.8451 49.8115 45.8451 49.904V62.1574C45.8451 62.3442 45.7709 62.5234 45.6388 62.6555C45.5067 62.7876 45.3275 62.8618 45.1407 62.8618H24.8593C24.6725 62.8617 24.4934 62.7874 24.3613 62.6553C24.2293 62.5233 24.155 62.3442 24.1549 62.1574Z" fill="#56A6E8"/>
<path d="M45.1407 63.8866H24.8593C23.9055 63.8866 23.1295 63.1111 23.1295 62.1574V49.904C23.1295 48.9501 23.9055 48.1741 24.8593 48.1741H45.1407C46.0944 48.1741 46.8705 48.9501 46.8705 49.904V62.1574C46.8705 63.1111 46.0944 63.8866 45.1407 63.8866ZM25.1803 61.8358H44.8197V50.225H25.1803V61.8358Z" fill="#596E99"/>
</svg>
