<svg width="70" height="64" viewBox="0 0 70 64" fill="none" xmlns="http://www.w3.org/2000/svg">
<g clip-path="url(#clip0_37_2561)">
<path d="M63.1715 53.4669L61.2052 47.1035H8.79598L6.82956 53.4669C6.4894 54.5662 7.28934 55.6883 8.41358 55.6883C8.74443 55.6882 9.06774 55.5868 9.34213 55.3971C9.61652 55.2074 9.82951 54.938 9.95385 54.6233L11.4048 50.9483H58.5963L60.0473 54.6233C60.1716 54.938 60.3846 55.2075 60.659 55.3972C60.9334 55.5869 61.2567 55.6883 61.5876 55.6883C62.7117 55.6883 63.5118 54.5662 63.1716 53.4669H63.1715Z" fill="#F9AA4B"/>
<path d="M9.94197 47.1035H8.79654L8.16162 49.1577H61.8408L61.2058 47.1035H9.94197Z" fill="#C1762B"/>
<path d="M5.74534 24.667L5.04684 41.1841H64.9532L64.2541 24.667C64.0149 19.0073 59.4743 14.5454 53.9547 14.5454H16.0452C10.5252 14.5454 5.98514 19.0073 5.74534 24.667Z" fill="#2176C7"/>
<path d="M64.2548 24.667C64.0155 19.0073 59.475 14.5454 53.9554 14.5454H49.3726C54.892 14.5454 59.4326 19.0073 59.6719 24.667L60.3709 41.1841H64.9537L64.2548 24.667Z" fill="#165E9E"/>
<path d="M24.6028 33.9024C20.6832 32.9 16.7637 32.9 12.8443 33.9024C11.4323 34.2637 10.4443 35.5714 10.4443 37.065V39.406H27.0022V37.065C27.0022 35.5714 26.0147 34.2632 24.6028 33.9024ZM41.1601 33.9024C37.2407 32.9 33.3212 32.9 29.4018 33.9024C27.9897 34.2637 27.0022 35.5714 27.0022 37.065V39.406H43.5602V37.065C43.5602 35.5714 42.5721 34.2632 41.1601 33.9024Z" fill="#7DCDF9"/>
<path d="M57.7173 33.9024C53.7979 32.9 49.8784 32.9 45.959 33.9024C44.547 34.2637 43.5596 35.5714 43.5596 37.065V39.406H60.1169V37.065C60.1169 35.5714 59.1294 34.2632 57.7175 33.9024H57.7173Z" fill="#7DCDF9"/>
<path d="M63.091 26.9633L60.708 35.3507C60.025 37.7535 57.8786 39.4061 55.4396 39.4061H14.5601C12.121 39.4061 9.9747 37.7535 9.29165 35.3507L6.90851 26.9633C6.37188 25.0756 4.46425 23.9734 2.61376 24.4821C0.762178 24.9907 -0.353447 26.9245 0.101553 28.8351L2.62073 39.4061L3.50394 43.1166C4.08144 45.5413 6.19894 47.2475 8.63157 47.2475H61.369C63.8013 47.2475 65.9182 45.5424 66.496 43.1177L67.381 39.4061L69.8985 28.8351C70.3535 26.9245 69.2373 24.9907 67.3863 24.4821C65.5351 23.9734 63.6276 25.0756 63.0909 26.9633H63.091Z" fill="#56A6E8"/>
<path d="M67.3857 24.4824H67.3852C66.3453 24.1969 65.2873 24.4194 64.4648 25.0048C65.6297 25.8346 66.2337 27.3418 65.8785 28.8353L63.361 39.4063L62.4761 43.1181C61.8982 45.5428 59.7807 47.2478 57.3486 47.2478H61.3684C63.8007 47.2478 65.9176 45.5428 66.4954 43.1181L67.3804 39.4064L69.8979 28.8354C70.3529 26.9248 69.2367 24.9911 67.3857 24.4824Z" fill="#2176C7"/>
<path d="M20.1244 22.0636H19.7413V21.6707C19.7413 21.3916 19.6332 21.124 19.4409 20.9266C19.2486 20.7293 18.9878 20.6184 18.7159 20.6184C18.4439 20.6184 18.1831 20.7293 17.9908 20.9266C17.7985 21.124 17.6905 21.3916 17.6905 21.6707V22.0636H17.3071C17.1725 22.0636 17.0391 22.0908 16.9147 22.1437C16.7903 22.1966 16.6773 22.2741 16.5821 22.3718C16.4869 22.4695 16.4113 22.5856 16.3598 22.7132C16.3083 22.8409 16.2817 22.9777 16.2817 23.1159C16.2817 23.2541 16.3083 23.391 16.3598 23.5186C16.4113 23.6463 16.4869 23.7623 16.5821 23.86C16.6773 23.9578 16.7903 24.0353 16.9147 24.0882C17.0391 24.141 17.1725 24.1683 17.3071 24.1683H17.6905V24.5618C17.6905 24.8409 17.7985 25.1086 17.9908 25.3059C18.1831 25.5033 18.4439 25.6142 18.7159 25.6142C18.9878 25.6142 19.2486 25.5033 19.4409 25.3059C19.6332 25.1086 19.7413 24.8409 19.7413 24.5618V24.1683H20.1242C20.2589 24.1683 20.3922 24.141 20.5166 24.0882C20.641 24.0353 20.7541 23.9578 20.8493 23.86C20.9445 23.7623 21.02 23.6463 21.0716 23.5186C21.1231 23.391 21.1496 23.2541 21.1496 23.1159C21.1496 22.9777 21.1231 22.8409 21.0716 22.7132C21.02 22.5856 20.9445 22.4695 20.8493 22.3718C20.7541 22.2741 20.641 22.1966 20.5166 22.1437C20.3922 22.0908 20.259 22.0636 20.1244 22.0636ZM30.9801 22.0636H30.5966V21.6707C30.5966 21.3916 30.4886 21.124 30.2963 20.9266C30.104 20.7293 29.8432 20.6184 29.5712 20.6184C29.2993 20.6184 29.0384 20.7293 28.8461 20.9266C28.6539 21.124 28.5458 21.3916 28.5458 21.6707V22.0636H28.163C27.5967 22.0636 27.1376 22.5351 27.1376 23.1159C27.1376 23.395 27.2456 23.6627 27.4379 23.86C27.6302 24.0574 27.8911 24.1683 28.163 24.1683H28.5458V24.5618C28.5458 24.8409 28.6539 25.1086 28.8461 25.3059C29.0384 25.5033 29.2993 25.6142 29.5712 25.6142C29.8432 25.6142 30.104 25.5033 30.2963 25.3059C30.4886 25.1086 30.5966 24.8409 30.5966 24.5618V24.1683H30.9801C31.1148 24.1683 31.2481 24.141 31.3725 24.0882C31.4969 24.0353 31.6099 23.9578 31.7052 23.86C31.8004 23.7623 31.8759 23.6463 31.9274 23.5186C31.979 23.391 32.0055 23.2541 32.0055 23.1159C32.0055 22.9777 31.979 22.8409 31.9274 22.7132C31.8759 22.5856 31.8004 22.4695 31.7052 22.3718C31.6099 22.2741 31.4969 22.1966 31.3725 22.1437C31.2481 22.0908 31.1148 22.0636 30.9801 22.0636ZM41.8358 22.0636H41.4523V21.6707C41.4523 21.3916 41.3443 21.124 41.152 20.9266C40.9597 20.7293 40.6989 20.6184 40.427 20.6184C40.155 20.6184 39.8942 20.7293 39.7019 20.9266C39.5096 21.124 39.4016 21.3916 39.4016 21.6707V22.0636H39.0187C38.8841 22.0636 38.7508 22.0908 38.6264 22.1437C38.5019 22.1966 38.3889 22.2741 38.2937 22.3718C38.1985 22.4695 38.1229 22.5856 38.0714 22.7132C38.0199 22.8409 37.9934 22.9777 37.9934 23.1159C37.9934 23.2541 38.0199 23.391 38.0714 23.5186C38.1229 23.6463 38.1985 23.7623 38.2937 23.86C38.3889 23.9578 38.5019 24.0353 38.6264 24.0882C38.7508 24.141 38.8841 24.1683 39.0187 24.1683H39.4016V24.5618C39.4016 24.8409 39.5096 25.1086 39.7019 25.3059C39.8942 25.5033 40.155 25.6142 40.427 25.6142C40.6989 25.6142 40.9597 25.5033 41.152 25.3059C41.3443 25.1086 41.4523 24.8409 41.4523 24.5618V24.1683H41.8358C41.9705 24.1683 42.1038 24.141 42.2282 24.0882C42.3526 24.0353 42.4657 23.9578 42.5609 23.86C42.6561 23.7623 42.7316 23.6463 42.7832 23.5186C42.8347 23.391 42.8612 23.2541 42.8612 23.1159C42.8612 22.9777 42.8347 22.8409 42.7832 22.7132C42.7316 22.5856 42.6561 22.4695 42.5609 22.3718C42.4657 22.2741 42.3526 22.1966 42.2282 22.1437C42.1038 22.0908 41.9705 22.0636 41.8358 22.0636ZM52.6916 22.0636H52.3082V21.6707C52.3082 21.3916 52.2002 21.124 52.0079 20.9266C51.8156 20.7293 51.5548 20.6184 51.2828 20.6184C51.0109 20.6184 50.7501 20.7293 50.5578 20.9266C50.3655 21.124 50.2574 21.3916 50.2574 21.6707V22.0636H49.8744C49.7397 22.0636 49.6064 22.0908 49.482 22.1437C49.3575 22.1966 49.2445 22.2741 49.1493 22.3718C49.0541 22.4695 48.9785 22.5856 48.927 22.7132C48.8755 22.8409 48.849 22.9777 48.849 23.1159C48.849 23.2541 48.8755 23.391 48.927 23.5186C48.9785 23.6463 49.0541 23.7623 49.1493 23.86C49.2445 23.9578 49.3575 24.0353 49.482 24.0882C49.6064 24.141 49.7397 24.1683 49.8744 24.1683H50.2572V24.5618C50.2572 24.8409 50.3652 25.1086 50.5575 25.3059C50.7498 25.5033 51.0106 25.6142 51.2826 25.6142C51.5545 25.6142 51.8153 25.5033 52.0076 25.3059C52.1999 25.1086 52.3079 24.8409 52.3079 24.5618V24.1683H52.6914C52.8261 24.1683 52.9594 24.141 53.0838 24.0882C53.2083 24.0353 53.3213 23.9578 53.4165 23.86C53.5117 23.7623 53.5873 23.6463 53.6388 23.5186C53.6903 23.391 53.7168 23.2541 53.7168 23.1159C53.7168 22.9777 53.6903 22.8409 53.6388 22.7132C53.5873 22.5856 53.5117 22.4695 53.4165 22.3718C53.3213 22.2741 53.2083 22.1966 53.0838 22.1437C52.9594 22.0908 52.8261 22.0636 52.6914 22.0636H52.6916Z" fill="#165E9E"/>
</g>
<defs>
<clipPath id="clip0_37_2561">
<rect width="70" height="64" fill="white"/>
</clipPath>
</defs>
</svg>
