<svg width="70" height="70" viewBox="0 0 70 70" fill="none" xmlns="http://www.w3.org/2000/svg">
<path d="M68.871 63.2246H1.12903C0.508065 63.2246 0 63.7328 0 64.3538V68.8707C0 69.4917 0.508065 69.9999 1.12903 69.9999H68.871C69.4919 69.9999 70 69.4917 70 68.8707V64.3538C70 63.7328 69.4919 63.2246 68.871 63.2246Z" fill="#5D5B68"/>
<path d="M3.86129 67.5608C3.24032 67.5608 2.73226 67.0526 2.73226 66.4316V63.2246H1.12903C0.508065 63.2246 0 63.7328 0 64.3538V68.8707C0 69.4917 0.508065 69.9999 1.12903 69.9999H68.871C69.4919 69.9999 70 69.4917 70 68.8707V67.5608H3.86129Z" fill="black" fill-opacity="0.082"/>
<path d="M64.0385 0H5.96106C5.3401 0 4.83203 0.508146 4.83203 1.12921V63.2247H65.1562V1.12921C65.1675 0.508146 64.6595 0 64.0385 0Z" fill="#E6E9EE"/>
<path d="M10.4746 5.64648H32.7391V57.5791H10.4746V5.64648ZM37.2553 5.64648H59.5198V57.5791H37.2553V5.64648Z" fill="#009AFF"/>
<path d="M27.2208 36.3496C26.5999 36.3496 26.0918 35.8415 26.0918 35.2204V26.8868C26.0918 26.2657 26.5999 25.7576 27.2208 25.7576C27.8418 25.7576 28.3499 26.2657 28.3499 26.8868V35.2204C28.3499 35.8415 27.8418 36.3496 27.2208 36.3496ZM42.7789 36.3496C42.1579 36.3496 41.6499 35.8415 41.6499 35.2204V26.8868C41.6499 26.2657 42.1579 25.7576 42.7789 25.7576C43.3999 25.7576 43.9079 26.2657 43.9079 26.8868V35.2204C43.9079 35.8415 43.3999 36.3496 42.7789 36.3496Z" fill="black"/>
<g opacity="0.25">
<path d="M15.7901 14.477L19.3014 10.9652C19.5125 10.754 19.6311 10.4677 19.6311 10.1691C19.6311 9.87047 19.5125 9.5841 19.3014 9.37297C19.0903 9.16183 18.804 9.04321 18.5055 9.04321C18.2069 9.04321 17.9206 9.16183 17.7095 9.37297L14.1982 12.8848C14.0407 13.0425 13.9335 13.2435 13.8904 13.4622C13.8473 13.6809 13.8701 13.9075 13.956 14.1133C14.0419 14.319 14.187 14.4945 14.3728 14.6176C14.5587 14.7407 14.7769 14.8057 14.9998 14.8045C15.2934 14.8045 15.5756 14.7029 15.7901 14.477ZM23.5014 9.93757C23.397 9.83289 23.2729 9.74984 23.1363 9.69318C22.9997 9.63651 22.8533 9.60734 22.7055 9.60734C22.5576 9.60734 22.4112 9.63651 22.2746 9.69318C22.138 9.74984 22.0139 9.83289 21.9095 9.93757L14.7627 17.0855C14.6052 17.2432 14.498 17.4442 14.4549 17.6629C14.4118 17.8816 14.4346 18.1082 14.5205 18.3139C14.6064 18.5196 14.7515 18.6952 14.9374 18.8183C15.1232 18.9413 15.3414 19.0064 15.5643 19.0052C15.8579 19.0052 16.1401 18.8922 16.3659 18.6777L23.5127 11.5298C23.9418 11.0894 23.9418 10.378 23.5014 9.93757Z" fill="black"/>
</g>
<g opacity="0.25">
<path d="M42.5753 14.477L46.0866 10.9652C46.2977 10.754 46.4163 10.4677 46.4163 10.1691C46.4163 9.87047 46.2977 9.5841 46.0866 9.37297C45.8755 9.16183 45.5892 9.04321 45.2906 9.04321C44.9921 9.04321 44.7058 9.16183 44.4947 9.37297L40.9834 12.8848C40.8258 13.0425 40.7187 13.2435 40.6755 13.4622C40.6324 13.6809 40.6553 13.9075 40.7412 14.1133C40.8271 14.319 40.9722 14.4945 41.158 14.6176C41.3439 14.7407 41.5621 14.8057 41.785 14.8045C42.0785 14.8045 42.3608 14.7029 42.5753 14.477ZM50.2866 9.93757C50.1821 9.83289 50.0581 9.74984 49.9215 9.69318C49.7849 9.63651 49.6385 9.60734 49.4906 9.60734C49.3428 9.60734 49.1963 9.63651 49.0598 9.69318C48.9232 9.74984 48.7991 9.83289 48.6947 9.93757L41.5479 17.0855C41.3903 17.2432 41.2832 17.4442 41.2401 17.6629C41.1969 17.8816 41.2198 18.1082 41.3057 18.3139C41.3916 18.5196 41.5367 18.6952 41.7225 18.8183C41.9084 18.9413 42.1266 19.0064 42.3495 19.0052C42.643 19.0052 42.9253 18.8922 43.1511 18.6777L50.2979 11.5298C50.7269 11.0894 50.7269 10.378 50.2866 9.93757Z" fill="black"/>
</g>
<path d="M65.1699 59.8371C33.7264 59.8371 8.2328 34.3394 8.2328 2.89079V0H5.97474C5.35377 0 4.8457 0.508146 4.8457 1.12921V63.2247H65.1699V59.8371Z" fill="black" fill-opacity="0.063"/>
<path opacity="0.5" d="M64.0375 0H37.0762C37.0762 2.49556 39.0971 4.51686 41.5923 4.51686H60.6504V40.471C60.6504 42.9666 62.6713 44.9879 65.1665 44.9879V1.12921C65.1665 0.508146 64.6584 0 64.0375 0Z" fill="black"/>
</svg>
