<svg width="70" height="70" viewBox="0 0 70 70" fill="none" xmlns="http://www.w3.org/2000/svg">
<g clip-path="url(#clip0_37_2605)">
<path d="M3.17524 0H47.7242V66.3599H3.17524V0Z" fill="#64798A"/>
<path d="M8.17696 5.1333H13.8954V14.5926H8.17696V5.1333ZM17.7856 5.1333H23.5041V14.5926H17.7856V5.1333ZM27.3952 5.1333H33.1136V14.5926H27.3952V5.1333ZM37.0067 5.1333H42.7252V14.5926H37.0067V5.1333ZM8.17696 20.076H13.8954V29.5353H8.17696V20.076ZM17.7856 20.076H23.5041V29.5353H17.7856V20.076Z" fill="#44C4A1"/>
<path d="M27.3952 20.0759H33.1137V29.5353H27.3952V20.0759ZM37.0067 20.0759H42.7252V29.5353H37.0067V20.0759Z" fill="#27A2DB"/>
<path d="M33.1134 44.4723H27.3949L33.1134 35.0127V44.4723ZM42.7223 44.4723H37.004L42.7223 35.0127V44.4723Z" fill="#2D93BA"/>
<path d="M8.17696 49.952H13.8954V59.4114H8.17696V49.952ZM17.7856 49.952H23.5041V59.4114H17.7856V49.952Z" fill="#44C4A1"/>
<path d="M27.3952 49.952H33.1137V59.4114H27.3952V49.952ZM37.0067 49.952H42.7252V59.4114H37.0067V49.952Z" fill="#27A2DB"/>
<path d="M13.8953 14.5933H8.17696L13.8953 5.13367V14.5933ZM23.5044 14.5933H17.7859L23.5044 5.13367V14.5933ZM33.1133 14.5933H27.3949L33.1133 5.13367V14.5933ZM42.7223 14.5933H37.004L42.7223 5.13367V14.5933ZM13.8953 29.5327H8.17696L13.8953 20.0732V29.5327ZM23.5044 29.5327H17.7859L23.5044 20.0732V29.5327Z" fill="#3EA69B"/>
<path d="M33.1134 29.5327H27.3949L33.1134 20.0732V29.5327ZM42.7223 29.5327H37.004L42.7223 20.0732V29.5327Z" fill="#2D93BA"/>
<path d="M8.17696 35.0094H13.8954V44.4687H8.17696V35.0094ZM17.7856 35.0094H23.5041V44.4687H17.7856V35.0094Z" fill="#44C4A1"/>
<path d="M27.3952 35.0094H33.1137V44.4687H27.3952V35.0094ZM37.0067 35.0094H42.7252V44.4687H37.0067V35.0094Z" fill="#27A2DB"/>
<path d="M13.8953 59.4116H8.17696L13.8953 49.9521V59.4116ZM23.5044 59.4116H17.7859L23.5044 49.9521V59.4116Z" fill="#3EA69B"/>
<path d="M33.1134 59.4116H27.3949L33.1134 49.9521V59.4116ZM42.7223 59.4116H37.004L42.7223 49.9521V59.4116Z" fill="#2D93BA"/>
<path d="M27.3952 19.9761H65.5965V66.3636H27.3952V19.9761Z" fill="#D5D6DB"/>
<path d="M40.1333 53.6321H52.8669V66.3637H40.1333V53.6321Z" fill="#64798A"/>
<path d="M38.5345 51.4891H54.4572V53.633H38.5345V51.4891Z" fill="#3A556A"/>
<path d="M30.5759 24.3048H35.8455V33.4963H30.5759V24.3048ZM39.4333 24.3048H44.7029V33.4963H39.4333V24.3048ZM48.2907 24.3048H53.5603V33.4963H48.2907V24.3048ZM57.1433 24.3048H62.4129V33.4963H57.1433V24.3048Z" fill="#27A2DB"/>
<path d="M35.8481 33.4964H30.5783L35.8481 24.3048V33.4964ZM44.7031 33.4964H39.4333L44.7031 24.3048V33.4964ZM53.5579 33.4964H48.2883L53.5579 24.3048V33.4964ZM62.4129 33.4964H57.1433L62.4129 24.3048V33.4964Z" fill="#2D93BA"/>
<path d="M30.5759 37.968H35.8455V47.1595H30.5759V37.968ZM39.4333 37.968H44.7029V47.1595H39.4333V37.968ZM48.2907 37.968H53.5603V47.1595H48.2907V37.968ZM57.1433 37.968H62.4129V47.1595H57.1433V37.968ZM57.1433 51.4891H62.4129V60.6806H57.1433V51.4891ZM30.5759 51.4891H35.8455V60.6806H30.5759V51.4891Z" fill="#27A2DB"/>
<path d="M35.8481 47.1602H30.5783L35.8481 37.9686V47.1602ZM44.7031 47.1602H39.4333L44.7031 37.9686V47.1602ZM53.5579 47.1602H48.2883L53.5579 37.9686V47.1602ZM62.4129 47.1602H57.1433L62.4129 37.9686V47.1602ZM62.4129 60.6805H57.1433L62.4129 51.489V60.6805ZM35.8481 60.6805H30.5783L35.8481 51.489V60.6805Z" fill="#2D93BA"/>
<path d="M68.1575 70H1.84248C1.59495 70 1.35758 69.9016 1.18255 69.7266C1.00752 69.5516 0.909174 69.3142 0.909134 69.0667V67.297C0.909134 67.0495 1.00747 66.8121 1.18251 66.637C1.35754 66.462 1.59494 66.3636 1.84248 66.3636H68.1575C68.4051 66.3636 68.6425 66.462 68.8175 66.637C68.9925 66.8121 69.0909 67.0495 69.0909 67.297V69.0667C69.0908 69.3142 68.9925 69.5516 68.8175 69.7266C68.6424 69.9016 68.4051 70 68.1575 70Z" fill="#3A556A"/>
<path d="M13.8953 44.4723H8.17696L13.8953 35.0127V44.4723ZM23.5044 44.4723H17.7859L23.5044 35.0127V44.4723Z" fill="#3EA69B"/>
</g>
<defs>
<clipPath id="clip0_37_2605">
<rect width="70" height="70" fill="white"/>
</clipPath>
</defs>
</svg>
