<svg width="100" height="100" viewBox="0 0 100 100" fill="none" xmlns="http://www.w3.org/2000/svg">
<g clip-path="url(#clip0_37_2285)">
<path d="M38.0955 51.7348H29.683C26.1486 51.7348 22.6515 50.558 19.8357 48.4215L8.81989 40.0627C3.69587 36.1746 1.69431 29.4881 3.83942 23.424C5.88962 17.6283 11.3978 13.6852 17.5457 13.6119C23.5529 13.5406 26.966 13.7305 27.1082 13.7387L26.732 20.3506C26.6992 20.3488 23.3785 20.1662 17.6244 20.2342C14.2416 20.2744 11.2107 22.4439 10.0828 25.6328C8.90251 28.9691 10.0037 32.648 12.823 34.7873L23.8386 43.1461C25.5095 44.4141 27.5851 45.1123 29.6826 45.1123H38.0951V51.7348H38.0955Z" fill="#FFD064"/>
<path d="M19.8359 44.9324L8.82009 36.5736C5.55427 34.0955 3.55955 30.4801 3.09568 26.6141C2.48474 31.7209 4.58377 36.8482 8.82009 40.0627L19.8359 48.4215C22.6515 50.558 26.1488 51.7348 29.6832 51.7348H38.0957V48.2457H29.6832C26.1488 48.2457 22.6515 47.0689 19.8359 44.9324Z" fill="#ECBE6B"/>
<path d="M61.9547 51.7348H70.3672C73.9015 51.7348 77.3986 50.558 80.2144 48.4215L91.2302 40.0627C96.3543 36.1746 98.3558 29.4881 96.2107 23.424C94.1605 17.6283 88.6523 13.6852 82.5045 13.6119C76.4972 13.5406 73.0841 13.7305 72.942 13.7387L73.3181 20.3506C73.3509 20.3488 76.6716 20.1662 82.4257 20.2342C85.8086 20.2744 88.8394 22.4439 89.9674 25.6328C91.1476 28.9691 90.0465 32.648 87.2271 34.7873L76.2115 43.1461C74.5406 44.4141 72.465 45.1123 70.3675 45.1123H61.955V51.7348H61.9547Z" fill="#FFD064"/>
<path d="M96.2105 23.424C95.251 20.7111 93.5334 18.4043 91.3473 16.71C92.3062 17.9437 93.0609 19.3234 93.5826 20.7963C95.7277 26.8604 93.7262 33.5469 88.6021 37.435L77.5863 45.7937C74.7707 47.9303 71.2734 49.107 67.739 49.107H61.9543V51.7348H70.3668C73.9012 51.7348 77.3982 50.558 80.214 48.4215L91.2299 40.0627C96.3541 36.1746 98.3557 29.4881 96.2105 23.424Z" fill="#ECBE6B"/>
<path d="M60.7504 75.9908L56.8328 73.0217C56.0023 72.3922 55.3288 71.579 54.8651 70.6457C54.4014 69.7124 54.1601 68.6845 54.1601 67.6424V54.4631H45.2873V67.6424C45.2873 68.6845 45.046 69.7124 44.5823 70.6457C44.1186 71.579 43.4452 72.3922 42.6146 73.0217L38.6971 75.9908C37.476 76.9162 38.1305 78.8633 39.6625 78.8633H59.7848C61.317 78.8631 61.9715 76.9162 60.7504 75.9908Z" fill="#FFD064"/>
<path d="M60.7504 75.9908L56.8328 73.0217C56.0023 72.3922 55.3288 71.579 54.8651 70.6457C54.4014 69.7124 54.1601 68.6845 54.1601 67.6424V54.4631H49.5613V67.6424C49.5613 68.6845 49.8026 69.7124 50.2663 70.6457C50.73 71.579 51.4035 72.3922 52.234 73.0217L56.1515 75.9908C57.3726 76.9162 56.7181 78.8633 55.1861 78.8633H59.7849C61.317 78.8631 61.9715 76.9162 60.7504 75.9908Z" fill="#ECBE6B"/>
<path d="M74.9092 3.97812H25.141C24.6831 3.97812 24.244 4.16 23.9203 4.48376C23.5965 4.80752 23.4146 5.24663 23.4146 5.70449V23.5258C23.4146 31.156 25.5393 38.6356 29.5506 45.1264L34.1463 52.5627C41.349 64.2176 58.2715 64.2973 65.5836 52.7105L70.2949 45.2449C74.4371 38.6811 76.6355 31.0783 76.6355 23.3168V5.70449C76.6355 5.24664 76.4536 4.80756 76.1298 4.48382C75.8061 4.16007 75.367 3.97817 74.9092 3.97812Z" fill="#FFE07D"/>
<path d="M74.9092 3.97812H66.932V13.6133C66.932 21.3749 64.7336 28.9777 60.5914 35.5416L55.8801 43.0072C50.6639 51.2728 40.5576 53.5996 32.5773 50.0242L34.1463 52.5629C41.349 64.2178 58.2715 64.2975 65.5836 52.7107L70.2949 45.2451C74.4371 38.6813 76.6355 31.0785 76.6355 23.317V5.70449C76.6355 5.24664 76.4536 4.80756 76.1298 4.48382C75.8061 4.16007 75.367 3.97817 74.9092 3.97812Z" fill="#FFD064"/>
<path d="M50.0097 89.7949C40.5625 89.7949 31.3951 86.9744 23.4986 81.6381C15.8201 76.449 9.70075 69.151 5.80232 60.533C5.72083 60.3529 5.67561 60.1586 5.66924 59.9611C5.66287 59.7635 5.69548 59.5667 5.76519 59.3818C5.83491 59.1968 5.94038 59.0275 6.07557 58.8833C6.21076 58.7391 6.37302 58.623 6.5531 58.5416C6.73313 58.4601 6.92746 58.4149 7.12497 58.4085C7.32249 58.4022 7.51932 58.4348 7.70423 58.5045C7.88914 58.5742 8.05851 58.6797 8.20265 58.8149C8.34679 58.9501 8.46289 59.1123 8.54431 59.2924C16.0994 75.9935 32.3758 86.7851 50.0097 86.7851C67.6437 86.7851 83.9197 75.9935 91.475 59.2924C91.6422 58.933 91.9444 58.6541 92.316 58.5163C92.6876 58.3784 93.0986 58.3928 93.4597 58.5561C93.8209 58.7195 94.1029 59.0188 94.2447 59.3889C94.3865 59.7591 94.3765 60.1702 94.217 60.533C90.3185 69.151 84.1992 76.4492 76.5207 81.6381C68.6242 86.9742 59.457 89.7949 50.0097 89.7949Z" fill="#0DC183"/>
<path d="M98.1678 57.0018C96.5242 60.8916 93.7221 63.4238 91.909 62.6578C90.0959 61.8918 89.9584 58.1174 91.6017 54.2275C92.7924 51.4094 96.716 46.9293 98.7877 44.6744C99.2351 44.1873 100.046 44.5299 100.008 45.1902C99.8359 48.2475 99.3584 54.1838 98.1678 57.0018Z" fill="#AAD880"/>
<path d="M98.7879 44.6746C98.091 45.4327 97.4063 46.202 96.7341 46.982C96.4617 49.9811 95.9761 53.5555 95.1304 55.5572C93.9726 58.2975 92.24 60.3621 90.6832 61.0764C90.916 61.8508 91.3252 62.4111 91.9091 62.658C93.7222 63.424 96.5244 60.8918 98.1679 57.002C99.3586 54.1838 99.8359 48.2477 100.009 45.1904C100.046 44.5299 99.2353 44.1875 98.7879 44.6746Z" fill="#80CB8E"/>
<path d="M87.159 65.65C87.2824 69.6367 85.8762 72.9152 84.018 72.9728C82.1597 73.0305 80.5531 69.8451 80.4295 65.8584C80.34 62.9701 81.9406 57.5775 82.8295 54.8252C83.0215 54.2307 83.8521 54.2049 84.0804 54.7865C85.1381 57.4785 87.0695 62.7617 87.159 65.65ZM75.9211 73.5271C77.492 77.1934 77.3801 80.7592 75.6711 81.4914C73.9621 82.2236 71.3033 79.8451 69.7324 76.1787C68.5943 73.5227 68.1152 67.9178 67.9375 65.0311C67.8992 64.4074 68.6631 64.0803 69.0881 64.5381C71.0556 66.658 74.783 70.8711 75.9211 73.5271Z" fill="#AAD880"/>
<path d="M75.9211 73.5271C74.783 70.8711 71.0556 66.658 69.0881 64.5381C68.6631 64.0801 67.8992 64.4074 67.9375 65.0311C67.9883 65.8562 68.0638 66.9039 68.1722 68.0408C70.0092 70.1693 72.0615 72.7779 72.8551 74.6299C73.9554 77.198 74.2289 79.7152 73.7074 81.2453C74.4176 81.6309 75.0978 81.7367 75.6711 81.4912C77.3801 80.7592 77.492 77.1934 75.9211 73.5271Z" fill="#80CB8E"/>
<path d="M85.9396 82.0668C82.1734 80.7537 79.6164 78.266 80.2285 76.5103C80.8406 74.7549 84.39 74.3961 88.1562 75.7094C90.8848 76.6607 95.3459 80.0873 97.5971 81.9033C98.0834 82.2955 97.8097 83.0803 97.1849 83.0851C94.2926 83.108 88.6681 83.0182 85.9396 82.0668ZM73.9775 90.2922C70.2113 88.9791 67.6543 86.4914 68.2664 84.7357C68.8785 82.9803 72.4279 82.6215 76.1941 83.9348C78.9226 84.8861 83.3838 88.3127 85.6349 90.1287C86.1213 90.5209 85.8476 91.3057 85.2228 91.3105C82.3306 91.3334 76.7062 91.2435 73.9775 90.2922Z" fill="#AAD880"/>
<path d="M97.5969 81.9033C96.682 81.1654 95.4023 80.1615 94.0222 79.1658C90.9822 79.1615 86.1264 79.0072 83.6519 78.1445C82.3486 77.69 81.1904 77.0949 80.2578 76.4381C80.248 76.4623 80.2367 76.4855 80.2281 76.5103C79.616 78.2658 82.173 80.7535 85.9392 82.0668C88.6678 83.0182 94.2924 83.108 97.1846 83.0853C97.8096 83.0805 98.0832 82.2957 97.5969 81.9033ZM85.6349 90.1289C84.7201 89.391 83.4404 88.3871 82.0603 87.3914C79.0201 87.3871 74.1644 87.2328 71.69 86.3701C70.3867 85.9156 69.2285 85.3205 68.2961 84.6637C68.2863 84.6879 68.275 84.7113 68.2664 84.7359C67.6543 86.4914 70.2113 88.9791 73.9775 90.2924C76.706 91.2437 82.3306 91.3336 85.2228 91.3107C85.8474 91.3058 86.1211 90.5211 85.6349 90.1289Z" fill="#80CB8E"/>
<path d="M1.85173 57.0018C3.49528 60.8916 6.29743 63.4238 8.11052 62.6578C9.9236 61.8918 10.0611 58.1174 8.41774 54.2275C7.22712 51.4094 3.30348 46.9293 1.2318 44.6744C0.784344 44.1873 -0.0262033 44.5299 0.0111014 45.1902C0.183562 48.2475 0.661101 54.1838 1.85173 57.0018Z" fill="#AAD880"/>
<path d="M8.41756 54.2275C7.22693 51.4094 3.3033 46.9293 1.23162 44.6744C0.784161 44.1873 -0.0263864 44.5299 0.0109183 45.1902C0.0589652 46.042 0.13084 47.1172 0.235137 48.2861C2.22459 50.5953 4.52479 53.5125 5.38826 55.556C6.52635 58.2498 6.80975 60.8873 6.27459 62.5096C6.9367 62.8189 7.56795 62.8869 8.11033 62.6578C9.92361 61.8918 10.0611 58.1174 8.41756 54.2275Z" fill="#80CB8E"/>
<path d="M12.8605 65.65C12.7371 69.6367 14.1434 72.9152 16.0016 72.9728C17.8598 73.0305 19.4664 69.8451 19.59 65.8584C19.6795 62.9701 18.0789 57.5775 17.19 54.8252C16.998 54.2307 16.1674 54.2049 15.9391 54.7865C14.8814 57.4785 12.95 62.7617 12.8605 65.65Z" fill="#AAD880"/>
<path d="M87.159 65.65C87.0695 62.7617 85.1381 57.4785 84.0806 54.7865C83.8521 54.2051 83.0214 54.2309 82.8295 54.8252C82.5094 55.8155 82.2065 56.8112 81.9207 57.8119C82.8527 60.4631 83.8093 63.6375 83.8716 65.65C83.9566 68.3935 83.3172 70.8016 82.3043 72.0555C82.8185 72.6557 83.4043 72.9918 84.0177 72.9728C85.8761 72.9154 87.2826 69.6367 87.159 65.65ZM17.19 54.8252C16.998 54.2307 16.1674 54.2051 15.9388 54.7865C15.5451 55.7883 15.1692 56.797 14.8113 57.8121C15.5873 60.5365 16.3656 63.8207 16.3025 65.8586C16.2197 68.5291 15.4711 70.8381 14.4277 72.0557C14.8865 72.6238 15.422 72.9551 16.0015 72.973C17.8597 73.0307 19.4664 69.8453 19.59 65.8586C19.6795 62.9703 18.0789 57.5775 17.19 54.8252Z" fill="#80CB8E"/>
<path d="M24.0984 73.5271C22.5275 77.1933 22.6394 80.7592 24.3484 81.4914C26.0574 82.2236 28.7162 79.8451 30.2871 76.1787C31.4252 73.5226 31.9043 67.9178 32.082 65.031C32.1203 64.4074 31.3564 64.0803 30.9314 64.5381C28.9638 66.658 25.2365 70.8711 24.0984 73.5271Z" fill="#AAD880"/>
<path d="M30.9314 64.5381C30.1749 65.3525 29.4336 66.1809 28.7078 67.0228C28.432 69.7945 27.9611 73.0133 27.1789 74.8389C26.1283 77.2906 24.5916 79.1648 23.1773 79.9195C23.3893 80.6894 23.7799 81.2476 24.3482 81.4912C26.0572 82.2234 28.716 79.8449 30.2869 76.1785C31.425 73.5224 31.9041 67.9176 32.0818 65.0308C32.1203 64.4074 31.3564 64.0801 30.9314 64.5381Z" fill="#80CB8E"/>
<path d="M14.0799 82.0668C17.8461 80.7537 20.4031 78.266 19.791 76.5103C19.1789 74.7549 15.6295 74.3961 11.8633 75.7094C9.13474 76.6607 4.67361 80.0873 2.42244 81.9033C1.9363 82.2955 2.20974 83.0803 2.83455 83.0851C5.72693 83.108 11.3513 83.0182 14.0799 82.0668ZM26.042 90.2922C29.8082 88.9791 32.3652 86.4914 31.7531 84.7357C31.141 82.9803 27.5916 82.6215 23.8254 83.9348C21.0969 84.8861 16.6357 88.3127 14.3845 90.1287C13.8984 90.5209 14.1719 91.3057 14.7967 91.3105C17.6888 91.3334 23.3133 91.2435 26.042 90.2922Z" fill="#AAD880"/>
<path d="M19.7912 76.5103C19.5406 75.7918 18.7975 75.3076 17.749 75.076C17.1709 76.6062 14.9935 78.3074 12.101 79.3158C10.2885 79.9478 7.19862 80.1994 4.48026 80.2906C3.78673 80.8183 3.10079 81.356 2.42265 81.9033C1.93632 82.2955 2.20995 83.0803 2.83476 83.0852C5.72694 83.1078 11.3514 83.018 14.0801 82.0666C17.8463 80.7537 20.4033 78.266 19.7912 76.5103ZM31.7531 84.7359C31.5025 84.0174 30.7594 83.5332 29.7109 83.3016C29.1328 84.8318 26.9555 86.533 24.0629 87.5414C22.2504 88.1734 19.1605 88.425 16.4422 88.5162C15.7486 89.0439 15.0627 89.5815 14.3846 90.1289C13.8984 90.5211 14.1719 91.3059 14.7967 91.3107C17.6889 91.3334 23.3133 91.2435 26.042 90.2924C29.8082 88.9791 32.3652 86.4914 31.7531 84.7359Z" fill="#80CB8E"/>
<path d="M49.5613 40.4375C55.7808 40.4375 60.8226 35.3956 60.8226 29.1762C60.8226 22.9567 55.7808 17.9148 49.5613 17.9148C43.3419 17.9148 38.3 22.9567 38.3 29.1762C38.3 35.3956 43.3419 40.4375 49.5613 40.4375Z" fill="#ECBE6B"/>
<path d="M53.7541 18.7246C54.2898 20.0575 54.5647 21.4809 54.5638 22.9174C54.5638 29.1369 49.522 34.1787 43.3025 34.1787C41.8201 34.1787 40.406 33.8895 39.1097 33.3689C40.773 37.5113 44.8242 40.4377 49.5613 40.4377C55.7808 40.4377 60.8226 35.3959 60.8226 29.1764C60.8228 24.4391 57.8965 20.3881 53.7541 18.7246Z" fill="#EAB14D"/>
<path d="M50.3834 24.1678L51.5625 26.5566C51.6153 26.6636 51.6933 26.7561 51.7898 26.8262C51.8863 26.8962 51.9984 26.9418 52.1164 26.959L54.7527 27.342C55.356 27.4297 55.5969 28.1711 55.1603 28.5967L53.2527 30.4562C53.1673 30.5394 53.1034 30.6422 53.0665 30.7556C53.0297 30.869 53.021 30.9897 53.0412 31.1072L53.4916 33.733C53.5947 34.3338 52.964 34.792 52.4244 34.5084L50.0664 33.2687C49.9608 33.2132 49.8434 33.1842 49.7241 33.1842C49.6048 33.1842 49.4874 33.2132 49.3818 33.2687L47.0238 34.5084C46.4842 34.792 45.8535 34.3338 45.9566 33.733L46.407 31.1072C46.4272 30.9897 46.4185 30.869 46.3817 30.7556C46.3448 30.6422 46.2809 30.5394 46.1955 30.4562L44.2879 28.5967C43.8513 28.1711 44.0922 27.4297 44.6955 27.342L47.3318 26.959C47.4498 26.9418 47.5619 26.8962 47.6584 26.8262C47.7549 26.7561 47.8329 26.6636 47.8857 26.5566L49.0648 24.1678C49.334 23.6211 50.1136 23.6211 50.3834 24.1678Z" fill="#FFE07D"/>
<path d="M55.1601 28.5969C55.5967 28.1713 55.3559 27.4299 54.7525 27.3422L53.7914 27.2025L51.2295 29.6998C51.103 29.823 51.0084 29.9752 50.9538 30.1431C50.8992 30.3111 50.8863 30.4898 50.9162 30.6639L51.4916 34.0182L52.4242 34.5084C52.9639 34.792 53.5945 34.3338 53.4914 33.733L53.041 31.1072C53.0208 30.9897 53.0295 30.869 53.0663 30.7556C53.1032 30.6422 53.1671 30.5394 53.2525 30.4562L55.1601 28.5969Z" fill="#FFD064"/>
<path d="M64.6361 96.0219H35.414C34.9707 96.0219 34.5456 95.8458 34.2321 95.5323C33.9187 95.2188 33.7426 94.7937 33.7426 94.3504V80.5348C33.7426 80.0915 33.9187 79.6663 34.2321 79.3528C34.5456 79.0394 34.9707 78.8633 35.414 78.8633H64.6361C65.0794 78.8633 65.5046 79.0394 65.818 79.3528C66.1315 79.6663 66.3076 80.0915 66.3076 80.5348V94.3504C66.3076 94.5699 66.2644 94.7873 66.1804 94.9901C66.0964 95.1929 65.9733 95.3771 65.8181 95.5324C65.6629 95.6876 65.4786 95.8107 65.2758 95.8947C65.073 95.9787 64.8556 96.0219 64.6361 96.0219Z" fill="#567FA3"/>
<path d="M64.6406 78.8631H61.4748V89.5219C61.4748 89.7408 61.4317 89.9575 61.3479 90.1598C61.2641 90.362 61.1413 90.5458 60.9865 90.7006C60.8317 90.8554 60.648 90.9782 60.4457 91.062C60.2435 91.1457 60.0267 91.1888 59.8078 91.1888H33.7426V94.3547C33.7426 94.7968 33.9182 95.2208 34.2308 95.5334C34.5434 95.846 34.9674 96.0217 35.4095 96.0217H64.6406C65.0827 96.0217 65.5067 95.846 65.8193 95.5334C66.132 95.2208 66.3076 94.7968 66.3076 94.3547V80.5301C66.3076 80.3111 66.2645 80.0944 66.1808 79.8921C66.097 79.6898 65.9742 79.5061 65.8194 79.3513C65.6646 79.1965 65.4808 79.0737 65.2786 78.9899C65.0763 78.9061 64.8595 78.863 64.6406 78.8631Z" fill="#25435F"/>
</g>
<defs>
<clipPath id="clip0_37_2285">
<rect width="100" height="100" fill="white" transform="translate(0.00973511)"/>
</clipPath>
</defs>
</svg>
