<svg width="140" height="100" viewBox="0 0 140 100" fill="none" xmlns="http://www.w3.org/2000/svg">
<path d="M87.5291 43.8102C87.2482 42.9568 87.2479 42.0374 87.5284 41.1838C87.8088 40.3303 88.3555 39.5864 89.0901 39.0589L102.647 29.3241C106.015 26.905 104.284 21.6389 100.12 21.6389H83.36C82.4523 21.6389 81.568 21.3549 80.8337 20.8277C80.0993 20.3005 79.5527 19.557 79.2721 18.7039L74.0861 2.93516C72.7985 -0.980008 67.1939 -0.977845 65.9095 2.9384L60.7394 18.7004C60.4593 19.5543 59.9127 20.2986 59.1781 20.8264C58.4435 21.3543 57.5586 21.6386 56.6504 21.6386H39.8767C35.7117 21.6386 33.9811 26.9072 37.3518 29.3252L50.9208 39.0592C51.656 39.5865 52.2032 40.3304 52.4839 41.1843C52.7647 42.0381 52.7645 42.9579 52.4835 43.8116L47.3013 59.556C46.0126 63.4704 50.5459 66.7267 53.9155 64.3074L67.4681 54.5755C68.2022 54.0484 69.0862 53.7644 69.9935 53.7642C70.9008 53.7639 71.785 54.0475 72.5193 54.5742L86.1031 64.3187C89.4727 66.7359 94.0035 63.4796 92.7156 59.566L87.5291 43.8102Z" fill="#FFD064"/>
<path d="M138.897 53.7996C140.984 52.3002 139.911 49.0369 137.331 49.0369H126.944C126.382 49.037 125.834 48.861 125.379 48.5343C124.924 48.2075 124.585 47.7468 124.411 47.2181L121.198 37.446C120.4 35.0199 116.926 35.021 116.13 37.4479L112.926 47.2159C112.753 47.7451 112.414 48.2063 111.959 48.5334C111.504 48.8606 110.955 49.0368 110.392 49.0369H99.9975C97.4165 49.0369 96.3441 52.3018 98.4326 53.8004L106.841 59.8322C107.297 60.1589 107.636 60.62 107.81 61.1491C107.984 61.6782 107.984 62.2481 107.81 62.7772L104.598 72.5344C103.8 74.9599 106.609 76.9782 108.697 75.4788L117.095 69.4481C117.55 69.1215 118.098 68.9456 118.66 68.9454C119.223 68.9453 119.77 69.121 120.226 69.4473L128.644 75.4858C130.732 76.9841 133.539 74.9659 132.741 72.5409L129.528 62.7769C129.354 62.248 129.353 61.6783 129.527 61.1494C129.701 60.6204 130.04 60.1594 130.495 59.8325L138.897 53.7996ZM40.0019 49.0369H29.6157C29.0532 49.037 28.5051 48.861 28.05 48.5343C27.5949 48.2076 27.2562 47.7468 27.0823 47.2181L23.8686 37.446C23.0707 35.0199 19.5972 35.021 18.8015 37.4479L15.5977 47.2159C15.424 47.7451 15.0853 48.2063 14.6301 48.5334C14.1749 48.8606 13.6266 49.0368 13.0637 49.0369H2.66849C0.08752 49.0369 -0.984899 52.3018 1.10388 53.8004L9.51261 59.8322C9.9682 60.1589 10.3073 60.62 10.4813 61.1491C10.6552 61.6782 10.6551 62.2481 10.4809 62.7772L7.26934 72.5344C6.4709 74.9599 9.28019 76.9782 11.3682 75.4788L19.7665 69.4481C20.2214 69.1215 20.7692 68.9456 21.3315 68.9454C21.8938 68.9453 22.4417 69.121 22.8968 69.4473L31.3146 75.4858C33.4028 76.9841 36.2104 74.9659 35.4123 72.5409L32.1983 62.7769C32.0242 62.248 32.024 61.6782 32.1978 61.1493C32.3716 60.6203 32.7105 60.1593 33.1657 59.8325L41.5668 53.7999C43.6553 52.3008 42.5823 49.0369 40.0019 49.0369Z" fill="#FFD064"/>
</svg>
