<svg width="101" height="100" viewBox="0 0 101 100" fill="none" xmlns="http://www.w3.org/2000/svg">
<path fill-rule="evenodd" clip-rule="evenodd" d="M50.4998 0C54.0008 0.00142915 57.4227 1.0409 60.333 2.98699C63.2433 4.93309 65.5112 7.6984 66.85 10.9333C68.1888 14.1682 68.5383 17.7275 67.8544 21.161C67.1705 24.5946 65.4839 27.7483 63.0078 30.2233C60.5318 32.6984 57.3774 34.3837 53.9435 35.0662C50.5097 35.7487 46.9506 35.3977 43.7162 34.0576C40.4819 32.7175 37.7175 30.4485 35.7726 27.5374C33.8277 24.6263 32.7896 21.2039 32.7896 17.7029C32.7934 13.0077 34.6607 8.50602 37.9814 5.18669C41.3021 1.86735 45.8046 0.00186182 50.4998 0ZM87.5238 80.8262V56.9572C87.5193 52.2613 85.6521 47.759 82.3318 44.4382C79.0116 41.1174 74.5095 39.2495 69.8136 39.2443H31.196C26.5001 39.2495 21.998 41.1174 18.6777 44.4382C15.3575 47.7589 13.4902 52.2613 13.4857 56.9572V80.8262C13.4849 81.2032 13.5584 81.5767 13.702 81.9253C13.8456 82.2739 14.0565 82.5907 14.3227 82.8578C14.5888 83.1248 14.905 83.3367 15.2531 83.4815C15.6013 83.6262 15.9745 83.701 16.3515 83.7014H30.3298L22.6265 76.332C22.0085 75.7399 21.5701 74.9855 21.3615 74.1554C21.1529 73.3253 21.1826 72.4533 21.4472 71.6393C21.7118 70.8254 22.2005 70.1025 22.8574 69.5538C23.5142 69.0051 24.3125 68.6527 25.1605 68.5371L39.922 66.5215L46.4089 53.1035C46.78 52.3323 47.3613 51.6816 48.0859 51.2261C48.8105 50.7707 49.6489 50.5291 50.5047 50.5291C51.3606 50.5291 52.199 50.7707 52.9236 51.2261C53.6482 51.6816 54.2294 52.3323 54.6005 53.1035L61.0783 66.5215L75.8492 68.5371C76.6957 68.6553 77.4919 69.0091 78.1469 69.5582C78.8019 70.1072 79.2894 70.8294 79.5536 71.6422C79.8179 72.455 79.8482 73.3258 79.6413 74.1551C79.4343 74.9843 78.9983 75.7387 78.3832 76.332L70.6798 83.7014H84.6488C85.0265 83.7019 85.4006 83.6279 85.7496 83.4835C86.0987 83.3392 86.4159 83.1275 86.6829 82.8604C86.95 82.5933 87.1617 82.2761 87.306 81.9271C87.4503 81.578 87.5243 81.2039 87.5238 80.8262ZM52.6564 93.7775C51.9973 93.4148 51.2572 93.2246 50.5048 93.2246C49.7525 93.2246 49.0124 93.4148 48.3533 93.7775L36.7523 100L39.0835 87.0486C39.229 86.3098 39.1834 85.546 38.9512 84.8297C38.719 84.1133 38.3078 83.4681 37.7566 82.9551L28.2566 73.8516L41.3035 72.0742C42.0483 71.9774 42.7568 71.6949 43.3638 71.2526C43.9708 70.8103 44.4569 70.2225 44.7773 69.5432L50.4998 57.6914L56.2224 69.5432C56.5447 70.2229 57.0325 70.8108 57.641 71.253C58.2496 71.6952 58.9594 71.9776 59.7054 72.0742L72.7523 73.8516L63.2429 82.9551C62.6958 83.4713 62.2868 84.1165 62.0534 84.8317C61.82 85.5468 61.7696 86.309 61.9068 87.0486L64.248 100L52.6564 93.7775Z" fill="url(#paint0_linear_37_2280)"/>
<defs>
<linearGradient id="paint0_linear_37_2280" x1="13.4857" y1="50.0004" x2="87.5238" y2="50.0004" gradientUnits="userSpaceOnUse">
<stop stop-color="#00C2F3"/>
<stop offset="1" stop-color="#4764AF"/>
</linearGradient>
</defs>
</svg>
