<svg width="40" height="31" viewBox="0 0 40 31" fill="none" xmlns="http://www.w3.org/2000/svg">
<path d="M7.33425 28.5934H7.32758C7.15861 28.6399 6.98213 28.6527 6.80822 28.631C6.63432 28.6092 6.4664 28.5534 6.31408 28.4667C6.16176 28.38 6.02803 28.2642 5.92053 28.1258C5.81303 27.9873 5.73387 27.8291 5.68758 27.6601L0.714914 9.66739C0.622042 9.32617 0.668101 8.96206 0.843014 8.65471C1.01793 8.34737 1.30745 8.12181 1.64825 8.02739L29.9209 0.21406C30.2621 0.121188 30.6262 0.167246 30.9336 0.342159C31.2409 0.517072 31.4665 0.806597 31.5609 1.14739L33.8676 9.50006L7.33425 28.5934Z" fill="#3B7AC8"/>
<path d="M33.0421 6.50004L22.1888 9.50004L7.33547 13.6067L2.19547 15.0267L1.35547 11.98L7.4488 10.2934L10.3288 9.50004L32.2021 3.45337L33.0421 6.50004Z" fill="#244766"/>
<path d="M38.0026 9.5H8.66927C7.93289 9.5 7.33594 10.097 7.33594 10.8333V29.5C7.33594 30.2364 7.93289 30.8333 8.66927 30.8333H38.0026C38.739 30.8333 39.3359 30.2364 39.3359 29.5V10.8333C39.3359 10.097 38.739 9.5 38.0026 9.5Z" fill="#89D461"/>
<path d="M15.3346 13.5H12.0013C11.2649 13.5 10.668 14.097 10.668 14.8333V16.8333C10.668 17.5697 11.2649 18.1667 12.0013 18.1667H15.3346C16.071 18.1667 16.668 17.5697 16.668 16.8333V14.8333C16.668 14.097 16.071 13.5 15.3346 13.5Z" fill="#FBDD4D"/>
<path d="M10.6667 24.1667C10.4899 24.1667 10.3203 24.0964 10.1953 23.9714C10.0702 23.8464 10 23.6768 10 23.5V22.1667C10 21.9899 10.0702 21.8203 10.1953 21.6953C10.3203 21.5702 10.4899 21.5 10.6667 21.5C10.8435 21.5 11.013 21.5702 11.1381 21.6953C11.2631 21.8203 11.3333 21.9899 11.3333 22.1667V23.5C11.3333 23.6768 11.2631 23.8464 11.1381 23.9714C11.013 24.0964 10.8435 24.1667 10.6667 24.1667ZM13.3333 24.1667C13.1565 24.1667 12.987 24.0964 12.8619 23.9714C12.7369 23.8464 12.6667 23.6768 12.6667 23.5V22.1667C12.6667 21.9899 12.7369 21.8203 12.8619 21.6953C12.987 21.5702 13.1565 21.5 13.3333 21.5C13.5101 21.5 13.6797 21.5702 13.8047 21.6953C13.9298 21.8203 14 21.9899 14 22.1667V23.5C14 23.6768 13.9298 23.8464 13.8047 23.9714C13.6797 24.0964 13.5101 24.1667 13.3333 24.1667ZM16 24.1667C15.8232 24.1667 15.6536 24.0964 15.5286 23.9714C15.4036 23.8464 15.3333 23.6768 15.3333 23.5V22.1667C15.3333 21.9899 15.4036 21.8203 15.5286 21.6953C15.6536 21.5702 15.8232 21.5 16 21.5C16.1768 21.5 16.3464 21.5702 16.4714 21.6953C16.5964 21.8203 16.6667 21.9899 16.6667 22.1667V23.5C16.6667 23.6768 16.5964 23.8464 16.4714 23.9714C16.3464 24.0964 16.1768 24.1667 16 24.1667ZM20 24.1667C19.8232 24.1667 19.6536 24.0964 19.5286 23.9714C19.4036 23.8464 19.3333 23.6768 19.3333 23.5V22.1667C19.3333 21.9899 19.4036 21.8203 19.5286 21.6953C19.6536 21.5702 19.8232 21.5 20 21.5C20.1768 21.5 20.3464 21.5702 20.4714 21.6953C20.5964 21.8203 20.6667 21.9899 20.6667 22.1667V23.5C20.6667 23.6768 20.5964 23.8464 20.4714 23.9714C20.3464 24.0964 20.1768 24.1667 20 24.1667ZM22.6667 24.1667C22.4899 24.1667 22.3203 24.0964 22.1953 23.9714C22.0702 23.8464 22 23.6768 22 23.5V22.1667C22 21.9899 22.0702 21.8203 22.1953 21.6953C22.3203 21.5702 22.4899 21.5 22.6667 21.5C22.8435 21.5 23.013 21.5702 23.1381 21.6953C23.2631 21.8203 23.3333 21.9899 23.3333 22.1667V23.5C23.3333 23.6768 23.2631 23.8464 23.1381 23.9714C23.013 24.0964 22.8435 24.1667 22.6667 24.1667ZM25.3333 24.1667C25.1565 24.1667 24.987 24.0964 24.8619 23.9714C24.7369 23.8464 24.6667 23.6768 24.6667 23.5V22.1667C24.6667 21.9899 24.7369 21.8203 24.8619 21.6953C24.987 21.5702 25.1565 21.5 25.3333 21.5C25.5101 21.5 25.6797 21.5702 25.8047 21.6953C25.9298 21.8203 26 21.9899 26 22.1667V23.5C26 23.6768 25.9298 23.8464 25.8047 23.9714C25.6797 24.0964 25.5101 24.1667 25.3333 24.1667ZM29.3333 24.1667C29.1565 24.1667 28.987 24.0964 28.8619 23.9714C28.7369 23.8464 28.6667 23.6768 28.6667 23.5V22.1667C28.6667 21.9899 28.7369 21.8203 28.8619 21.6953C28.987 21.5702 29.1565 21.5 29.3333 21.5C29.5101 21.5 29.6797 21.5702 29.8047 21.6953C29.9298 21.8203 30 21.9899 30 22.1667V23.5C30 23.6768 29.9298 23.8464 29.8047 23.9714C29.6797 24.0964 29.5101 24.1667 29.3333 24.1667ZM32 24.1667C31.8232 24.1667 31.6536 24.0964 31.5286 23.9714C31.4036 23.8464 31.3333 23.6768 31.3333 23.5V22.1667C31.3333 21.9899 31.4036 21.8203 31.5286 21.6953C31.6536 21.5702 31.8232 21.5 32 21.5C32.1768 21.5 32.3464 21.5702 32.4714 21.6953C32.5964 21.8203 32.6667 21.9899 32.6667 22.1667V23.5C32.6667 23.6768 32.5964 23.8464 32.4714 23.9714C32.3464 24.0964 32.1768 24.1667 32 24.1667ZM34.6667 24.1667C34.4899 24.1667 34.3203 24.0964 34.1953 23.9714C34.0702 23.8464 34 23.6768 34 23.5V22.1667C34 21.9899 34.0702 21.8203 34.1953 21.6953C34.3203 21.5702 34.4899 21.5 34.6667 21.5C34.8435 21.5 35.013 21.5702 35.1381 21.6953C35.2631 21.8203 35.3333 21.9899 35.3333 22.1667V23.5C35.3333 23.6768 35.2631 23.8464 35.1381 23.9714C35.013 24.0964 34.8435 24.1667 34.6667 24.1667ZM16 27.5H10.6667C10.4899 27.5 10.3203 27.4298 10.1953 27.3047C10.0702 27.1797 10 27.0101 10 26.8333C10 26.6565 10.0702 26.487 10.1953 26.3619C10.3203 26.2369 10.4899 26.1667 10.6667 26.1667H16C16.1768 26.1667 16.3464 26.2369 16.4714 26.3619C16.5964 26.487 16.6667 26.6565 16.6667 26.8333C16.6667 27.0101 16.5964 27.1797 16.4714 27.3047C16.3464 27.4298 16.1768 27.5 16 27.5ZM25.3333 27.5H20C19.8232 27.5 19.6536 27.4298 19.5286 27.3047C19.4036 27.1797 19.3333 27.0101 19.3333 26.8333C19.3333 26.6565 19.4036 26.487 19.5286 26.3619C19.6536 26.2369 19.8232 26.1667 20 26.1667H25.3333C25.5101 26.1667 25.6797 26.2369 25.8047 26.3619C25.9298 26.487 26 26.6565 26 26.8333C26 27.0101 25.9298 27.1797 25.8047 27.3047C25.6797 27.4298 25.5101 27.5 25.3333 27.5Z" fill="#507F32"/>
</svg>
