<svg width="40" height="40" viewBox="0 0 40 40" fill="none" xmlns="http://www.w3.org/2000/svg">
<g clip-path="url(#clip0_114_37369)">
<path d="M25.6443 0.105529L0.102325 25.6476C-0.0383246 25.7882 -0.0383246 26.0162 0.102325 26.1569L13.8395 39.8941C13.9802 40.0347 14.2082 40.0347 14.3489 39.8941L39.8909 14.3521C40.0315 14.2114 40.0315 13.9834 39.8909 13.8427L26.1537 0.105529C26.013 -0.0351209 25.785 -0.0351184 25.6443 0.105529Z" fill="#76AB3A"/>
<path d="M25.9015 2.90173L37.0937 14.0939L14.0984 37.089L2.90625 25.8968L25.9015 2.90173Z" fill="#316729"/>
<path d="M28.1978 7.23519L33.1127 12.15C32.8823 12.2593 32.6735 12.4091 32.4963 12.5922C31.7103 13.3993 31.6822 14.7008 32.4353 15.5383C32.5244 15.6375 32.6205 15.7266 32.722 15.8055C32.9103 15.9516 32.933 16.2266 32.765 16.3946L16.3947 32.7649C16.2259 32.9336 15.9517 32.9102 15.8056 32.7219C15.7267 32.6203 15.6377 32.5243 15.5384 32.4352C14.7009 31.6821 13.3986 31.711 12.5923 32.4961C12.5166 32.5703 12.447 32.6485 12.3845 32.7297C12.2423 32.9149 11.9673 32.9297 11.8025 32.7641L7.2361 28.1977C7.07047 28.0321 7.08532 27.7578 7.27047 27.6157C7.35172 27.5532 7.42985 27.4836 7.50406 27.4078C8.29 26.6016 8.31813 25.2993 7.565 24.4618C7.47759 24.3643 7.38164 24.2749 7.27828 24.1946C7.09 24.0485 7.06735 23.7735 7.23532 23.6055L23.6048 7.23519C23.7736 7.06644 24.0478 7.08988 24.1939 7.27816C24.2728 7.37972 24.3619 7.47504 24.4611 7.56488C25.2986 8.31801 26.6009 8.28988 27.4072 7.50394C27.483 7.42972 27.5525 7.3516 27.615 7.27035C27.7572 7.08519 28.0322 7.07035 28.197 7.23597L28.1978 7.23519Z" fill="#76AB3A"/>
<path d="M20.0023 25.3969C22.983 25.3969 25.3992 22.9806 25.3992 20C25.3992 17.0194 22.983 14.6031 20.0023 14.6031C17.0217 14.6031 14.6055 17.0194 14.6055 20C14.6055 22.9806 17.0217 25.3969 20.0023 25.3969Z" fill="#316729"/>
<path d="M27.1508 14.6508C28.1445 14.6508 28.95 13.8453 28.95 12.8516C28.95 11.8579 28.1445 11.0524 27.1508 11.0524C26.1571 11.0524 25.3516 11.8579 25.3516 12.8516C25.3516 13.8453 26.1571 14.6508 27.1508 14.6508Z" fill="#316729"/>
<path d="M12.8539 28.9484C13.8476 28.9484 14.6531 28.1429 14.6531 27.1492C14.6531 26.1555 13.8476 25.35 12.8539 25.35C11.8602 25.35 11.0547 26.1555 11.0547 27.1492C11.0547 28.1429 11.8602 28.9484 12.8539 28.9484Z" fill="#316729"/>
<path d="M39.6094 9.0625H0.390625C0.174889 9.0625 0 9.23739 0 9.45312V30.5469C0 30.7626 0.174889 30.9375 0.390625 30.9375H39.6094C39.8251 30.9375 40 30.7626 40 30.5469V9.45312C40 9.23739 39.8251 9.0625 39.6094 9.0625Z" fill="#92D449"/>
<path d="M37.6562 11.4062V28.5938H2.34375V11.4062H37.6562Z" fill="#45903A"/>
<path d="M36.093 16.4562V23.5437C36.093 23.7836 35.8797 23.9633 35.6422 23.9297C35.5086 23.9109 35.3711 23.9031 35.2312 23.9078C34.0281 23.9477 33.0359 24.9187 32.9719 26.1203C32.9633 26.2789 32.9703 26.4336 32.9922 26.5844C33.0258 26.8203 32.8445 27.0312 32.6062 27.0312H7.39297C7.15469 27.0312 6.97344 26.8203 7.00703 26.5844C7.02891 26.4336 7.03594 26.2781 7.02734 26.1203C6.96328 24.918 5.97109 23.9477 4.76797 23.9078C4.62813 23.9031 4.49063 23.9109 4.35703 23.9297C4.11953 23.9633 3.90625 23.7836 3.90625 23.5437V16.4562C3.90625 16.2164 4.11953 16.0367 4.35703 16.0703C4.49063 16.0891 4.62813 16.0969 4.76797 16.0922C5.97109 16.0523 6.96328 15.082 7.02734 13.8797C7.03594 13.7211 7.02891 13.5656 7.00703 13.4156C6.97344 13.1797 7.15469 12.9688 7.39297 12.9688H32.6055C32.8437 12.9688 33.025 13.1797 32.9914 13.4156C32.9703 13.5664 32.9625 13.7211 32.9711 13.8797C33.0352 15.082 34.0273 16.0523 35.2305 16.0922C35.3703 16.0969 35.5078 16.0891 35.6414 16.0703C35.8789 16.0367 36.0922 16.2164 36.0922 16.4562H36.093Z" fill="#92D449"/>
<path d="M20 25.8594C23.236 25.8594 25.8594 23.236 25.8594 20C25.8594 16.764 23.236 14.1406 20 14.1406C16.764 14.1406 14.1406 16.764 14.1406 20C14.1406 23.236 16.764 25.8594 20 25.8594Z" fill="#45903A"/>
<path d="M30.9766 21.9531C32.0552 21.9531 32.9297 21.0787 32.9297 20C32.9297 18.9213 32.0552 18.0469 30.9766 18.0469C29.8979 18.0469 29.0234 18.9213 29.0234 20C29.0234 21.0787 29.8979 21.9531 30.9766 21.9531Z" fill="#45903A"/>
<path d="M9.02344 21.9531C10.1021 21.9531 10.9766 21.0787 10.9766 20C10.9766 18.9213 10.1021 18.0469 9.02344 18.0469C7.94476 18.0469 7.07031 18.9213 7.07031 20C7.07031 21.0787 7.94476 21.9531 9.02344 21.9531Z" fill="#45903A"/>
<path d="M21.3383 21.1415H19.5992C19.618 21.6298 19.7508 21.9907 19.9977 22.2243C20.2445 22.4571 20.6523 22.5743 21.2211 22.5743C21.5891 22.5743 21.9156 22.5188 22.2023 22.4071L22.4422 23.911C21.9477 24.0228 21.4594 24.079 20.9766 24.079C19.9734 24.079 19.1734 23.8188 18.5773 23.2985C17.9813 22.7782 17.668 22.0595 17.6383 21.1415H16.7188V20.2501H17.6383V19.5759H16.7188V18.6845H17.6547C17.725 17.7634 18.0711 17.0438 18.6914 16.5274C19.3117 16.011 20.1313 15.7524 21.1492 15.7524C21.543 15.7524 21.9742 15.8103 22.4422 15.9251L22.2023 17.4298C21.9125 17.3149 21.6023 17.2571 21.2719 17.2571C20.7594 17.2571 20.3672 17.3735 20.0961 17.6056C19.825 17.8376 19.6648 18.197 19.6164 18.6837H21.3383V19.5751H19.5992V20.2493H21.3383V21.1407V21.1415Z" fill="#92D449"/>
</g>
<defs>
<clipPath id="clip0_114_37369">
<rect width="40" height="40" fill="white"/>
</clipPath>
</defs>
</svg>
