<svg width="22" height="22" viewBox="0 0 22 22" fill="none" xmlns="http://www.w3.org/2000/svg">
<path d="M17.875 20.9688H5.15625L3.78125 9.96875H19.25L17.875 20.9688Z" fill="#3EA7FF"/>
<path d="M15.2887 15.8125C15.3362 15.9332 15.3966 16.0485 15.4688 16.1562V20.9688H12.0312V16.1562C12.2349 15.8509 12.3436 15.4921 12.3436 15.125C12.3436 14.7579 12.2349 14.3991 12.0312 14.0938L12.7188 12.7188H14.7812L15.4688 14.0938C15.3966 14.2015 15.3362 14.3168 15.2887 14.4375C15.1122 14.8788 15.1122 15.3712 15.2887 15.8125Z" fill="#A0CC00"/>
<path d="M13.0625 11.3438H14.4375V12.7188H13.0625V11.3438Z" fill="#FFF1D8"/>
<path d="M15.4688 14.0938C15.3966 14.2015 15.3362 14.3168 15.2887 14.4375H13.4062V13.75H15.2969L15.4688 14.0938ZM15.4688 16.1562V16.5H13.4062V15.8125H15.2887C15.3362 15.9332 15.3966 16.0485 15.4688 16.1562Z" fill="#85B200"/>
<path d="M2.75 8.59375H20.2812V9.96875H2.75V8.59375Z" fill="#87C9FF"/>
<path d="M14.4375 8.59375L15.8125 6.1875L17.875 6.875V8.59375H14.4375Z" fill="#FF6F35"/>
<path d="M17.5817 2.49512L19.0548 3.08465C19.4517 3.2435 19.7919 3.51762 20.0316 3.87168C20.2713 4.22573 20.3994 4.64346 20.3994 5.07101V5.25466C20.3994 5.31462 20.3837 5.37353 20.3539 5.42556C20.3241 5.47758 20.2812 5.5209 20.2295 5.55122C20.1777 5.58154 20.119 5.5978 20.059 5.59839C19.9991 5.59898 19.94 5.58388 19.8877 5.55458L18.5625 4.81242L17.5817 2.49512Z" fill="#E05E1D"/>
<path d="M15.8125 6.1875L16.5 4.8125L18.2188 5.5L17.875 6.875L15.8125 6.1875Z" fill="#EB352F"/>
<path d="M16.5 4.8125L16.1562 3.4375L16.5 2.0625L17.9051 2.62453C18.3021 2.78334 18.6425 3.05748 18.8822 3.41157C19.1219 3.76566 19.25 4.18346 19.25 4.61106C19.25 4.67102 19.2344 4.72993 19.2045 4.78194C19.1747 4.83396 19.1318 4.87728 19.0801 4.9076C19.0284 4.93792 18.9696 4.95418 18.9097 4.95477C18.8497 4.95537 18.7907 4.94027 18.7384 4.91098L18.5625 4.8125L18.2188 5.5L16.5 4.8125Z" fill="#FF6F35"/>
<path d="M16.1562 3.4375L14.7812 2.75L15.125 1.375L16.5 2.0625L16.1562 3.4375Z" fill="#E6E6E6"/>
<path d="M13.943 7.5625C13.9417 7.59344 13.9412 7.6248 13.9412 7.65574C13.9413 7.97458 13.9928 8.29133 14.0938 8.59375H10.6563C10.8783 7.92787 10.857 7.20481 10.5961 6.55316C10.5122 6.34259 10.4917 6.11205 10.5373 5.89C10.5829 5.66794 10.6925 5.4641 10.8526 5.30363L11.6875 4.46875H13.0625L13.8974 5.30363C14.0576 5.46402 14.1673 5.66787 14.2129 5.88995C14.2585 6.11204 14.238 6.34262 14.1539 6.55316C14.112 6.65833 14.0759 6.76578 14.0461 6.875C13.9847 7.09929 13.95 7.33006 13.943 7.5625Z" fill="#EB352F"/>
<path d="M14.046 6.875C13.9846 7.09929 13.95 7.33006 13.9429 7.5625H12.1743V6.875H14.046Z" fill="#C7161F"/>
<path d="M11.6875 3.09375H13.0625V4.46875H11.6875V3.09375Z" fill="#F2E368"/>
<path d="M9.96875 8.59375H7.21875V4.8125L8.9375 3.09375L9.96875 8.59375Z" fill="#65DCFF"/>
<path d="M4.8125 4.8125H7.21875V8.59375H4.8125V4.8125Z" fill="#57C1FF"/>
<path d="M8.9375 3.09375H5.84375L4.8125 4.8125H7.21875L8.9375 3.09375Z" fill="#A0EAFF"/>
<path d="M7.5625 7.5625L8.59375 8.59375H9.96875L9.05837 7.31925C8.80834 6.9692 8.47836 6.68389 8.09586 6.48705C7.71337 6.2902 7.28941 6.18751 6.85923 6.1875C6.2046 6.18749 5.57221 6.4251 5.07955 6.85618C3.78448 7.98936 2.85225 9.47922 2.39946 11.1394L1.03125 16.1562C1.34205 16.5706 1.76072 16.8917 2.24156 17.0843C2.7224 17.277 3.24693 17.3338 3.75787 17.2487L4.125 17.1875V16.1562L4.60659 10.8586C4.66885 10.1737 4.91512 9.51836 5.31934 8.96196C5.72356 8.40556 6.27068 7.9688 6.9028 7.69789C7.11126 7.60856 7.3357 7.5625 7.5625 7.5625ZM11 17.5312H17.1875V20.9688H11V17.5312Z" fill="#F2E368"/>
<path d="M17.1875 17.5312H20.9688V20.9688H17.1875V17.5312Z" fill="#EACF4D"/>
<path d="M12.375 19.25C12.5648 19.25 12.7188 19.0961 12.7188 18.9062C12.7188 18.7164 12.5648 18.5625 12.375 18.5625C12.1852 18.5625 12.0312 18.7164 12.0312 18.9062C12.0312 19.0961 12.1852 19.25 12.375 19.25Z" fill="#EACF4D"/>
<path d="M13.75 19.9375C13.9398 19.9375 14.0938 19.7836 14.0938 19.5938C14.0938 19.4039 13.9398 19.25 13.75 19.25C13.5602 19.25 13.4062 19.4039 13.4062 19.5938C13.4062 19.7836 13.5602 19.9375 13.75 19.9375Z" fill="#EACF4D"/>
<path d="M15.8125 19.9375C16.0023 19.9375 16.1562 19.7836 16.1562 19.5938C16.1562 19.4039 16.0023 19.25 15.8125 19.25C15.6227 19.25 15.4688 19.4039 15.4688 19.5938C15.4688 19.7836 15.6227 19.9375 15.8125 19.9375Z" fill="#EACF4D"/>
<path d="M19.5938 19.25C19.7836 19.25 19.9375 19.0961 19.9375 18.9062C19.9375 18.7164 19.7836 18.5625 19.5938 18.5625C19.4039 18.5625 19.25 18.7164 19.25 18.9062C19.25 19.0961 19.4039 19.25 19.5938 19.25Z" fill="#E0B82F"/>
<path d="M18.5625 19.9375C18.7523 19.9375 18.9062 19.7836 18.9062 19.5938C18.9062 19.4039 18.7523 19.25 18.5625 19.25C18.3727 19.25 18.2188 19.4039 18.2188 19.5938C18.2188 19.7836 18.3727 19.9375 18.5625 19.9375Z" fill="#E0B82F"/>
<path d="M14.7812 19.25C14.9711 19.25 15.125 19.0961 15.125 18.9062C15.125 18.7164 14.9711 18.5625 14.7812 18.5625C14.5914 18.5625 14.4375 18.7164 14.4375 18.9062C14.4375 19.0961 14.5914 19.25 14.7812 19.25Z" fill="#EACF4D"/>
<path d="M8.59375 8.59375C8.33678 8.59375 8.08278 8.64876 7.84884 8.75508C7.61489 8.86141 7.40642 9.01658 7.23743 9.21018C7.06844 9.40377 6.94286 9.6313 6.86911 9.87746C6.79537 10.1236 6.77518 10.3827 6.8099 10.6373L7.5625 16.1562C7.04331 15.8447 6.44922 15.6802 5.84375 15.6802C5.23828 15.6802 4.64419 15.8447 4.125 16.1562L4.60797 10.8331C4.66941 10.1561 4.91275 9.5083 5.31225 8.95831C5.71174 8.40832 6.25252 7.97658 6.87732 7.70881L6.90491 7.69699C7.10924 7.6085 7.32951 7.56273 7.55219 7.5625H7.5625C7.66824 7.56251 7.77235 7.58862 7.86558 7.63852C7.95882 7.68842 8.03829 7.76056 8.09695 7.84854L8.59375 8.59375Z" fill="#EACF4D"/>
<path d="M5.84375 3.09375C6.24043 3.39126 6.7229 3.55209 7.21875 3.55209C7.7146 3.55209 8.19707 3.39126 8.59375 3.09375L8.25 1.03125H6.1875L5.84375 3.09375Z" fill="#3EA7FF"/>
</svg>
