<svg width="22" height="22" viewBox="0 0 22 22" fill="none" xmlns="http://www.w3.org/2000/svg">
<path d="M19.9337 12.0156V20.1451C19.9337 21.1695 19.1033 21.9999 18.0789 21.9999C17.0545 21.9999 16.2241 21.1695 16.2241 20.1451V16.5155V17.3516C16.2241 18.376 15.3937 19.2064 14.3693 19.2064C13.3449 19.2064 12.5145 18.376 12.5145 17.3516V10.5879" fill="#FBA615"/>
<path d="M6.89276 15.0161C7.16836 15.2917 7.6152 15.2917 7.89077 15.0161L10.9884 11.9185C11.264 11.6429 11.264 11.196 10.9884 10.9205L4.90838 4.84048C4.47344 4.40555 4.47344 3.69789 4.90838 3.26291L6.14479 2.0265C6.57972 1.59156 7.28743 1.59152 7.72236 2.0265L13.8023 8.10648C14.078 8.38208 14.5248 8.38208 14.8004 8.10648C15.076 7.83087 15.076 7.38403 14.8004 7.10847L8.72037 1.02849C7.73512 0.0432387 6.13203 0.0432387 5.14678 1.02849L3.91032 2.2649C2.92507 3.25015 2.92507 4.85324 3.91032 5.83849L9.4913 11.4195L6.89276 14.018C6.61715 14.2936 6.61715 14.7405 6.89276 15.0161Z" fill="#756E78"/>
<path d="M7.05306 4.94029C10.231 8.37025 13.5385 11.6778 16.9684 14.8557C17.4323 15.2854 18.1315 15.3343 18.6523 14.9758C19.8439 14.1556 20.8497 13.1498 21.6698 11.9583C22.0283 11.4375 21.9794 10.7382 21.5497 10.2744C18.3718 6.84445 15.0643 3.53692 11.6343 0.359027C11.1705 -0.0706934 10.4712 -0.119578 9.95044 0.238927C8.75891 1.05905 7.75308 2.06488 6.93296 3.25641C6.57445 3.7772 6.62334 4.47647 7.05306 4.94029Z" fill="#FBA615"/>
<path d="M7.76636 2.18262C7.46831 2.52449 7.19008 2.88315 6.93302 3.25683C6.57443 3.7778 6.62331 4.47675 7.05312 4.94049C10.2309 8.37047 13.5384 11.678 16.9684 14.8558C17.4322 15.2856 18.1315 15.3348 18.6524 14.9762C19.0261 14.7191 19.3847 14.4409 19.7266 14.1429C19.3317 14.1811 18.9269 14.0544 18.6198 13.7699C14.9942 10.4111 11.4981 6.91506 8.13929 3.2894C7.85452 2.98203 7.72812 2.57747 7.76636 2.18262Z" fill="#FC840D"/>
<path d="M10.1573 16.8399L9.32921 17.6684C8.98978 17.5833 8.63873 17.5544 8.28995 17.5826C7.5268 17.6436 6.81034 17.9745 6.26895 18.5158L3.36551 21.4192C2.83487 21.9499 1.97489 21.9499 1.44425 21.4192L0.966636 20.9416L0.489469 20.464C-0.0411673 19.9338 -0.0411673 19.0734 0.489469 18.5428L3.39246 15.6398C3.99673 15.0351 4.33626 14.2153 4.33647 13.3604C4.33647 13.1003 4.30501 12.8383 4.24031 12.5795L5.06839 11.751L7.61284 14.2954L10.1573 16.8399Z" fill="#FB9369"/>
<path d="M0.763376 20.7386L0.489252 20.4645C-0.0413391 19.9339 -0.0413391 19.0736 0.489252 18.543L3.39247 15.6398C3.78594 15.2463 4.07082 14.7577 4.21937 14.2214C4.36792 13.6852 4.37508 13.1196 4.24014 12.5798L5.06849 11.7515L6.52857 13.2115L5.70022 14.0399C5.58079 14.7441 5.01826 15.6646 4.21781 16.4651L1.31459 19.3683C0.784 19.8989 0.537148 20.5124 0.763376 20.7386Z" fill="#F06B37"/>
<path d="M9.32919 17.669C8.98976 17.5839 8.63871 17.5549 8.28993 17.5832L4.32611 13.6193C4.35422 13.2706 4.32523 12.9195 4.2403 12.5801L9.32919 17.669Z" fill="#F06B37"/>
</svg>
