<svg width="22" height="22" viewBox="0 0 22 22" fill="none" xmlns="http://www.w3.org/2000/svg">
<g clip-path="url(#clip0_90_1291)">
<path d="M21 19.3301H0.99999C0.816657 19.3301 0.666656 19.4801 0.666656 19.6634V20.9967C0.666656 21.1801 0.816657 21.3301 0.99999 21.3301H21C21.1833 21.3301 21.3333 21.1801 21.3333 20.9967V19.6634C21.3333 19.4801 21.1833 19.3301 21 19.3301Z" fill="#5D5B68"/>
<path d="M1.80666 20.6101C1.62332 20.6101 1.47332 20.4601 1.47332 20.2767V19.3301H0.99999C0.816657 19.3301 0.666656 19.4801 0.666656 19.6634V20.9967C0.666656 21.1801 0.816657 21.3301 0.99999 21.3301H21C21.1833 21.3301 21.3333 21.1801 21.3333 20.9967V20.6101H1.80666Z" fill="black" fill-opacity="0.082"/>
<path d="M19.5733 0.666504H2.42666C2.24332 0.666504 2.09332 0.816504 2.09332 0.999837V19.3298H19.9033V0.999837C19.9067 0.816504 19.7567 0.666504 19.5733 0.666504Z" fill="#E6E9EE"/>
<path d="M3.75998 2.33301H10.3333V17.663H3.75998V2.33301ZM11.6666 2.33301H18.24V17.663H11.6666V2.33301Z" fill="#009AFF"/>
<path d="M8.70333 11.3967C8.52 11.3967 8.37 11.2467 8.37 11.0634V8.60335C8.37 8.42002 8.52 8.27002 8.70333 8.27002C8.88666 8.27002 9.03666 8.42002 9.03666 8.60335V11.0634C9.03666 11.2467 8.88666 11.3967 8.70333 11.3967ZM13.2967 11.3967C13.1133 11.3967 12.9633 11.2467 12.9633 11.0634V8.60335C12.9633 8.42002 13.1133 8.27002 13.2967 8.27002C13.48 8.27002 13.63 8.42002 13.63 8.60335V11.0634C13.63 11.2467 13.48 11.3967 13.2967 11.3967Z" fill="white"/>
<g opacity="0.25">
<path d="M5.33 4.93994L6.36667 3.90328C6.42899 3.84095 6.46401 3.75642 6.46401 3.66828C6.46401 3.58014 6.42899 3.4956 6.36667 3.43328C6.30434 3.37095 6.21981 3.33594 6.13167 3.33594C6.04353 3.33594 5.95899 3.37095 5.89667 3.43328L4.86 4.46994C4.81349 4.51649 4.78185 4.57582 4.76912 4.64038C4.75639 4.70495 4.76313 4.77184 4.78849 4.83256C4.81385 4.89329 4.85669 4.94511 4.91156 4.98144C4.96643 5.01777 5.03086 5.03697 5.09667 5.03661C5.18333 5.03661 5.26667 5.00661 5.33 4.93994ZM7.60667 3.59994C7.57583 3.56904 7.5392 3.54453 7.49888 3.5278C7.45855 3.51107 7.41532 3.50246 7.37167 3.50246C7.32801 3.50246 7.28478 3.51107 7.24446 3.5278C7.20414 3.54453 7.16751 3.56904 7.13667 3.59994L5.02667 5.70994C4.98015 5.75649 4.94852 5.81582 4.93579 5.88038C4.92306 5.94495 4.9298 6.01184 4.95516 6.07256C4.98052 6.13329 5.02336 6.18511 5.07823 6.22144C5.1331 6.25777 5.19753 6.27697 5.26333 6.27661C5.35 6.27661 5.43333 6.24328 5.5 6.17994L7.61 4.06994C7.73667 3.93994 7.73667 3.72994 7.60667 3.59994Z" fill="white"/>
</g>
<g opacity="0.25">
<path d="M13.2366 4.93994L14.2733 3.90328C14.3356 3.84095 14.3707 3.75642 14.3707 3.66828C14.3707 3.58014 14.3356 3.4956 14.2733 3.43328C14.211 3.37095 14.1265 3.33594 14.0383 3.33594C13.9502 3.33594 13.8656 3.37095 13.8033 3.43328L12.7666 4.46994C12.7201 4.51649 12.6885 4.57582 12.6758 4.64038C12.663 4.70495 12.6698 4.77184 12.6951 4.83256C12.7205 4.89329 12.7633 4.94511 12.8182 4.98144C12.8731 5.01777 12.9375 5.03697 13.0033 5.03661C13.09 5.03661 13.1733 5.00661 13.2366 4.93994ZM15.5133 3.59994C15.4825 3.56904 15.4458 3.54453 15.4055 3.5278C15.3652 3.51107 15.322 3.50246 15.2783 3.50246C15.2347 3.50246 15.1914 3.51107 15.1511 3.5278C15.1108 3.54453 15.0742 3.56904 15.0433 3.59994L12.9333 5.70994C12.8868 5.75649 12.8552 5.81582 12.8424 5.88038C12.8297 5.94495 12.8364 6.01184 12.8618 6.07256C12.8872 6.13329 12.93 6.18511 12.9849 6.22144C13.0397 6.25777 13.1042 6.27697 13.17 6.27661C13.2566 6.27661 13.34 6.24328 13.4066 6.17994L15.5166 4.06994C15.6433 3.93994 15.6433 3.72994 15.5133 3.59994Z" fill="white"/>
</g>
<path d="M19.9067 18.3298C10.6233 18.3298 3.09665 10.8032 3.09665 1.51984V0.666504H2.42998C2.24665 0.666504 2.09665 0.816504 2.09665 0.999837V19.3298H19.9067V18.3298Z" fill="black" fill-opacity="0.063"/>
<path opacity="0.5" d="M19.5733 0.666504H11.6133C11.6133 1.40317 12.21 1.99984 12.9466 1.99984H18.5733V12.6132C18.5733 13.3498 19.17 13.9465 19.9066 13.9465V0.999837C19.9066 0.816504 19.7566 0.666504 19.5733 0.666504Z" fill="white"/>
</g>
<defs>
<clipPath id="clip0_90_1291">
<rect width="22" height="22" fill="white"/>
</clipPath>
</defs>
</svg>
