<svg width="22" height="22" viewBox="0 0 22 22" fill="none" xmlns="http://www.w3.org/2000/svg">
<g clip-path="url(#clip0_90_1306)">
<path d="M19.8539 16.3521L19.2359 14.4961H2.76445L2.14643 16.3521C2.03953 16.6727 2.29094 17 2.64427 17C2.74825 17 2.84986 16.9704 2.9361 16.9151C3.02233 16.8597 3.08928 16.7811 3.12835 16.6894L3.58438 15.6175H18.416L18.872 16.6894C18.9111 16.7812 18.978 16.8598 19.0643 16.9151C19.1505 16.9704 19.2521 17 19.3561 17C19.7094 17 19.9608 16.6727 19.8539 16.3521H19.8539Z" fill="#F9AA4B"/>
<path d="M3.12448 14.4961H2.76449L2.56494 15.0952H19.4355L19.236 14.4961H3.12448Z" fill="#C1762B"/>
<path d="M1.80568 7.95213L1.58615 12.7696H20.4139L20.1942 7.95213C20.119 6.30138 18.6919 5 16.9572 5H5.04277C3.30791 5 1.88105 6.30138 1.80568 7.95213Z" fill="#2176C7"/>
<path d="M20.1942 7.95213C20.119 6.30138 18.6919 5 16.9572 5H15.5169C17.2516 5 18.6786 6.30138 18.7538 7.95213L18.9735 12.7696H20.4138L20.1942 7.95213Z" fill="#165E9E"/>
<path d="M7.73203 10.646C6.50016 10.3537 5.26833 10.3537 4.0365 10.646C3.59272 10.7514 3.28223 11.1328 3.28223 11.5685V12.2512H8.48613V11.5685C8.48613 11.1328 8.17577 10.7512 7.73203 10.646ZM12.9358 10.646C11.7039 10.3537 10.4721 10.3537 9.24027 10.646C8.79649 10.7514 8.48613 11.1328 8.48613 11.5685V12.2512H13.6901V11.5685C13.6901 11.1328 13.3795 10.7512 12.9358 10.646Z" fill="#7DCDF9"/>
<path d="M18.14 10.646C16.9082 10.3537 15.6764 10.3537 14.4445 10.646C14.0008 10.7514 13.6904 11.1328 13.6904 11.5685V12.2512H18.8942V11.5685C18.8942 11.1328 18.5838 10.7512 18.1401 10.646H18.14Z" fill="#7DCDF9"/>
<path d="M19.8286 8.62215L19.0797 11.0685C18.865 11.7693 18.1904 12.2513 17.4239 12.2513H4.57603C3.80947 12.2513 3.13491 11.7693 2.92023 11.0685L2.17124 8.62215C2.00259 8.07156 1.40305 7.7501 0.821468 7.89845C0.239542 8.0468 -0.111083 8.61081 0.0319168 9.16807L0.823659 12.2513L1.10124 13.3335C1.28274 14.0407 1.94824 14.5384 2.71278 14.5384H19.2874C20.0518 14.5384 20.7172 14.041 20.8987 13.3338L21.1769 12.2513L21.9681 9.16807C22.1111 8.61081 21.7603 8.0468 21.1786 7.89845C20.5968 7.7501 19.9973 8.07156 19.8286 8.62215H19.8286Z" fill="#56A6E8"/>
<path d="M21.1784 7.89841H21.1783C20.8514 7.81513 20.5189 7.88003 20.2604 8.05077C20.6265 8.29279 20.8164 8.7324 20.7047 9.16799L19.9135 12.2512L19.6354 13.3338C19.4538 14.041 18.7883 14.5383 18.0239 14.5383H19.2873C20.0517 14.5383 20.717 14.041 20.8986 13.3338L21.1768 12.2512L21.968 9.16803C22.111 8.61077 21.7602 8.04676 21.1784 7.89841Z" fill="#2176C7"/>
<path d="M6.32487 7.193H6.20447V7.07841C6.20447 6.99701 6.17052 6.91894 6.11008 6.86138C6.04964 6.80382 5.96767 6.77148 5.8822 6.77148C5.79673 6.77148 5.71476 6.80382 5.65433 6.86138C5.59389 6.91894 5.55994 6.99701 5.55994 7.07841V7.193H5.43945C5.39713 7.193 5.35523 7.20094 5.31613 7.21636C5.27703 7.23179 5.2415 7.2544 5.21158 7.2829C5.18165 7.3114 5.15791 7.34524 5.14172 7.38247C5.12552 7.41971 5.11719 7.45962 5.11719 7.49993C5.11719 7.54024 5.12552 7.58015 5.14172 7.61739C5.15791 7.65463 5.18165 7.68846 5.21158 7.71696C5.2415 7.74546 5.27703 7.76807 5.31613 7.7835C5.35523 7.79892 5.39713 7.80686 5.43945 7.80686H5.55994V7.92165C5.55994 8.00305 5.59389 8.08112 5.65433 8.13868C5.71476 8.19624 5.79673 8.22858 5.8822 8.22858C5.96767 8.22858 6.04964 8.19624 6.11008 8.13868C6.17052 8.08112 6.20447 8.00305 6.20447 7.92165V7.80686H6.32482C6.36714 7.80686 6.40905 7.79892 6.44815 7.7835C6.48725 7.76807 6.52278 7.74546 6.5527 7.71696C6.58263 7.68846 6.60636 7.65463 6.62256 7.61739C6.63875 7.58015 6.64709 7.54024 6.64709 7.49993C6.64709 7.45962 6.63875 7.41971 6.62256 7.38247C6.60636 7.34524 6.58263 7.3114 6.5527 7.2829C6.52278 7.2544 6.48725 7.23179 6.44815 7.21636C6.40905 7.20094 6.36719 7.193 6.32487 7.193ZM9.73667 7.193H9.61614V7.07841C9.61614 6.99701 9.58219 6.91894 9.52175 6.86138C9.46132 6.80382 9.37935 6.77148 9.29388 6.77148C9.20841 6.77148 9.12644 6.80382 9.066 6.86138C9.00557 6.91894 8.97161 6.99701 8.97161 7.07841V7.193H8.8513C8.67332 7.193 8.52903 7.33051 8.52903 7.49993C8.52903 7.58133 8.56299 7.6594 8.62342 7.71696C8.68386 7.77452 8.76583 7.80686 8.8513 7.80686H8.97161V7.92165C8.97161 8.00305 9.00557 8.08112 9.066 8.13868C9.12644 8.19624 9.20841 8.22858 9.29388 8.22858C9.37935 8.22858 9.46132 8.19624 9.52175 8.13868C9.58219 8.08112 9.61614 8.00305 9.61614 7.92165V7.80686H9.73667C9.77899 7.80686 9.8209 7.79892 9.86 7.7835C9.8991 7.76807 9.93462 7.74546 9.96455 7.71696C9.99447 7.68846 10.0182 7.65463 10.0344 7.61739C10.0506 7.58015 10.0589 7.54024 10.0589 7.49993C10.0589 7.45962 10.0506 7.41971 10.0344 7.38247C10.0182 7.34524 9.99447 7.3114 9.96455 7.2829C9.93462 7.2544 9.8991 7.23179 9.86 7.21636C9.8209 7.20094 9.77899 7.193 9.73667 7.193ZM13.1485 7.193H13.0279V7.07841C13.0279 6.99701 12.994 6.91894 12.9336 6.86138C12.8731 6.80382 12.7912 6.77148 12.7057 6.77148C12.6202 6.77148 12.5382 6.80382 12.4778 6.86138C12.4174 6.91894 12.3834 6.99701 12.3834 7.07841V7.193H12.2631C12.2208 7.193 12.1789 7.20094 12.1398 7.21636C12.1007 7.23179 12.0652 7.2544 12.0352 7.2829C12.0053 7.3114 11.9816 7.34524 11.9654 7.38247C11.9492 7.41971 11.9408 7.45962 11.9408 7.49993C11.9408 7.54024 11.9492 7.58015 11.9654 7.61739C11.9816 7.65463 12.0053 7.68846 12.0352 7.71696C12.0652 7.74546 12.1007 7.76807 12.1398 7.7835C12.1789 7.79892 12.2208 7.80686 12.2631 7.80686H12.3834V7.92165C12.3834 8.00305 12.4174 8.08112 12.4778 8.13868C12.5382 8.19624 12.6202 8.22858 12.7057 8.22858C12.7912 8.22858 12.8731 8.19624 12.9336 8.13868C12.994 8.08112 13.0279 8.00305 13.0279 7.92165V7.80686H13.1485C13.1908 7.80686 13.2327 7.79892 13.2718 7.7835C13.3109 7.76807 13.3464 7.74546 13.3764 7.71696C13.4063 7.68846 13.43 7.65463 13.4462 7.61739C13.4624 7.58015 13.4707 7.54024 13.4707 7.49993C13.4707 7.45962 13.4624 7.41971 13.4462 7.38247C13.43 7.34524 13.4063 7.3114 13.3764 7.2829C13.3464 7.2544 13.3109 7.23179 13.2718 7.21636C13.2327 7.20094 13.1908 7.193 13.1485 7.193ZM16.5603 7.193H16.4398V7.07841C16.4398 6.99701 16.4058 6.91894 16.3454 6.86138C16.285 6.80382 16.203 6.77148 16.1175 6.77148C16.0321 6.77148 15.9501 6.80382 15.8897 6.86138C15.8292 6.91894 15.7953 6.99701 15.7953 7.07841V7.193H15.6749C15.6325 7.193 15.5906 7.20094 15.5515 7.21636C15.5124 7.23179 15.4769 7.2544 15.447 7.2829C15.4171 7.3114 15.3933 7.34524 15.3771 7.38247C15.3609 7.41971 15.3526 7.45962 15.3526 7.49993C15.3526 7.54024 15.3609 7.58015 15.3771 7.61739C15.3933 7.65463 15.4171 7.68846 15.447 7.71696C15.4769 7.74546 15.5124 7.76807 15.5515 7.7835C15.5906 7.79892 15.6325 7.80686 15.6749 7.80686H15.7952V7.92165C15.7952 8.00305 15.8291 8.08112 15.8896 8.13868C15.95 8.19624 16.032 8.22858 16.1174 8.22858C16.2029 8.22858 16.2849 8.19624 16.3453 8.13868C16.4058 8.08112 16.4397 8.00305 16.4397 7.92165V7.80686H16.5602C16.6026 7.80686 16.6445 7.79892 16.6836 7.7835C16.7227 7.76807 16.7582 7.74546 16.7881 7.71696C16.818 7.68846 16.8418 7.65463 16.858 7.61739C16.8742 7.58015 16.8825 7.54024 16.8825 7.49993C16.8825 7.45962 16.8742 7.41971 16.858 7.38247C16.8418 7.34524 16.818 7.3114 16.7881 7.2829C16.7582 7.2544 16.7227 7.23179 16.6836 7.21636C16.6445 7.20094 16.6026 7.193 16.5602 7.193H16.5603Z" fill="#165E9E"/>
</g>
<defs>
<clipPath id="clip0_90_1306">
<rect width="22" height="22" fill="white"/>
</clipPath>
</defs>
</svg>
