<svg width="22" height="22" viewBox="0 0 22 22" fill="none" xmlns="http://www.w3.org/2000/svg">
<path d="M2.79615 6.11381C2.08953 6.11381 1.51482 6.68865 1.51482 7.39527V8.56333H1.09923C1.01376 8.56333 0.931787 8.59728 0.87135 8.65772C0.810914 8.71816 0.776961 8.80013 0.776961 8.8856C0.776961 8.97107 0.810914 9.05304 0.87135 9.11347C0.931787 9.17391 1.01376 9.20786 1.09923 9.20786H1.51482V9.97859C1.51482 10.1567 1.65898 10.3009 1.83709 10.3009C1.92256 10.3009 2.00453 10.2669 2.06496 10.2065C2.1254 10.146 2.15935 10.0641 2.15935 9.97859V7.39531C2.15935 7.04413 2.44501 6.7583 2.79615 6.7583C3.14729 6.7583 3.43295 7.044 3.43295 7.39527V8.51783C3.43295 8.69593 3.57715 8.84009 3.75521 8.84009C3.84068 8.84009 3.92265 8.80614 3.98309 8.7457C4.04352 8.68527 4.07748 8.6033 4.07748 8.51783V7.39527C4.07748 6.68865 3.50264 6.11381 2.79615 6.11381Z" fill="#596E99"/>
<path d="M11 10.1521C10.9145 10.1521 10.8326 10.1182 10.7721 10.0578C10.7117 9.99732 10.6777 9.91535 10.6777 9.82988V9.12162C10.6777 8.94373 10.8219 8.79936 11 8.79936C11.1781 8.79936 11.3223 8.94373 11.3223 9.12162V9.82992C11.3223 9.91539 11.2883 9.99736 11.2279 10.0578C11.1674 10.1182 11.0855 10.1522 11 10.1522V10.1521ZM14.3643 10.3009C14.322 10.3009 14.2801 10.2926 14.241 10.2764C14.2019 10.2602 14.1663 10.2364 14.1364 10.2065C14.1065 10.1766 14.0827 10.141 14.0666 10.1019C14.0504 10.0628 14.042 10.0209 14.0421 9.97859V9.51702C14.0421 9.47676 14.0091 9.44385 13.9689 9.44385H13.4096C13.3241 9.44385 13.2422 9.40989 13.1817 9.34946C13.1213 9.28902 13.0873 9.20705 13.0873 9.12158C13.0873 9.03611 13.1213 8.95414 13.1817 8.89371C13.2422 8.83327 13.3241 8.79932 13.4096 8.79932H13.9689C14.3646 8.79932 14.6866 9.12124 14.6866 9.51702V9.97859C14.6866 10.0641 14.6526 10.146 14.5922 10.2065C14.5318 10.2669 14.4498 10.3009 14.3643 10.3009ZM7.63568 10.3009C7.55021 10.3009 7.46824 10.2669 7.4078 10.2065C7.34736 10.146 7.31341 10.0641 7.31341 9.97859V9.51702C7.31341 9.12128 7.63533 8.79932 8.03112 8.79932H8.5904C8.67587 8.79932 8.75784 8.83327 8.81827 8.89371C8.87871 8.95414 8.91266 9.03611 8.91266 9.12158C8.91266 9.20705 8.87871 9.28902 8.81827 9.34946C8.75784 9.40989 8.67587 9.44385 8.5904 9.44385H8.03112C7.99086 9.44385 7.95794 9.47659 7.95794 9.51702V9.97859C7.95794 10.1567 7.81378 10.3009 7.63568 10.3009Z" fill="#3A4D7B"/>
<path d="M0 9.979H22V11.2144H0V9.979Z" fill="#D68376"/>
<path d="M20.8125 9.979H22V11.2144H20.8125V9.979Z" fill="#A65D51"/>
<path d="M0 11.2144V20.5393C0 20.7838 0.198215 20.9821 0.442578 20.9821H21.5574C21.8018 20.9821 22 20.7838 22 20.5393V11.2144H0Z" fill="#AABFD5"/>
<path d="M15.6478 14.2373H22V20.5389C22 20.7835 21.8018 20.9815 21.5574 20.9815H15.6478L15.6478 14.2373Z" fill="#FED89B"/>
<path d="M20.8125 11.2144V20.5393C20.8125 20.7838 20.6143 20.9818 20.3699 20.9818H21.5574C21.8018 20.9818 22 20.7838 22 20.5393V11.2144H20.8125Z" fill="#E2B074"/>
<path d="M0 14.2373H6.35216V20.9815H0.442621C0.198215 20.9815 0 20.7834 0 20.5389V14.2373Z" fill="#FED89B"/>
<path d="M6.35216 14.2373H15.6478V20.9815H6.35216V14.2373Z" fill="#CAE5ED"/>
<path d="M15.6478 11.2144H22V14.2376H15.6478V11.2144Z" fill="#F0F2DC"/>
<path d="M20.8125 11.2144H22V14.2376H20.8125V11.2144Z" fill="#CCC5A9"/>
<path d="M0 11.2144H6.35216V14.2376H0V11.2144Z" fill="#F0F2DC"/>
<path d="M9.50855 12.6822C9.50855 12.9806 9.26664 13.2225 8.96822 13.2225C8.66993 13.2225 8.42811 12.9806 8.42811 12.6822C8.42811 12.3839 8.66993 12.1421 8.96822 12.1421C9.26664 12.1421 9.50855 12.3839 9.50855 12.6822ZM13.5719 12.6822C13.5719 12.9806 13.3301 13.2225 13.0318 13.2225C12.7334 13.2225 12.4915 12.9806 12.4915 12.6822C12.4915 12.3839 12.7334 12.1421 13.0318 12.1421C13.3301 12.1421 13.5719 12.3839 13.5719 12.6822Z" fill="#596E99"/>
<path d="M20.6091 6.80515V5.88304C20.6091 5.85397 20.6034 5.82518 20.5923 5.79832C20.5812 5.77146 20.5649 5.74705 20.5443 5.72648C20.5238 5.70592 20.4994 5.68961 20.4725 5.67848C20.4457 5.66735 20.4169 5.66162 20.3878 5.66162H20.0276C19.9986 5.66162 19.9698 5.66734 19.9429 5.67846C19.9161 5.68958 19.8916 5.70589 19.8711 5.72645C19.8505 5.747 19.8342 5.77141 19.8231 5.79827C19.812 5.82513 19.8062 5.85392 19.8062 5.883V6.80515L19.4979 7.19303C19.3177 7.41961 19.2195 7.7006 19.2195 7.99014V9.97878H21.1958V7.99018C21.1959 7.70064 21.0978 7.41963 20.9176 7.19303L20.6091 6.80515Z" fill="#8FC264"/>
<path d="M17.584 7.6465V6.72431C17.584 6.69523 17.5783 6.66643 17.5671 6.63956C17.556 6.6127 17.5397 6.58829 17.5191 6.56773C17.4986 6.54717 17.4742 6.53086 17.4473 6.51975C17.4204 6.50863 17.3916 6.50291 17.3626 6.50293H17.0025C16.9734 6.50292 16.9447 6.50864 16.9178 6.51976C16.8909 6.53088 16.8665 6.54719 16.846 6.56774C16.8254 6.5883 16.8091 6.61271 16.798 6.63957C16.7869 6.66644 16.7811 6.69523 16.7811 6.72431V7.64646L16.4726 8.03438C16.2925 8.261 16.1944 8.54195 16.1944 8.83145V9.97919H18.1708V8.83149C18.1707 8.54197 18.0726 8.26101 17.8924 8.03438L17.584 7.6465Z" fill="#FFE266"/>
<path d="M12.4914 1.13111V0H9.50855V1.13111C9.50856 1.1712 9.49768 1.21054 9.47706 1.24492C9.45645 1.27931 9.42687 1.30744 9.39151 1.32632L6.35216 2.95109V3.98385C6.35214 4.01291 6.35785 4.04169 6.36896 4.06854C6.38006 4.0954 6.39635 4.1198 6.4169 4.14036C6.43744 4.16092 6.46183 4.17723 6.48867 4.18836C6.51552 4.19949 6.5443 4.20522 6.57336 4.20522H15.4266C15.4557 4.20522 15.4845 4.19949 15.5113 4.18836C15.5382 4.17723 15.5626 4.16092 15.5831 4.14036C15.6036 4.1198 15.6199 4.0954 15.631 4.06854C15.6422 4.04169 15.6479 4.01291 15.6478 3.98385V2.95109L12.6085 1.32632C12.5731 1.30743 12.5436 1.2793 12.523 1.24491C12.5024 1.21053 12.4915 1.1712 12.4915 1.13111H12.4914Z" fill="#AABFD5"/>
<path d="M12.6085 1.32632C12.5731 1.30743 12.5436 1.2793 12.523 1.24491C12.5024 1.21053 12.4915 1.1712 12.4915 1.13111V0H11.0086V1.13111C11.0085 1.17122 11.0194 1.21057 11.0401 1.24496C11.0607 1.27935 11.0903 1.30747 11.1257 1.32632L14.1649 2.95109V3.98385C14.1649 4.01291 14.1592 4.04169 14.1481 4.06854C14.137 4.0954 14.1207 4.1198 14.1002 4.14036C14.0796 4.16092 14.0552 4.17723 14.0284 4.18836C14.0015 4.19949 13.9728 4.20522 13.9437 4.20522H15.4266C15.4557 4.20522 15.4845 4.19949 15.5113 4.18836C15.5382 4.17723 15.5626 4.16092 15.5831 4.14036C15.6036 4.1198 15.6199 4.0954 15.631 4.06854C15.6422 4.04169 15.6479 4.01291 15.6478 3.98385V2.95109L12.6085 1.32632Z" fill="#7D8EB0"/>
<path d="M6.57336 4.2053H15.4266C15.4557 4.20529 15.4845 4.19956 15.5113 4.18843C15.5382 4.17731 15.5626 4.161 15.5831 4.14044C15.6036 4.11988 15.6199 4.09548 15.631 4.06862C15.6422 4.04177 15.6479 4.01299 15.6478 3.98393V2.95117H6.35216V3.98393C6.35214 4.01299 6.35785 4.04177 6.36896 4.06862C6.38006 4.09548 6.39635 4.11988 6.4169 4.14044C6.43744 4.161 6.46183 4.17731 6.48867 4.18843C6.51552 4.19956 6.5443 4.20529 6.57336 4.2053Z" fill="#596E99"/>
<path d="M14.1649 3.98393C14.1649 4.01299 14.1592 4.04177 14.1481 4.06862C14.137 4.09548 14.1207 4.11988 14.1002 4.14044C14.0796 4.161 14.0552 4.17731 14.0284 4.18843C14.0015 4.19956 13.9728 4.20529 13.9437 4.2053C15.3999 4.18115 15.4573 4.25751 15.5774 4.14523C15.6208 4.10458 15.6478 4.04365 15.6478 3.98393V2.95117H14.1649V3.98393Z" fill="#3A4D7B"/>
<path d="M19.6319 12.7256H18.0162C17.9307 12.7256 17.8487 12.6916 17.7883 12.6312C17.7278 12.5708 17.6939 12.4888 17.6939 12.4033C17.6939 12.2253 17.8381 12.0811 18.0162 12.0811H19.6319C19.7173 12.0811 19.7993 12.115 19.8597 12.1754C19.9202 12.2359 19.9541 12.3179 19.9541 12.4033C19.9541 12.4888 19.9202 12.5708 19.8597 12.6312C19.7993 12.6916 19.7173 12.7256 19.6319 12.7256ZM3.98385 12.7256H2.36814C2.28267 12.7256 2.2007 12.6916 2.14026 12.6312C2.07982 12.5708 2.04587 12.4888 2.04587 12.4033C2.04587 12.3179 2.07982 12.2359 2.14026 12.1754C2.2007 12.115 2.28267 12.0811 2.36814 12.0811H3.98385C4.16191 12.0811 4.30611 12.2253 4.30611 12.4033C4.30611 12.4888 4.27216 12.5708 4.21172 12.6312C4.15129 12.6916 4.06932 12.7256 3.98385 12.7256ZM16.7323 18.3532C16.5544 18.3532 16.41 18.2088 16.41 18.0309V16.6383C16.41 16.5528 16.444 16.4708 16.5044 16.4104C16.5648 16.35 16.6468 16.316 16.7323 16.316C16.8178 16.316 16.8997 16.35 16.9602 16.4104C17.0206 16.4708 17.0546 16.5528 17.0546 16.6383V18.0309C17.0546 18.1164 17.0206 18.1983 16.9602 18.2588C16.8997 18.3192 16.8178 18.3532 16.7323 18.3532ZM5.26771 18.3532C5.18224 18.3532 5.10027 18.3192 5.03983 18.2588C4.9794 18.1983 4.94545 18.1164 4.94545 18.0309V16.6383C4.94545 16.5528 4.9794 16.4708 5.03983 16.4104C5.10027 16.35 5.18224 16.316 5.26771 16.316C5.35318 16.316 5.43515 16.35 5.49559 16.4104C5.55602 16.4708 5.58998 16.5528 5.58998 16.6383V18.0309C5.58998 18.2088 5.4456 18.3532 5.26771 18.3532Z" fill="#A65D51"/>
<path d="M7.59155 19.5354V15.6843C7.59153 15.6552 7.59724 15.6264 7.60836 15.5996C7.61948 15.5727 7.63579 15.5483 7.65635 15.5277C7.67691 15.5072 7.70132 15.4908 7.72818 15.4797C7.75505 15.4686 7.78384 15.4629 7.81292 15.4629H14.1871C14.2162 15.4629 14.245 15.4686 14.2718 15.4797C14.2987 15.4908 14.3231 15.5072 14.3437 15.5277C14.3642 15.5483 14.3805 15.5727 14.3916 15.5996C14.4028 15.6264 14.4085 15.6552 14.4085 15.6843V19.5354C14.4085 19.5941 14.3851 19.6504 14.3436 19.6919C14.3021 19.7334 14.2458 19.7568 14.1871 19.7568H7.81292C7.75422 19.7567 7.69793 19.7334 7.65642 19.6919C7.61492 19.6504 7.59158 19.5941 7.59155 19.5354Z" fill="#56A6E8"/>
<path d="M14.1871 20.0789H7.81292C7.51317 20.0789 7.26928 19.8351 7.26928 19.5354V15.6843C7.26928 15.3845 7.51317 15.1406 7.81292 15.1406H14.1871C14.4868 15.1406 14.7307 15.3845 14.7307 15.6843V19.5354C14.7307 19.8351 14.4868 20.0789 14.1871 20.0789ZM7.91381 19.4343H14.0862V15.7852H7.91381V19.4343Z" fill="#596E99"/>
</svg>
