<svg width="22" height="22" viewBox="0 0 22 22" fill="none" xmlns="http://www.w3.org/2000/svg">
<g clip-path="url(#clip0_90_1347)">
<path d="M0.997925 0H14.999V20.856H0.997925V0Z" fill="#64798A"/>
<path d="M2.5699 1.61328H4.36713V4.58621H2.5699V1.61328ZM5.58977 1.61328H7.387V4.58621H5.58977V1.61328ZM8.60991 1.61328H10.4071V4.58621H8.60991V1.61328ZM11.6307 1.61328H13.4279V4.58621H11.6307V1.61328ZM2.5699 6.30955H4.36713V9.28248H2.5699V6.30955ZM5.58977 6.30955H7.387V9.28248H5.58977V6.30955Z" fill="#44C4A1"/>
<path d="M8.60991 6.30957H10.4071V9.2825H8.60991V6.30957ZM11.6307 6.30957H13.4279V9.2825H11.6307V6.30957Z" fill="#27A2DB"/>
<path d="M10.4071 13.9769H8.60982L10.4071 11.0039V13.9769ZM13.427 13.9769H11.6298L13.427 11.0039V13.9769Z" fill="#2D93BA"/>
<path d="M2.5699 15.6992H4.36713V18.6722H2.5699V15.6992ZM5.58977 15.6992H7.387V18.6722H5.58977V15.6992Z" fill="#44C4A1"/>
<path d="M8.60991 15.6992H10.4071V18.6722H8.60991V15.6992ZM11.6307 15.6992H13.4279V18.6722H11.6307V15.6992Z" fill="#27A2DB"/>
<path d="M4.36709 4.58631H2.5699L4.36709 1.61328V4.58631ZM7.38709 4.58631H5.58986L7.38709 1.61328V4.58631ZM10.4071 4.58631H8.60982L10.4071 1.61328V4.58631ZM13.427 4.58631H11.6298L13.427 1.61328V4.58631ZM4.36709 9.28154H2.5699L4.36709 6.30856V9.28154ZM7.38709 9.28154H5.58986L7.38709 6.30856V9.28154Z" fill="#3EA69B"/>
<path d="M10.4071 9.28157H8.60982L10.4071 6.30859V9.28157ZM13.427 9.28157H11.6298L13.427 6.30859V9.28157Z" fill="#2D93BA"/>
<path d="M2.5699 11.0029H4.36713V13.9759H2.5699V11.0029ZM5.58977 11.0029H7.387V13.9759H5.58977V11.0029Z" fill="#44C4A1"/>
<path d="M8.60991 11.0029H10.4071V13.9759H8.60991V11.0029ZM11.6307 11.0029H13.4279V13.9759H11.6307V11.0029Z" fill="#27A2DB"/>
<path d="M4.36709 18.6722H2.5699L4.36709 15.6992V18.6722ZM7.38709 18.6722H5.58986L7.38709 15.6992V18.6722Z" fill="#3EA69B"/>
<path d="M10.4071 18.6722H8.60982L10.4071 15.6992V18.6722ZM13.427 18.6722H11.6298L13.427 15.6992V18.6722Z" fill="#2D93BA"/>
<path d="M8.60991 6.27832H20.616V20.8573H8.60991V6.27832Z" fill="#D5D6DB"/>
<path d="M12.6133 16.856H16.6153V20.8573H12.6133V16.856Z" fill="#64798A"/>
<path d="M12.1108 16.1821H17.1151V16.8559H12.1108V16.1821Z" fill="#3A556A"/>
<path d="M9.60957 7.63867H11.2657V10.5274H9.60957V7.63867ZM12.3933 7.63867H14.0495V10.5274H12.3933V7.63867ZM15.1771 7.63867H16.8332V10.5274H15.1771V7.63867ZM17.9593 7.63867H19.6155V10.5274H17.9593V7.63867Z" fill="#27A2DB"/>
<path d="M11.2665 10.5275H9.61032L11.2665 7.63867V10.5275ZM14.0495 10.5275H12.3933L14.0495 7.63867V10.5275ZM16.8325 10.5275H15.1763L16.8325 7.63867V10.5275ZM19.6155 10.5275H17.9593L19.6155 7.63867V10.5275Z" fill="#2D93BA"/>
<path d="M9.60957 11.9326H11.2657V14.8214H9.60957V11.9326ZM12.3933 11.9326H14.0495V14.8214H12.3933V11.9326ZM15.1771 11.9326H16.8332V14.8214H15.1771V11.9326ZM17.9593 11.9326H19.6155V14.8214H17.9593V11.9326ZM17.9593 16.1821H19.6155V19.0709H17.9593V16.1821ZM9.60957 16.1821H11.2657V19.0709H9.60957V16.1821Z" fill="#27A2DB"/>
<path d="M11.2665 14.8219H9.61032L11.2665 11.9331V14.8219ZM14.0495 14.8219H12.3933L14.0495 11.9331V14.8219ZM16.8325 14.8219H15.1763L16.8325 11.9331V14.8219ZM19.6155 14.8219H17.9593L19.6155 11.9331V14.8219ZM19.6155 19.0711H17.9593L19.6155 16.1824V19.0711ZM11.2665 19.0711H9.61032L11.2665 16.1824V19.0711Z" fill="#2D93BA"/>
<path d="M21.4209 21.9998H0.579059C0.501264 21.9998 0.42666 21.9689 0.371651 21.9139C0.316642 21.8589 0.285733 21.7843 0.285721 21.7065V21.1503C0.285721 21.0725 0.316626 20.9979 0.371637 20.9429C0.426649 20.8878 0.501261 20.8569 0.579059 20.8569H21.4209C21.4987 20.8569 21.5733 20.8878 21.6283 20.9429C21.6834 20.9979 21.7143 21.0725 21.7143 21.1503V21.7065C21.7143 21.7843 21.6833 21.8589 21.6283 21.9139C21.5733 21.9689 21.4987 21.9998 21.4209 21.9998Z" fill="#3A556A"/>
<path d="M4.36709 13.9769H2.5699L4.36709 11.0039V13.9769ZM7.38709 13.9769H5.58986L7.38709 11.0039V13.9769Z" fill="#3EA69B"/>
</g>
<defs>
<clipPath id="clip0_90_1347">
<rect width="22" height="22" fill="white"/>
</clipPath>
</defs>
</svg>
