<svg width="22" height="20" viewBox="0 0 22 20" fill="none" xmlns="http://www.w3.org/2000/svg">
<path d="M21.8308 11.6689V12.6481L11.0369 18.9207V17.9417L21.8308 11.6689Z" fill="#8FB545"/>
<path d="M11.0369 17.9415V18.9205L0.16922 12.6471V11.668L11.0369 17.9415Z" fill="#9FC14C"/>
<path d="M21.8308 12.6401V13.6191L11.0369 19.8918V18.9128L21.8308 12.6401Z" fill="#875744"/>
<path d="M11.0369 18.9132V19.8922L0.16922 13.6188V12.6396L11.0369 18.9132Z" fill="#9E6A4D"/>
<path d="M21.8308 11.6689L11.0369 17.9416L0.16922 11.6682L10.966 5.39551L21.8308 11.6689Z" fill="#B2CC5E"/>
<path d="M14.3237 8.50788L14.3124 14.2116L6.23547 9.54848L6.24698 3.84473L14.3237 8.50788Z" fill="#DADADA"/>
<path d="M19.2838 5.62556L14.3237 8.50806L6.24698 3.84491L11.2071 0.962402L19.2838 5.62556Z" fill="#EBEBEB"/>
<path d="M19.2838 5.62522L19.2723 11.329L14.3122 14.2115L14.3237 8.50773L17.4446 5.32568L19.2838 5.62522Z" fill="#CCCCCC"/>
<path d="M18.1222 9.11414L17.1855 9.63537V7.68905L18.1221 7.16748L18.1222 9.11414Z" fill="#5F6269"/>
<path d="M18.1222 9.11414L17.1855 9.63537V7.68905L18.1221 7.16748L18.1222 9.11414Z" fill="#78C2FF"/>
<path d="M18.0241 9.06659V7.22045L18.1222 7.16748V9.11414L18.0241 9.06659Z" fill="#C1C1C1"/>
<path d="M17.1854 9.52198L18.0241 9.06641L18.1222 9.11379L17.1855 9.63502L17.1854 9.52198Z" fill="white"/>
<path d="M17.0443 7.62076V9.89353L18.2634 9.18276V6.91016L17.0443 7.62076ZM18.1222 8.12168L17.6613 8.38162V7.97614L18.1221 7.71519L18.1222 8.12168ZM17.6054 8.41293L17.1856 8.64985V8.24539L17.6054 8.00745V8.41293ZM17.1856 7.68929L17.6054 7.45542V7.94331L17.1856 8.18091V7.68929ZM18.1221 7.16773V7.65088L17.6613 7.91166V7.42428L18.1221 7.16773ZM18.1221 9.11439L17.6613 9.37094V8.44593L18.1221 8.18599V9.11439ZM17.1856 9.63562V8.71399L17.6054 8.4774V9.40174L17.1856 9.63562Z" fill="#4C525D"/>
<path d="M16.7437 9.89312L15.807 10.4144V8.46769L16.7437 7.94629V9.89312Z" fill="#5F6269"/>
<path d="M16.7437 9.89312L15.807 10.4144V8.46769L16.7437 7.94629V9.89312Z" fill="#78C2FF"/>
<path d="M16.6455 9.84555V7.99958L16.7437 7.94678V9.89327L16.6455 9.84555Z" fill="#C1C1C1"/>
<path d="M15.807 10.3013L16.6455 9.8457L16.7437 9.89326L15.807 10.4145V10.3013Z" fill="white"/>
<path d="M15.6657 8.39973V10.6722L16.885 9.96173V7.68896L15.6657 8.39973ZM16.7437 8.90066L16.2827 9.1606V8.75478L16.7437 8.494V8.90066ZM16.227 9.19173L15.807 9.42866V9.0242L16.227 8.78626V9.19173ZM15.807 8.4681L16.227 8.23423V8.72212L15.807 8.95972V8.4681ZM16.7437 7.9467V8.42969L16.2827 8.69064V8.20326L16.7437 7.9467ZM16.7437 9.8932L16.2827 10.1499V9.22473L16.7437 8.9648V9.8932ZM15.807 10.4144V9.49296L16.227 9.25621V10.1807L15.807 10.4144Z" fill="#4C525D"/>
<path d="M17.4443 5.20869L8.69321 0.10791L11.5718 0.823756L20.3229 5.92454L17.4443 5.20869Z" fill="#E25656"/>
<path d="M14.6293 9.28885L5.87822 4.1879L5.82965 4.13916L14.5809 9.23994L14.6293 9.28885Z" fill="#B74848"/>
<path d="M14.5809 9.23977L5.82947 4.13899L8.69336 0.10791L17.4443 5.20869L14.5809 9.23977Z" fill="#F06260"/>
<path d="M20.3233 5.92573L20.319 5.93419L20.2754 6.02845L17.4451 5.3258L14.6288 9.28817L14.5809 9.24045L17.4436 5.20903L20.3205 5.92285L20.3233 5.92573ZM8.83011 0.187618L8.69321 0.10791L11.5718 0.823756L11.7089 0.903295L8.83011 0.187618Z" fill="#CC4E4E"/>
<path d="M5.96656 4.2187L5.82965 4.13899L8.69337 0.10791L8.83011 0.187618L5.96656 4.2187Z" fill="#E25656"/>
<path d="M9.31038 0.467891L9.17365 0.388184L12.0523 1.10403L12.1892 1.18357L9.31038 0.467891Z" fill="#CC4E4E"/>
<path d="M6.447 4.49897L6.31009 4.41926L9.17347 0.388184L9.31055 0.467891L6.447 4.49897Z" fill="#E25656"/>
<path d="M9.79082 0.747676L9.65408 0.667969L12.5327 1.38381L12.6696 1.46335L9.79082 0.747676Z" fill="#CC4E4E"/>
<path d="M6.9273 4.77875L6.79056 4.69905L9.65394 0.667969L9.79102 0.747676L6.9273 4.77875Z" fill="#E25656"/>
<path d="M10.2713 1.02795L10.1344 0.948242L13.0132 1.66409L13.1499 1.74363L10.2713 1.02795Z" fill="#CC4E4E"/>
<path d="M7.40773 5.05903L7.271 4.97932L10.1344 0.948242L10.2713 1.02778L7.40773 5.05903Z" fill="#E25656"/>
<path d="M10.7517 1.30773L10.6148 1.22803L13.4934 1.94387L13.6305 2.02341L10.7517 1.30773Z" fill="#CC4E4E"/>
<path d="M7.88819 5.33881L7.75128 5.2591L10.6148 1.22803L10.7517 1.30757L7.88819 5.33881Z" fill="#E25656"/>
<path d="M11.2322 1.58801L11.0953 1.5083L13.9739 2.22415L14.111 2.30369L11.2322 1.58801Z" fill="#CC4E4E"/>
<path d="M8.36846 5.61925L8.23172 5.53938L11.0953 1.5083L11.2322 1.58818L8.36846 5.61925Z" fill="#E25656"/>
<path d="M11.7125 1.86828L11.5757 1.78857L14.4543 2.50442L14.5912 2.58396L11.7125 1.86828Z" fill="#CC4E4E"/>
<path d="M8.84907 5.89904L8.71216 5.81916L11.5755 1.78809L11.7126 1.86796L8.84907 5.89904Z" fill="#E25656"/>
<path d="M12.1931 2.14824L12.056 2.06836L14.9348 2.78421L15.0717 2.86391L12.1931 2.14824Z" fill="#CC4E4E"/>
<path d="M9.3295 6.17931L9.1926 6.09944L12.056 2.06836L12.1931 2.14824L9.3295 6.17931Z" fill="#E25656"/>
<path d="M12.6733 2.42802L12.5366 2.34814L15.4152 3.06399L15.5521 3.1437L12.6733 2.42802Z" fill="#CC4E4E"/>
<path d="M9.8098 6.4591L9.67307 6.37922L12.5365 2.34814L12.6734 2.42802L9.8098 6.4591Z" fill="#E25656"/>
<path d="M13.1538 2.70829L13.0169 2.62842L15.8955 3.34426L16.0326 3.42397L13.1538 2.70829Z" fill="#CC4E4E"/>
<path d="M10.2902 6.73937L10.1535 6.6595L13.0169 2.62842L13.1538 2.70829L10.2902 6.73937Z" fill="#E25656"/>
<path d="M13.6342 2.98823L13.4973 2.90869L16.3759 3.62437L16.513 3.70408L13.6342 2.98823Z" fill="#CC4E4E"/>
<path d="M10.7707 7.01931L10.6338 6.93977L13.4973 2.90869L13.6343 2.98823L10.7707 7.01931Z" fill="#E25656"/>
<path d="M14.1145 3.26835L13.9778 3.18848L16.8564 3.90432L16.9935 3.98403L14.1145 3.26835Z" fill="#CC4E4E"/>
<path d="M11.2511 7.29958L11.1142 7.22004L13.9778 3.18896L14.1145 3.2685L11.2511 7.29958Z" fill="#E25656"/>
<path d="M14.595 3.54829L14.4582 3.46875L17.3368 4.18443L17.4737 4.26413L14.595 3.54829Z" fill="#CC4E4E"/>
<path d="M11.7316 7.57953L11.5947 7.49983L14.4581 3.46875L14.5951 3.54846L11.7316 7.57953Z" fill="#E25656"/>
<path d="M15.0754 3.82856L14.9387 3.74902L17.8173 4.4647L17.9542 4.54441L15.0754 3.82856Z" fill="#CC4E4E"/>
<path d="M12.2118 7.85932L12.0751 7.77961L14.9385 3.74854L15.0756 3.82824L12.2118 7.85932Z" fill="#E25656"/>
<path d="M15.5557 4.10852L15.4189 4.02881L18.2977 4.74465L18.4345 4.82436L15.5557 4.10852Z" fill="#CC4E4E"/>
<path d="M12.6923 8.13959L12.5556 8.05989L15.419 4.02881L15.5559 4.10852L12.6923 8.13959Z" fill="#E25656"/>
<path d="M16.0363 4.38879L15.8994 4.30908L18.778 5.02493L18.9151 5.10447L16.0363 4.38879Z" fill="#CC4E4E"/>
<path d="M13.1729 8.41987L13.0358 8.34016L15.8994 4.30908L16.0363 4.38879L13.1729 8.41987Z" fill="#E25656"/>
<path d="M16.5167 4.66857L16.3798 4.58887L19.2584 5.30471L19.3955 5.38425L16.5167 4.66857Z" fill="#CC4E4E"/>
<path d="M13.6532 8.69965L13.5163 8.61994L16.3798 4.58887L16.5168 4.66858L13.6532 8.69965Z" fill="#E25656"/>
<path d="M16.997 4.94885L16.8603 4.86914L19.7389 5.58499L19.8758 5.66453L16.997 4.94885Z" fill="#CC4E4E"/>
<path d="M14.1336 8.97993L13.9967 8.90022L16.8601 4.86914L16.9972 4.94885L14.1336 8.97993Z" fill="#E25656"/>
<path d="M20.3232 5.92571L20.319 5.93418L17.4775 5.22848L17.4436 5.20902L17.3409 5.14844L20.219 5.86513L20.3205 5.92284L20.3232 5.92571Z" fill="#CC4E4E"/>
<path d="M14.6141 9.25971L14.4772 9.18L17.3406 5.14893L17.4776 5.22863L14.6141 9.25971Z" fill="#E25656"/>
<path d="M10.2005 9.09082L10.7529 9.40982L10.8399 9.46008L10.8397 9.55824L10.7527 9.50814L10.2002 9.18914L10.2005 9.09082Z" fill="#B7805A"/>
<path d="M10.2005 9.0905L10.2017 8.65625L10.7543 8.97525L10.7529 9.4095L10.2005 9.0905Z" fill="#4C525D"/>
<path d="M10.7543 8.97539V8.93799L10.8412 8.98825L10.8399 9.4599L10.7529 9.40963L10.7543 8.97539ZM9.4219 10.1737L9.41852 11.3841L10.8319 12.1999L10.8353 10.9896L9.4219 10.1737ZM10.7673 11.0442L10.7642 12.0579V12.0798L10.7451 12.0688L9.49484 11.3468L9.47572 11.3358V11.3138L9.47876 10.3003V10.2783L9.49789 10.2895L10.7482 11.0114L10.7673 11.0224V11.0442Z" fill="#B7805A"/>
<path d="M10.7292 11.044L10.7263 12.0139L9.51398 11.3139L9.51668 10.3442L10.7292 11.044ZM10.3852 11.6089L10.3867 11.056L9.69015 10.6538L9.68845 11.2066L10.3852 11.6089Z" fill="#B7805A"/>
<path d="M10.3867 11.0559L10.385 11.6089L9.68863 11.2067L9.69015 10.6538L10.3867 11.0559Z" fill="#9E6A4D"/>
<path d="M10.7482 11.0114L10.7673 11.0224V11.0443L10.7643 12.058V12.0798L10.7453 12.0688L9.49469 11.3468L9.47574 11.3358V11.3138L9.47878 10.3003V10.2783L9.49791 10.2895L10.7482 11.0114ZM10.7262 12.014L10.7291 11.0443L9.51669 10.3442L9.51398 11.314L10.7262 12.014Z" fill="#9E6A4D"/>
<path d="M9.50128 10.0947L9.505 8.7876L10.1024 9.13232L10.0987 10.4396L9.50128 10.0947Z" fill="#4C525D"/>
<path d="M9.46456 8.66553L9.50517 8.68922L10.1026 9.03394L10.1024 9.13227L9.505 8.78737L9.46439 8.76385L9.46456 8.66553Z" fill="#B7805A"/>
<path d="M10.1965 10.4963L10.2002 9.18896L10.7527 9.50796L10.749 10.8153L10.1965 10.4963Z" fill="#4C525D"/>
<path d="M10.749 10.8151L10.7528 9.50782L10.8397 9.55808L10.8358 10.9028L10.7489 10.8525L10.749 10.8151ZM10.2019 8.61885L10.2017 8.65625L10.2006 9.0905L10.2002 9.18882L10.1965 10.4961V10.5335L10.0985 10.477V10.4398L10.1024 9.13247L10.1026 9.03415L10.1039 8.60007V8.5625L10.2019 8.61885Z" fill="#B7805A"/>
<path d="M9.50534 8.68945L9.50653 8.25537L10.1039 8.60026L10.1026 9.03434L9.50534 8.68945Z" fill="#4C525D"/>
<path d="M9.42209 10.1978L9.42801 8.08936L10.8416 8.90556L10.8413 8.98831L10.7543 8.93805V8.97545L10.2017 8.65645V8.61922L10.1039 8.56252V8.60009L9.50653 8.2552L9.50535 8.68928L9.46457 8.66576L9.46423 8.76408L9.50501 8.78777L9.50129 10.0949L10.0987 10.4398V10.4772L10.1963 10.5337L10.1965 10.4963L10.749 10.8153V10.8526L10.8358 10.903L10.8355 11.0138L9.42209 10.1978Z" fill="#B7805A"/>
<path d="M10.8319 12.2003L5.95607 15.0155L4.54248 14.1993L9.41836 11.3843L10.8319 12.2003Z" fill="white"/>
<path d="M7.50452 11.6953L5.05863 10.2739L5.05237 8.06396L7.49826 9.4855L7.50452 11.6953Z" fill="#DADADA"/>
<path d="M7.49826 9.48501L5.05237 8.06381L6.2732 6.46289L8.71926 7.88443L7.49826 9.48501Z" fill="#EBEBEB"/>
<path d="M8.71926 7.88428L8.72789 10.9888L7.50452 11.6952L7.49826 9.48503L8.71926 7.88428Z" fill="#CCCCCC"/>
<path d="M5.40081 8.40381L5.39066 10.3239L7.28029 11.4148L7.29044 9.49467L5.40081 8.40381Z" fill="#5F656F"/>
<path d="M5.39998 8.40381L5.39947 8.43749L7.28944 9.52852V9.49467L5.39998 8.40381ZM5.39897 8.56864L5.39846 8.60232L7.28843 9.69335V9.6595L5.39897 8.56864ZM5.39812 8.73347L5.39761 8.76698L7.28758 9.85818V9.82433L5.39812 8.73347ZM5.39711 8.8983L5.3966 8.93181L7.28674 10.023V9.98916L5.39711 8.8983ZM5.39626 9.06296L5.39575 9.09681L7.28572 10.1878V10.154L5.39626 9.06296ZM5.39524 9.22779L5.39474 9.26147L7.28488 10.3527V10.3187L5.39524 9.22779ZM5.3944 9.39245L5.39389 9.4263L7.28386 10.5173V10.4835L5.3944 9.39245ZM5.39338 9.55745L5.39288 9.59113L7.28301 10.6822V10.6483L5.39338 9.55745ZM5.39254 9.72212L5.39203 9.75596L7.282 10.847V10.8131L5.39254 9.72212ZM5.39169 9.88695L5.39118 9.92079L7.28115 11.0118V10.978L5.39169 9.88695ZM5.39067 10.0465L5.39017 10.0802L7.28014 11.1714V11.1374L5.39067 10.0465ZM5.39067 10.2166L5.39017 10.2503L7.28014 11.3415V11.3075L5.39067 10.2166Z" fill="#555B66"/>
<path d="M5.40083 8.40373L5.24988 8.31641L5.24429 10.3891L5.39068 10.3238L5.40083 8.40373Z" fill="#CCCCCC"/>
<path d="M5.39068 10.3237L5.24429 10.3891L7.28488 11.5672L7.28031 11.4146L5.39068 10.3237Z" fill="white"/>
<path d="M7.28488 11.5673L3.63372 13.6756L1.59161 12.4893L5.24277 10.3813L7.28488 11.5673Z" fill="white"/>
<path d="M12.893 14.806L10.4471 13.3845L10.4409 11.1743L12.8867 12.5959L12.893 14.806Z" fill="#DADADA"/>
<path d="M12.8869 12.596L10.4409 11.1745L11.6617 9.57373L14.1076 10.9953L12.8869 12.596Z" fill="#EBEBEB"/>
<path d="M14.1076 10.9951L14.1164 14.0998L12.893 14.806L12.8867 12.596L14.1076 10.9951Z" fill="#CCCCCC"/>
<path d="M10.7893 11.5146L10.7791 13.4346L12.6686 14.5254L12.6788 12.6055L10.7893 11.5146Z" fill="#5F656F"/>
<path d="M10.7884 11.5146L10.7879 11.5482L12.6779 12.6394V12.6055L10.7884 11.5146ZM10.7874 11.6793L10.7869 11.7132L12.6771 12.8042V12.7703L10.7874 11.6793ZM10.7866 11.8441L10.7861 11.878L12.676 12.969V12.9352L10.7866 11.8441ZM10.7856 12.009L10.7851 12.0426L12.6754 13.1338V13.1L10.7856 12.009ZM10.7847 12.1738L10.7842 12.2075L12.6742 13.2985V13.2647L10.7847 12.1738ZM10.7837 12.3386L10.7832 12.3723L12.6733 13.4633V13.4295L10.7837 12.3386ZM10.7829 12.5035L10.7823 12.537L12.6723 13.6282V13.5943L10.7829 12.5035ZM10.7818 12.6681L10.7813 12.702L12.6715 13.793V13.7592L10.7818 12.6681ZM10.781 12.833L10.7805 12.8668L12.6705 13.9578V13.924L10.781 12.833ZM10.78 12.9978L10.7795 13.0315L12.6696 14.1227V14.0888L10.78 12.9978ZM10.7791 13.1574L10.7786 13.191L12.6686 14.2821V14.2482L10.7791 13.1574ZM10.7791 13.3274L10.7786 13.3611L12.6686 14.4522V14.4183L10.7791 13.3274Z" fill="#555B66"/>
<path d="M10.7893 11.5146L10.6383 11.4272L10.6328 13.4998L10.7791 13.4345L10.7893 11.5146Z" fill="#CCCCCC"/>
<path d="M10.7791 13.4346L10.6328 13.4999L12.6733 14.6781L12.6686 14.5254L10.7791 13.4346Z" fill="white"/>
<path d="M12.6733 14.678L9.02218 16.7861L6.98007 15.6001L10.6312 13.4922L12.6733 14.678Z" fill="white"/>
<path d="M1.87082 11.5352C1.99436 11.6066 1.99605 11.723 1.87218 11.7948C1.74864 11.8667 1.54675 11.8667 1.42321 11.7953C1.29865 11.7233 1.29798 11.6066 1.42168 11.5346C1.54539 11.4627 1.74627 11.4632 1.87082 11.5352Z" fill="#9FC14C"/>
<path d="M1.76576 10.9904L1.76406 11.6222C1.76406 11.6396 1.75256 11.657 1.72971 11.6702C1.68368 11.697 1.60905 11.697 1.56268 11.6702C1.53949 11.6567 1.52782 11.6391 1.52799 11.6215L1.52968 10.9897C1.52968 11.0073 1.54136 11.0249 1.56454 11.0385C1.61091 11.0652 1.68554 11.0652 1.7314 11.0385C1.75425 11.0251 1.76576 11.0079 1.76576 10.9904Z" fill="#875744"/>
<path d="M1.73089 10.9413C1.77726 10.9681 1.77743 11.0114 1.7314 11.0381C1.68553 11.0649 1.61073 11.0649 1.56453 11.0381C1.51833 11.0114 1.518 10.9681 1.56403 10.9413C1.60989 10.9147 1.68469 10.9147 1.73089 10.9413Z" fill="#89633E"/>
<path d="M2.36802 10.7399C2.36802 11.0015 2.03464 11.2137 1.62408 11.2137C1.21353 11.2137 0.879974 11.0013 0.879974 10.7397C0.879974 10.6143 0.956805 10.4672 1.08204 10.3479C1.21776 10.2196 1.41051 10.124 1.62391 10.124C1.83731 10.124 2.0299 10.2196 2.16545 10.3479C2.29085 10.4671 2.36785 10.6143 2.36785 10.7397L2.36802 10.7399Z" fill="#8FB545"/>
<path d="M2.1658 10.3479C2.06003 10.4731 1.85915 10.5556 1.62409 10.5556C1.38903 10.5556 1.18815 10.473 1.08221 10.3479C1.21794 10.2196 1.41069 10.124 1.62409 10.124C1.83749 10.124 2.03008 10.2196 2.16563 10.3479H2.1658Z" fill="#81AA40"/>
<path d="M2.19828 10.1425C2.19828 10.3444 1.94105 10.5081 1.62408 10.5081C1.30677 10.5081 1.04971 10.3444 1.04971 10.1425C1.04971 10.0398 1.11639 9.91847 1.22368 9.82404C1.32691 9.73299 1.46839 9.66699 1.62408 9.66699C1.77977 9.66699 1.92091 9.73299 2.02431 9.82404C2.13161 9.91847 2.19828 10.0398 2.19828 10.1425Z" fill="#8FB545"/>
<path d="M2.02432 9.82404C1.94106 9.91255 1.79434 9.97025 1.62409 9.97025C1.45385 9.97025 1.30679 9.91271 1.22369 9.82404C1.32692 9.73299 1.4684 9.66699 1.62409 9.66699C1.77979 9.66699 1.92092 9.73299 2.02432 9.82404Z" fill="#81AA40"/>
<path d="M2.05056 9.65114C2.05056 9.80108 1.85967 9.92259 1.6241 9.92259C1.38853 9.92259 1.1973 9.80108 1.1973 9.65097C1.1973 9.50087 1.62393 8.89502 1.62393 8.89502C1.62393 8.89502 2.05056 9.5012 2.05056 9.65114Z" fill="#8FB545"/>
<path d="M3.6689 10.5075C3.79261 10.5786 3.79413 10.695 3.67059 10.7669C3.54672 10.8388 3.34499 10.8388 3.22146 10.7674C3.0969 10.6955 3.09622 10.5787 3.21993 10.5068C3.34364 10.4349 3.54452 10.4354 3.66907 10.5073L3.6689 10.5075Z" fill="#9FC14C"/>
<path d="M3.56399 9.96259L3.5623 10.5943C3.5623 10.6118 3.55062 10.6292 3.52794 10.6424C3.48191 10.6691 3.40728 10.6691 3.36091 10.6424C3.33773 10.6289 3.32605 10.6113 3.32605 10.5937L3.32791 9.96191C3.32791 9.97951 3.33942 9.99711 3.36277 10.0107C3.40897 10.0374 3.48377 10.0374 3.52963 10.0107C3.55248 9.99745 3.56399 9.98002 3.56399 9.96259Z" fill="#875744"/>
<path d="M3.52914 9.91397C3.57551 9.94071 3.57568 9.98403 3.52964 10.0108C3.48378 10.0375 3.40898 10.0375 3.36278 10.0108C3.31658 9.98403 3.31624 9.94071 3.36228 9.91397C3.40814 9.8874 3.48294 9.8874 3.52914 9.91397Z" fill="#89633E"/>
<path d="M4.16628 9.71234C4.16628 9.97397 3.8329 10.1862 3.42234 10.1862C3.01179 10.1862 2.67841 9.97397 2.67841 9.71234C2.67841 9.58694 2.75524 9.43988 2.88047 9.32057C3.01619 9.1923 3.20894 9.09668 3.42234 9.09668C3.63574 9.09668 3.82833 9.1923 3.96388 9.32057C4.08928 9.43971 4.16628 9.58694 4.16628 9.71234Z" fill="#8FB545"/>
<path d="M3.96405 9.32057C3.85828 9.4458 3.6574 9.52822 3.42234 9.52822C3.18728 9.52822 2.9864 9.44563 2.88046 9.32057C3.01619 9.1923 3.20894 9.09668 3.42234 9.09668C3.63574 9.09668 3.82849 9.1923 3.96405 9.32057Z" fill="#81AA40"/>
<path d="M3.99653 9.11519C3.99653 9.31708 3.7393 9.48073 3.42233 9.48073C3.10502 9.48073 2.84796 9.31708 2.84796 9.11519C2.84796 9.01246 2.91464 8.89113 3.02193 8.79669C3.12516 8.70565 3.26664 8.63965 3.42233 8.63965C3.57802 8.63965 3.71916 8.70565 3.82256 8.79669C3.92985 8.89113 3.99653 9.01246 3.99653 9.11519Z" fill="#8FB545"/>
<path d="M3.82257 8.79686C3.73931 8.8852 3.59259 8.94291 3.42217 8.94291C3.25176 8.94291 3.10503 8.88537 3.02194 8.79669C3.12517 8.70565 3.26665 8.63965 3.42234 8.63965C3.57803 8.63965 3.71917 8.70582 3.82257 8.79686Z" fill="#81AA40"/>
<path d="M3.84881 8.62363C3.84881 8.77374 3.65791 8.89524 3.42234 8.89524C3.18678 8.89524 2.99554 8.77374 2.99554 8.62363C2.99554 8.47352 3.42218 7.86768 3.42218 7.86768C3.42218 7.86768 3.84881 8.47369 3.84881 8.62363Z" fill="#8FB545"/>
<path d="M10.9848 17.102C11.1083 17.1735 11.1098 17.2899 10.9861 17.3616C10.8624 17.4336 10.6607 17.4336 10.537 17.3622C10.4126 17.2902 10.4118 17.1735 10.5356 17.1015C10.6592 17.0296 10.86 17.0301 10.9846 17.102H10.9848Z" fill="#9FC14C"/>
<path d="M10.8795 16.5573L10.8778 17.1891C10.8778 17.2065 10.8663 17.2239 10.8434 17.2371C10.7976 17.2639 10.7228 17.2639 10.6766 17.2371C10.6532 17.2236 10.6417 17.206 10.6417 17.1884L10.6434 16.5566C10.6434 16.5742 10.6551 16.592 10.6783 16.6054C10.7246 16.6321 10.7993 16.6321 10.8453 16.6054C10.8682 16.592 10.8793 16.5747 10.8795 16.5573Z" fill="#875744"/>
<path d="M10.8448 16.5083C10.891 16.5349 10.8912 16.5782 10.8453 16.6048C10.7993 16.6317 10.7246 16.6317 10.6783 16.6048C10.6321 16.5782 10.6319 16.5349 10.6778 16.5083C10.7238 16.4816 10.7986 16.4816 10.8448 16.5083Z" fill="#89633E"/>
<path d="M11.4818 16.3066C11.4818 16.5682 11.1486 16.7804 10.7379 16.7804C10.3271 16.7804 9.99393 16.5682 9.99393 16.3066C9.99393 16.1812 10.0708 16.0341 10.1962 15.9148C10.3319 15.7865 10.5245 15.6909 10.7379 15.6909C10.9513 15.6909 11.144 15.7865 11.2796 15.9148C11.4048 16.0339 11.4818 16.1812 11.4818 16.3066Z" fill="#8FB545"/>
<path d="M11.2796 15.9148C11.1738 16.04 10.9731 16.1225 10.738 16.1225C10.503 16.1225 10.3019 16.0399 10.1961 15.9148C10.3319 15.7865 10.5244 15.6909 10.7378 15.6909C10.9512 15.6909 11.144 15.7865 11.2796 15.9148Z" fill="#81AA40"/>
<path d="M11.312 15.7094C11.312 15.9113 11.0548 16.075 10.7378 16.075C10.4205 16.075 10.1636 15.9113 10.1636 15.7094C10.1636 15.6067 10.2303 15.4854 10.3374 15.3909C10.4407 15.2999 10.5821 15.2339 10.7378 15.2339C10.8935 15.2339 11.0347 15.2999 11.1382 15.3909C11.2454 15.4854 11.312 15.6067 11.312 15.7094Z" fill="#8FB545"/>
<path d="M11.1383 15.3909C11.0548 15.4794 10.9081 15.5371 10.7379 15.5371C10.5676 15.5371 10.4206 15.4796 10.3375 15.3909C10.4407 15.2999 10.5822 15.2339 10.7379 15.2339C10.8936 15.2339 11.0347 15.2999 11.1383 15.3909Z" fill="#81AA40"/>
<path d="M11.1645 15.2179C11.1645 15.368 10.9734 15.4895 10.7378 15.4895C10.5023 15.4895 10.3112 15.368 10.3112 15.2179C10.3112 15.0678 10.7377 14.4619 10.7377 14.4619C10.7377 14.4619 11.1645 15.0679 11.1645 15.2179Z" fill="#8FB545"/>
<path d="M12.7828 16.0742C12.9064 16.1456 12.9081 16.2621 12.7844 16.3338C12.6607 16.4057 12.4589 16.4057 12.3352 16.3343C12.2108 16.2626 12.21 16.1456 12.3339 16.0737C12.4574 16.0018 12.6583 16.0023 12.7828 16.0742Z" fill="#9FC14C"/>
<path d="M12.6779 15.5295L12.676 16.1612C12.676 16.1787 12.6645 16.1961 12.6417 16.2093C12.5958 16.236 12.521 16.236 12.4748 16.2093C12.4515 16.1957 12.44 16.1781 12.44 16.1605L12.4417 15.5288C12.4417 15.5464 12.4533 15.564 12.4765 15.5775C12.5229 15.6043 12.5975 15.6043 12.6436 15.5775C12.6664 15.5642 12.6777 15.5469 12.6779 15.5295Z" fill="#875744"/>
<path d="M12.643 15.481C12.6892 15.5076 12.6894 15.5509 12.6435 15.5775C12.5975 15.6044 12.5229 15.6044 12.4765 15.5775C12.4303 15.5509 12.4302 15.5076 12.476 15.481C12.5219 15.4543 12.5968 15.4543 12.643 15.481Z" fill="#89633E"/>
<path d="M13.28 15.2792C13.28 15.5409 12.9468 15.7531 12.5361 15.7531C12.1254 15.7531 11.7921 15.5409 11.7921 15.2792C11.7921 15.1538 11.869 15.0068 11.9944 14.8875C12.1301 14.7592 12.3227 14.6636 12.5361 14.6636C12.7495 14.6636 12.9422 14.7592 13.0778 14.8875C13.203 15.0066 13.28 15.1538 13.28 15.2792Z" fill="#8FB545"/>
<path d="M13.0778 14.8875C12.972 15.0127 12.7713 15.0951 12.5361 15.0951C12.3009 15.0951 12.1002 15.0125 11.9944 14.8875C12.1301 14.7592 12.3227 14.6636 12.5361 14.6636C12.7495 14.6636 12.9422 14.7592 13.0778 14.8875Z" fill="#81AA40"/>
<path d="M13.1103 14.6821C13.1103 14.884 12.8531 15.0476 12.5361 15.0476C12.2188 15.0476 11.9619 14.884 11.9619 14.6821C11.9619 14.5794 12.0286 14.458 12.1357 14.3636C12.2389 14.2725 12.3804 14.2065 12.5361 14.2065C12.6918 14.2065 12.8329 14.2725 12.9365 14.3636C13.0436 14.458 13.1103 14.5794 13.1103 14.6821Z" fill="#8FB545"/>
<path d="M12.9365 14.3636C12.8531 14.4521 12.7064 14.5098 12.5361 14.5098C12.3659 14.5098 12.2188 14.4523 12.1357 14.3636C12.2389 14.2725 12.3804 14.2065 12.5361 14.2065C12.6918 14.2065 12.8329 14.2725 12.9365 14.3636Z" fill="#81AA40"/>
<path d="M12.9627 14.1907C12.9627 14.3406 12.7717 14.4621 12.5361 14.4621C12.3005 14.4621 12.1095 14.3406 12.1095 14.1905C12.1095 14.0404 12.5359 13.4346 12.5359 13.4346C12.5359 13.4346 12.9627 14.0408 12.9627 14.1907Z" fill="#8FB545"/>
<path d="M18.8784 12.456C19.0019 12.5274 19.0036 12.6438 18.8797 12.7156C18.7562 12.7875 18.5543 12.7875 18.4307 12.7161C18.3062 12.6443 18.3055 12.5274 18.4292 12.4555C18.5529 12.3836 18.7538 12.3842 18.8784 12.456Z" fill="#9FC14C"/>
<path d="M18.7733 11.9113L18.7716 12.5431C18.7716 12.5605 18.7601 12.5779 18.7372 12.5911C18.6912 12.6179 18.6166 12.6179 18.5702 12.5911C18.547 12.5776 18.5353 12.56 18.5353 12.5424L18.5372 11.9106C18.5372 11.9282 18.5489 11.946 18.5721 11.9594C18.6184 11.9861 18.6931 11.9861 18.7389 11.9594C18.7618 11.9462 18.7733 11.9288 18.7733 11.9113Z" fill="#875744"/>
<path d="M18.7384 11.8623C18.7848 11.8891 18.7849 11.9322 18.7389 11.959C18.693 11.9857 18.6182 11.9857 18.572 11.959C18.5258 11.9322 18.5255 11.8891 18.5715 11.8623C18.6174 11.8356 18.6922 11.8356 18.7384 11.8623Z" fill="#89633E"/>
<path d="M19.3756 11.6608C19.3756 11.9222 19.0422 12.1344 18.6316 12.1344C18.2207 12.1344 17.8877 11.9222 17.8877 11.6606C17.8877 11.5352 17.9645 11.3881 18.0898 11.2688C18.2255 11.1405 18.4182 11.0449 18.6316 11.0449C18.845 11.0449 19.0376 11.1405 19.1733 11.2688C19.2986 11.388 19.3756 11.5352 19.3756 11.6608Z" fill="#8FB545"/>
<path d="M19.1733 11.269C19.0674 11.394 18.8667 11.4766 18.6316 11.4766C18.3966 11.4766 18.1957 11.394 18.0898 11.269C18.2255 11.1404 18.4182 11.0449 18.6316 11.0449C18.8449 11.0449 19.0378 11.1405 19.1733 11.269Z" fill="#81AA40"/>
<path d="M19.206 11.0634C19.206 11.2653 18.9488 11.4291 18.6316 11.4291C18.3143 11.4291 18.0573 11.2653 18.0573 11.0636C18.0573 10.9607 18.1239 10.8394 18.2312 10.7449C18.3345 10.6539 18.4759 10.5879 18.6316 10.5879C18.7873 10.5879 18.9285 10.6539 19.0319 10.7449C19.1391 10.8394 19.206 10.9607 19.206 11.0634Z" fill="#8FB545"/>
<path d="M19.0319 10.7449C18.9486 10.8334 18.8019 10.8912 18.6316 10.8912C18.4614 10.8912 18.3143 10.8336 18.2312 10.7449C18.3345 10.6539 18.4759 10.5879 18.6316 10.5879C18.7873 10.5879 18.9285 10.6539 19.0319 10.7449Z" fill="#81AA40"/>
<path d="M19.0582 10.5719C19.0582 10.722 18.867 10.8435 18.6314 10.8435C18.3959 10.8435 18.205 10.722 18.205 10.5719C18.205 10.4218 18.6314 9.81592 18.6314 9.81592C18.6314 9.81592 19.0582 10.4219 19.0582 10.5719Z" fill="#8FB545"/>
<path d="M20.6766 11.4282C20.8001 11.4996 20.8018 11.616 20.678 11.6878C20.5544 11.7597 20.3525 11.7597 20.229 11.6883C20.1044 11.6165 20.1038 11.4996 20.2275 11.4276C20.3512 11.3557 20.5521 11.3564 20.6766 11.4282Z" fill="#9FC14C"/>
<path d="M20.5717 10.8835L20.5696 11.5152C20.5696 11.5327 20.5583 11.5501 20.5355 11.5633C20.4894 11.59 20.4148 11.59 20.3684 11.5633C20.3453 11.5498 20.3336 11.5321 20.3337 11.5145L20.3354 10.8828C20.3354 10.9004 20.3471 10.9182 20.3703 10.9316C20.4167 10.9583 20.4913 10.9583 20.5372 10.9316C20.56 10.9184 20.5717 10.9009 20.5717 10.8835Z" fill="#875744"/>
<path d="M20.5366 10.835C20.583 10.8617 20.5832 10.9049 20.5372 10.9316C20.4913 10.9584 20.4167 10.9584 20.3703 10.9316C20.3241 10.9049 20.3238 10.8617 20.3698 10.835C20.4156 10.8083 20.4904 10.8083 20.5366 10.835Z" fill="#89633E"/>
<path d="M21.1738 10.6334C21.1738 10.8949 20.8404 11.1071 20.4299 11.1071C20.0193 11.1071 19.6859 10.8949 19.6859 10.6332C19.6859 10.5078 19.7627 10.3608 19.888 10.2416C20.0237 10.113 20.2165 10.0176 20.4299 10.0176C20.6433 10.0176 20.8358 10.1132 20.9714 10.2416C21.0968 10.3606 21.1738 10.5078 21.1738 10.6334Z" fill="#8FB545"/>
<path d="M20.9716 10.2416C20.8656 10.3665 20.6649 10.4491 20.4299 10.4491C20.1948 10.4491 19.9939 10.3667 19.888 10.2416C20.0237 10.113 20.2165 10.0176 20.4299 10.0176C20.6433 10.0176 20.836 10.1132 20.9716 10.2416Z" fill="#81AA40"/>
<path d="M21.0041 10.0356C21.0041 10.2375 20.7468 10.4013 20.4299 10.4013C20.1126 10.4013 19.8555 10.2375 19.8555 10.0358C19.8555 9.93287 19.9222 9.81154 20.0295 9.7171C20.1327 9.62606 20.2742 9.56006 20.4299 9.56006C20.5856 9.56006 20.7267 9.62606 20.8301 9.7171C20.9374 9.81154 21.0041 9.93287 21.0041 10.0356Z" fill="#8FB545"/>
<path d="M20.8301 9.7171C20.7468 9.80561 20.6001 9.86332 20.4299 9.86332C20.2596 9.86332 20.1126 9.80578 20.0295 9.7171C20.1327 9.62606 20.2742 9.56006 20.4299 9.56006C20.5856 9.56006 20.7267 9.62606 20.8301 9.7171Z" fill="#81AA40"/>
<path d="M20.8563 9.54453C20.8563 9.69447 20.6654 9.81614 20.4299 9.81614C20.1943 9.81614 20.0031 9.69447 20.0031 9.54453C20.0031 9.39459 20.4297 8.78857 20.4297 8.78857C20.4297 8.78857 20.8563 9.39442 20.8563 9.54453Z" fill="#8FB545"/>
<path d="M7.27099 5.61813L7.2676 6.38627L6.71625 6.06811L6.71963 5.2998L7.27099 5.61813Z" fill="#5388CA"/>
<path d="M6.71625 6.06806L6.82015 6.00781L7.37134 6.32597L7.26743 6.38638L6.71625 6.06806Z" fill="white"/>
<path d="M6.7198 5.29967L6.82354 5.23926L6.82015 6.0074L6.71625 6.06764L6.7198 5.29967Z" fill="#EBEBEB"/>
<path d="M6.6147 5.11816L7.37472 5.55698L7.37066 6.56729L6.61047 6.1283L6.6147 5.11816ZM7.26743 6.38638L7.27081 5.61824L6.7198 5.30009L6.71624 6.06806L7.26743 6.38638Z" fill="#4C525D"/>
<path d="M8.72622 6.46139L8.72283 7.22953L8.17148 6.91121L8.17486 6.14307L8.72622 6.46139Z" fill="#5388CA"/>
<path d="M8.17148 6.911L8.27539 6.85059L8.82657 7.16874L8.72266 7.22916L8.17148 6.911Z" fill="white"/>
<path d="M8.17503 6.14277L8.27877 6.08252L8.27539 6.85049L8.17148 6.9109L8.17503 6.14277Z" fill="#EBEBEB"/>
<path d="M8.06992 5.96094L8.82993 6.39975L8.82587 7.40989L8.06586 6.97108L8.06992 5.96094ZM8.72281 7.22915L8.7262 6.46085L8.17501 6.14269L8.17163 6.91083L8.72281 7.22915Z" fill="#4C525D"/>
<path d="M12.224 8.61032L12.2207 9.37828L11.6693 9.06013L11.6727 8.29199L12.224 8.61032Z" fill="#5388CA"/>
<path d="M11.6693 9.06042L11.7732 9L12.3244 9.31815L12.2205 9.37857L11.6693 9.06042Z" fill="white"/>
<path d="M11.6729 8.29218L11.7766 8.23193L11.7732 8.9999L11.6693 9.06032L11.6729 8.29218Z" fill="#EBEBEB"/>
<path d="M11.5678 8.11035L12.3278 8.549L12.3237 9.55931L11.5635 9.12049L11.5678 8.11035ZM12.2205 9.3784L12.2239 8.61043L11.6729 8.29227L11.6695 9.06024L12.2205 9.3784Z" fill="#4C525D"/>
<path d="M13.6793 9.45358L13.6759 10.2217L13.1245 9.90356L13.1279 9.13525L13.6793 9.45358Z" fill="#5388CA"/>
<path d="M13.1245 9.90302L13.2284 9.84277L13.7796 10.1609L13.6759 10.2213L13.1245 9.90302Z" fill="white"/>
<path d="M13.1281 9.13512L13.2318 9.07471L13.2284 9.84285L13.1245 9.90309L13.1281 9.13512Z" fill="#EBEBEB"/>
<path d="M13.023 8.95312L13.7832 9.39194L13.7789 10.4022L13.0189 9.96326L13.023 8.95312ZM13.6759 10.2213L13.6793 9.4532L13.1281 9.13505L13.1247 9.90302L13.6759 10.2213Z" fill="#4C525D"/>
<path d="M10.9616 1.56689L10.956 2.79128L10.2721 3.74879L10.2777 1.96425L10.9616 1.56689Z" fill="#CCCCCC"/>
<path d="M10.2777 1.96413L10.2721 3.74867L8.94028 2.97968L8.94586 1.19531L10.2777 1.96413Z" fill="#DADADA"/>
<path d="M10.9616 1.56684L10.2777 1.96419L8.94586 1.19537L9.62972 0.797852L10.9616 1.56684Z" fill="#EBEBEB"/>
<path d="M10.9616 1.29541V1.41607L10.2774 1.81359V1.69276L10.9616 1.29541Z" fill="#555B66"/>
<path d="M10.2774 1.69264V1.81347L8.94586 1.04449V0.923828L10.2774 1.69264Z" fill="#5F656F"/>
<path d="M10.9616 1.29503L10.2774 1.69222L8.94586 0.923402L9.63159 0.525879L10.9616 1.29503Z" fill="#75808E"/>
<path d="M10.0328 0.835449L10.9616 1.15682L10.2774 1.55434L10.0328 0.835449Z" fill="#4C525D"/>
<path d="M10.0328 0.835248L10.2774 1.55414L8.94586 0.785156L10.0328 0.835248Z" fill="#555B66"/>
<path d="M10.9616 1.15668L9.63159 0.387695L10.0327 0.835311L10.9616 1.15668Z" fill="#555B66"/>
<path d="M8.94586 0.785388L9.63159 0.387695L10.0327 0.835311L8.94586 0.785388Z" fill="#5F656F"/>
</svg>
